{
.appVersion = "1075";
DisplayStrings = (
"/saraUe-thai",
"/saraUee-thai",
"/saraUee-thai.narrow",
"\U00AFL/Ldotbelowmacron"
);
copyright = "Copyright © 2018 by Cadson Demak Co.,Ltd.. All rights reserved.";
customParameters = (
{
name = vendorID;
value = CDK;
},
{
name = description;
value = "Copyright (c) 2018, Cadson Demak (info@cadsondemak.com)";
},
{
name = license;

glyphs = (
{
glyphname = A;
lastChange = "2018-03-10 10:10:30 +0000";
layers = (
{
anchors = (
{
name = bottom;
position = "{317, 0}";
},
{
name = ogonek;
position = "{602, 10}";
},
{
name = top;
position = "{440, 700}";
}
);
guideLines = (
{
position = "{942, 710}";
}
);
layerId = "0B1DFD06-3317-40CA-B510-4969A0718C16";
paths = (
{
closed = 1;
nodes = (
"80 -10 OFFCURVE",
"91 2 OFFCURVE",
"95 22 CURVE SMOOTH",
"139 270 LINE",
"591 270 LINE",
"547 22 LINE SMOOTH",
"543 2 OFFCURVE",
"550 -10 OFFCURVE",
"568 -10 CURVE SMOOTH",
"586 -10 OFFCURVE",
"596 2 OFFCURVE",
"600 22 CURVE SMOOTH",
"672 429 LINE SMOOTH",
"704 610 OFFCURVE",
"605 710 OFFCURVE",
"439 710 CURVE SMOOTH",
"262 710 OFFCURVE",
"148 622 OFFCURVE",
"114 429 CURVE SMOOTH",
"42 22 LINE SMOOTH",
"38 2 OFFCURVE",
"44 -10 OFFCURVE",
"62 -10 CURVE SMOOTH"
);
},
{
closed = 1;
nodes = (
"167 432 LINE SMOOTH",
"194 587 OFFCURVE",
"283 661 OFFCURVE",
"434 661 CURVE SMOOTH",
"583 661 OFFCURVE",
"646 585 OFFCURVE",
"619 432 CURVE SMOOTH",
"599 317 LINE",
"147 317 LINE"
);
}
);
width = 718;
},
{
anchors = (
{
name = bottom;
position = "{318, 0}";
},
{
name = ogonek;
position = "{584, 10}";
},
{
name = top;
position = "{440, 690}";
}
);
guideLines = (
{
position = "{1656, 710}";
}
);
layerId = "258BB4CE-589F-454F-8E39-237B943AA0B4";
paths = (
{
closed = 1;
nodes = (
"106 -9 OFFCURVE",
"139 13 OFFCURVE",
"146 51 CURVE SMOOTH",
"175 214 LINE",
"537 214 LINE",
"508 51 LINE SMOOTH",
"501 13 OFFCURVE",
"526 -9 OFFCURVE",
"564 -9 CURVE SMOOTH",
"603 -9 OFFCURVE",
"634 13 OFFCURVE",
"641 51 CURVE SMOOTH",
"703 401 LINE SMOOTH",
"736 592 OFFCURVE",
"627 710 OFFCURVE",
"440 710 CURVE SMOOTH",
"232 710 OFFCURVE",
"109 593 OFFCURVE",
"75 401 CURVE SMOOTH",
"13 51 LINE SMOOTH",
"6 13 OFFCURVE",
"29 -9 OFFCURVE",
"68 -9 CURVE SMOOTH"
);
},
{
closed = 1;
nodes = (
"208 404 LINE SMOOTH",
"232 537 OFFCURVE",
"303 605 OFFCURVE",
"425 605 CURVE SMOOTH",
"554 605 OFFCURVE",
"594 536 OFFCURVE",
"570 404 CURVE SMOOTH",
"555 317 LINE",
"193 317 LINE"
);
}
);
width = 719;
},
{
anchors = (
{
name = bottom;
position = "{317, 0}";
},
{
name = ogonek;
position = "{594, 10}";
},
{
name = top;
position = "{440, 696}";
}
);
layerId = "8ED59CAD-D047-43C0-8308-3370007B39AA";
paths = (
{
closed = 1;
nodes = (
"90 -10 OFFCURVE",
"110 6 OFFCURVE",
"115 34 CURVE SMOOTH",
"153 248 LINE",
"569 248 LINE",
"531 34 LINE SMOOTH",
"526 6 OFFCURVE",
"540 -10 OFFCURVE",
"566 -10 CURVE SMOOTH",
"592 -10 OFFCURVE",
"611 6 OFFCURVE",
"616 34 CURVE SMOOTH",
"684 418 LINE SMOOTH",
"716 603 OFFCURVE",
"612 710 OFFCURVE",
"437 710 CURVE SMOOTH",
"246 710 OFFCURVE",
"130 603 OFFCURVE",
"98 418 CURVE SMOOTH",
"30 34 LINE SMOOTH",
"25 6 OFFCURVE",
"38 -10 OFFCURVE",
"64 -10 CURVE SMOOTH"
);
},
{
closed = 1;
nodes = (
"183 421 LINE SMOOTH",
"208 563 OFFCURVE",
"295 639 OFFCURVE",
"430 639 CURVE SMOOTH",
"573 639 OFFCURVE",
"624 563 OFFCURVE",
"599 421 CURVE SMOOTH",
"581 317 LINE",
"165 317 LINE"
);
}
);
width = 717;
}
);
leftKerningGroup = A;
note = A;
rightKerningGroup = A;
unicode = 0041;
},
{
glyphname = B;
lastChange = "2018-03-10 10:10:30 +0000";
layers = (
{
anchors = (
{
name = bottom;
position = "{312, 0}";
},
{
name = top;
position = "{435, 700}";
}
);
layerId = "0B1DFD06-3317-40CA-B510-4969A0718C16";
paths = (
{
closed = 1;
nodes = (
"410 0 LINE SMOOTH",
"523 0 OFFCURVE",
"622 64 OFFCURVE",
"644 198 CURVE SMOOTH",
"656 270 OFFCURVE",
"629 329 OFFCURVE",
"558 355 CURVE",
"558 356 LINE",
"635 386 OFFCURVE",
"675 445 OFFCURVE",
"687 510 CURVE SMOOTH",
"711 644 OFFCURVE",
"626 700 OFFCURVE",
"518 700 CURVE SMOOTH",
"278 700 LINE SMOOTH",
"196 700 OFFCURVE",
"154 654 OFFCURVE",
"143 590 CURVE SMOOTH",
"58 110 LINE SMOOTH",
"47 49 OFFCURVE",
"77 0 OFFCURVE",
"155 0 CURVE SMOOTH"
);
},
{
closed = 1;
nodes = (
"118 47 OFFCURVE",
"104 68 OFFCURVE",
"111 107 CURVE SMOOTH",
"151 335 LINE",
"464 335 LINE SMOOTH",
"556 335 OFFCURVE",
"605 286 OFFCURVE",
"590 198 CURVE SMOOTH",
"571 93 OFFCURVE",
"504 47 OFFCURVE",
"415 47 CURVE SMOOTH",
"157 47 LINE SMOOTH"
);
},
{
closed = 1;
nodes = (
"197 593 LINE SMOOTH",
"203 627 OFFCURVE",
"231 653 OFFCURVE",
"264 653 CURVE SMOOTH",
"510 653 LINE SMOOTH",
"615 653 OFFCURVE",
"651 611 OFFCURVE",
"633 510 CURVE SMOOTH",
"619 433 OFFCURVE",
"556 382 OFFCURVE",
"474 382 CURVE SMOOTH",
"159 382 LINE"
);
}
);
width = 706;
},
{
anchors = (
{
name = bottom;
position = "{320, 0}";
},
{
name = top;
position = "{443, 700}";
}
);
layerId = "258BB4CE-589F-454F-8E39-237B943AA0B4";
paths = (
{
closed = 1;
nodes = (
"403 -10 LINE SMOOTH",
"571 -10 OFFCURVE",
"659 67 OFFCURVE",
"683 205 CURVE SMOOTH",
"693 261 OFFCURVE",
"668 329 OFFCURVE",
"601 357 CURVE",
"601 358 LINE",
"673 388 OFFCURVE",
"715 455 OFFCURVE",
"724 506 CURVE SMOOTH",
"747 633 OFFCURVE",
"650 700 OFFCURVE",
"516 700 CURVE SMOOTH",
"285 700 LINE SMOOTH",
"173 700 OFFCURVE",
"123 645 OFFCURVE",
"106 552 CURVE SMOOTH",
"34 142 LINE SMOOTH",
"17 46 OFFCURVE",
"83 -10 OFFCURVE",
"167 -10 CURVE SMOOTH"
);
},
{
closed = 1;
nodes = (
"172 92 OFFCURVE",
"159 110 OFFCURVE",
"165 141 CURVE SMOOTH",
"194 304 LINE",
"447 304 LINE SMOOTH",
"518 304 OFFCURVE",
"561 270 OFFCURVE",
"549 203 CURVE SMOOTH",
"534 121 OFFCURVE",
"480 92 OFFCURVE",
"409 92 CURVE SMOOTH",
"199 92 LINE SMOOTH"
);
},
{
closed = 1;
nodes = (
"237 549 LINE SMOOTH",
"242 580 OFFCURVE",
"261 598 OFFCURVE",
"288 598 CURVE SMOOTH",
"498 598 LINE SMOOTH",
"569 598 OFFCURVE",
"601 567 OFFCURVE",
"590 505 CURVE SMOOTH",
"579 444 OFFCURVE",
"535 405 OFFCURVE",
"464 405 CURVE SMOOTH",
"211 405 LINE"
);
}
);
width = 728;
},
{
anchors = (
{
name = bottom;
position = "{317, 0}";
},
{
name = top;
position = "{440, 700}";
}
);
layerId = "8ED59CAD-D047-43C0-8308-3370007B39AA";
paths = (
{
closed = 1;
nodes = (
"411 -4 LINE SMOOTH",
"537 -4 OFFCURVE",
"637 65 OFFCURVE",
"661 201 CURVE SMOOTH",
"673 268 OFFCURVE",
"645 324 OFFCURVE",
"577 354 CURVE",
"577 356 LINE",
"652 384 OFFCURVE",
"694 449 OFFCURVE",
"704 508 CURVE SMOOTH",
"726 636 OFFCURVE",
"639 700 OFFCURVE",
"519 700 CURVE SMOOTH",
"279 700 LINE SMOOTH",
"191 700 OFFCURVE",
"143 648 OFFCURVE",
"130 575 CURVE SMOOTH",
"51 123 LINE SMOOTH",
"37 48 OFFCURVE",
"81 -4 OFFCURVE",
"162 -4 CURVE SMOOTH"
);
},
{
closed = 1;
nodes = (
"145 65 OFFCURVE",
"129 88 OFFCURVE",
"134 121 CURVE SMOOTH",
"170 323 LINE",
"459 323 LINE SMOOTH",
"541 323 OFFCURVE",
"589 280 OFFCURVE",
"575 200 CURVE SMOOTH",
"558 104 OFFCURVE",
"496 65 OFFCURVE",
"414 65 CURVE SMOOTH",
"176 65 LINE SMOOTH"
);
},
{
closed = 1;
nodes = (
"214 575 LINE SMOOTH",
"220 608 OFFCURVE",
"245 631 OFFCURVE",
"276 631 CURVE SMOOTH",
"507 631 LINE SMOOTH",
"589 631 OFFCURVE",
"633 593 OFFCURVE",
"618 508 CURVE SMOOTH",
"605 437 OFFCURVE",
"550 391 OFFCURVE",
"472 391 CURVE SMOOTH",
"182 391 LINE"
);
}
);
width = 712;
}
);
leftKerningGroup = B;
note = B;
rightKerningGroup = B;
unicode = 0042;
},
{
glyphname = C;
lastChange = "2018-03-10 10:10:30 +0000";
layers = (
{
anchors = (
{
name = bottom;
position = "{354, 0}";
},
{
name = top;
position = "{477, 700}";
}
);
layerId = "0B1DFD06-3317-40CA-B510-4969A0718C16";
paths = (
{
closed = 1;
nodes = (
"449 -10 OFFCURVE",
"570 22 OFFCURVE",
"644 97 CURVE SMOOTH",
"655 108 OFFCURVE",
"658 123 OFFCURVE",
"648 133 CURVE SMOOTH",
"639 143 OFFCURVE",
"620 140 OFFCURVE",
"609 128 CURVE SMOOTH",
"550 65 OFFCURVE",
"460 39 OFFCURVE",
"359 39 CURVE SMOOTH",
"167 39 OFFCURVE",
"96 165 OFFCURVE",
"129 349 CURVE SMOOTH",
"161 533 OFFCURVE",
"278 661 OFFCURVE",
"469 661 CURVE SMOOTH",
"575 661 OFFCURVE",
"641 635 OFFCURVE",
"677 572 CURVE SMOOTH",
"684 560 OFFCURVE",
"702 559 OFFCURVE",
"715 567 CURVE SMOOTH",
"728 575 OFFCURVE",
"730 592 OFFCURVE",
"723 603 CURVE SMOOTH",
"676 678 OFFCURVE",
"576 710 OFFCURVE",
"477 710 CURVE SMOOTH",
"264 710 OFFCURVE",
"114 572 OFFCURVE",
"75 349 CURVE SMOOTH",
"37 131 OFFCURVE",
"154 -10 OFFCURVE",
"350 -10 CURVE SMOOTH"
);
}
);
width = 730;
},
{
anchors = (
{
name = bottom;
position = "{365, 0}";
},
{
name = top;
position = "{501, 690}";
}
);
layerId = "258BB4CE-589F-454F-8E39-237B943AA0B4";
paths = (
{
closed = 1;
nodes = (
"506 -10 OFFCURVE",
"614 33 OFFCURVE",
"685 107 CURVE SMOOTH",
"711 134 OFFCURVE",
"712 164 OFFCURVE",
"689 186 CURVE SMOOTH",
"667 206 OFFCURVE",
"634 201 OFFCURVE",
"596 169 CURVE SMOOTH",
"541 123 OFFCURVE",
"473 95 OFFCURVE",
"382 95 CURVE SMOOTH",
"217 95 OFFCURVE",
"165 189 OFFCURVE",
"194 349 CURVE SMOOTH",
"222 510 OFFCURVE",
"325 605 OFFCURVE",
"470 605 CURVE SMOOTH",
"563 605 OFFCURVE",
"612 579 OFFCURVE",
"646 531 CURVE SMOOTH",
"662 508 OFFCURVE",
"700 497 OFFCURVE",
"728 515 CURVE SMOOTH",
"759 535 OFFCURVE",
"772 564 OFFCURVE",
"757 593 CURVE SMOOTH",
"720 661 OFFCURVE",
"613 710 OFFCURVE",
"484 710 CURVE SMOOTH",
"248 710 OFFCURVE",
"100 576 OFFCURVE",
"60 349 CURVE SMOOTH",
"20 123 OFFCURVE",
"159 -10 OFFCURVE",
"366 -10 CURVE SMOOTH"
);
}
);
width = 761;
},
{
anchors = (
{
name = bottom;
position = "{354, 0}";
},
{
name = top;
position = "{483, 696}";
}
);
layerId = "8ED59CAD-D047-43C0-8308-3370007B39AA";
paths = (
{
closed = 1;
nodes = (
"463 -10 OFFCURVE",
"584 26 OFFCURVE",
"657 101 CURVE SMOOTH",
"673 118 OFFCURVE",
"676 139 OFFCURVE",
"660 154 CURVE SMOOTH",
"647 168 OFFCURVE",
"622 164 OFFCURVE",
"599 144 CURVE SMOOTH",
"543 88 OFFCURVE",
"458 61 OFFCURVE",
"364 61 CURVE SMOOTH",
"183 61 OFFCURVE",
"120 175 OFFCURVE",
"151 349 CURVE SMOOTH",
"181 524 OFFCURVE",
"308 639 OFFCURVE",
"465 639 CURVE SMOOTH",
"564 639 OFFCURVE",
"625 613 OFFCURVE",
"660 556 CURVE SMOOTH",
"671 539 OFFCURVE",
"697 534 OFFCURVE",
"716 546 CURVE SMOOTH",
"737 559 OFFCURVE",
"743 581 OFFCURVE",
"733 599 CURVE",
"689 671 OFFCURVE",
"588 710 OFFCURVE",
"477 710 CURVE SMOOTH",
"255 710 OFFCURVE",
"104 571 OFFCURVE",
"65 349 CURVE SMOOTH",
"26 128 OFFCURVE",
"151 -10 OFFCURVE",
"351 -10 CURVE SMOOTH"
);
}
);
width = 734;
}
);
leftKerningGroup = C;
note = C;
rightKerningGroup = C;
unicode = 0043;
},
{
glyphname = D;
lastChange = "2018-03-10 10:10:30 +0000";
layers = (
{
anchors = (
{
name = bottom;
position = "{321, 0}";
},
{
name = center;
position = "{383, 350}";
},
{
name = top;
position = "{444, 700}";
}
);
layerId = "0B1DFD06-3317-40CA-B510-4969A0718C16";
paths = (
{
closed = 1;
nodes = (
"301 0 LINE SMOOTH",
"485 0 OFFCURVE",
"648 115 OFFCURVE",
"690 349 CURVE SMOOTH",
"731 576 OFFCURVE",
"603 700 OFFCURVE",
"417 700 CURVE SMOOTH",
"278 700 LINE SMOOTH",
"196 700 OFFCURVE",
"155 657 OFFCURVE",
"143 590 CURVE SMOOTH",
"58 110 LINE SMOOTH",
"48 50 OFFCURVE",
"79 0 OFFCURVE",
"155 0 CURVE SMOOTH"
);
},
{
closed = 1;
nodes = (
"122 47 OFFCURVE",
"105 71 OFFCURVE",
"111 107 CURVE SMOOTH",
"197 593 LINE SMOOTH",
"203 629 OFFCURVE",
"229 653 OFFCURVE",
"264 653 CURVE SMOOTH",
"401 653 LINE SMOOTH",
"563 653 OFFCURVE",
"674 576 OFFCURVE",
"636 349 CURVE SMOOTH",
"599 131 OFFCURVE",
"454 47 OFFCURVE",
"294 47 CURVE SMOOTH",
"157 47 LINE"
);
}
);
width = 725;
},
{
anchors = (
{
name = bottom;
position = "{337, 0}";
},
{
name = center;
position = "{399, 350}";
},
{
name = top;
position = "{459, 690}";
}
);
layerId = "258BB4CE-589F-454F-8E39-237B943AA0B4";
paths = (
{
closed = 1;
nodes = (
"307 0 LINE SMOOTH",
"551 0 OFFCURVE",
"695 121 OFFCURVE",
"736 349 CURVE SMOOTH",
"776 577 OFFCURVE",
"633 700 OFFCURVE",
"420 700 CURVE SMOOTH",
"285 700 LINE SMOOTH",
"174 700 OFFCURVE",
"123 645 OFFCURVE",
"106 552 CURVE SMOOTH",
"36 152 LINE SMOOTH",
"19 56 OFFCURVE",
"68 0 OFFCURVE",
"169 0 CURVE SMOOTH"
);
},
{
closed = 1;
nodes = (
"176 103 OFFCURVE",
"163 121 OFFCURVE",
"169 152 CURVE SMOOTH",
"239 548 LINE SMOOTH",
"244 579 OFFCURVE",
"263 597 OFFCURVE",
"290 597 CURVE SMOOTH",
"397 597 LINE SMOOTH",
"554 597 OFFCURVE",
"631 524 OFFCURVE",
"601 349 CURVE SMOOTH",
"570 174 OFFCURVE",
"468 103 OFFCURVE",
"310 103 CURVE SMOOTH",
"203 103 LINE SMOOTH"
);
}
);
width = 756;
},
{
anchors = (
{
name = bottom;
position = "{329, 0}";
},
{
name = center;
position = "{391, 350}";
},
{
name = top;
position = "{452, 696}";
}
);
layerId = "8ED59CAD-D047-43C0-8308-3370007B39AA";
paths = (
{
closed = 1;
nodes = (
"308 0 LINE SMOOTH",
"508 0 OFFCURVE",
"669 120 OFFCURVE",
"710 349 CURVE SMOOTH",
"750 576 OFFCURVE",
"621 700 OFFCURVE",
"423 700 CURVE SMOOTH",
"283 700 LINE",
"195 700 OFFCURVE",
"143 648 OFFCURVE",
"130 575 CURVE SMOOTH",
"51 127 LINE SMOOTH",
"38 52 OFFCURVE",
"73 0 OFFCURVE",
"163 0 CURVE SMOOTH"
);
},
{
closed = 1;
nodes = (
"146 69 OFFCURVE",
"130 91 OFFCURVE",
"136 125 CURVE SMOOTH",
"215 575 LINE SMOOTH",
"221 609 OFFCURVE",
"245 631 OFFCURVE",
"276 631 CURVE SMOOTH",
"401 631 LINE SMOOTH",
"578 631 OFFCURVE",
"659 550 OFFCURVE",
"624 349 CURVE SMOOTH",
"588 149 OFFCURVE",
"457 69 OFFCURVE",
"302 69 CURVE SMOOTH",
"177 69 LINE"
);
}
);
width = 735;
}
);
note = D;
rightKerningGroup = D;
unicode = 0044;
},
{
glyphname = E;
lastChange = "2018-03-10 10:10:30 +0000";
layers = (
{
anchors = (
{
name = bottom;
position = "{265, 0}";
},
{
name = ogonek;
position = "{469, 10}";
},
{
name = top;
position = "{388, 700}";
},
{
name = topleft;
position = "{106, 700}";
}
);
layerId = "0B1DFD06-3317-40CA-B510-4969A0718C16";
paths = (
{
closed = 1;
nodes = (
"487 0 LINE SMOOTH",
"507 0 OFFCURVE",
"518 8 OFFCURVE",
"521 23 CURVE SMOOTH",
"525 41 OFFCURVE",
"514 47 OFFCURVE",
"495 47 CURVE SMOOTH",
"157 47 LINE SMOOTH",
"114 47 OFFCURVE",
"105 71 OFFCURVE",
"111 107 CURVE SMOOTH",
"151 334 LINE",
"448 334 LINE SMOOTH",
"468 334 OFFCURVE",
"479 342 OFFCURVE",
"482 357 CURVE SMOOTH",
"486 375 OFFCURVE",
"475 381 OFFCURVE",
"456 381 CURVE SMOOTH",
"159 381 LINE",
"197 593 LINE SMOOTH",
"203 629 OFFCURVE",
"229 653 OFFCURVE",
"264 653 CURVE SMOOTH",
"580 653 LINE SMOOTH",
"600 653 OFFCURVE",
"612 661 OFFCURVE",
"614 676 CURVE SMOOTH",
"616 694 OFFCURVE",
"607 700 OFFCURVE",
"588 700 CURVE SMOOTH",
"273 700 LINE SMOOTH",
"191 700 OFFCURVE",
"154 650 OFFCURVE",
"143 590 CURVE SMOOTH",
"58 110 LINE SMOOTH",
"47 50 OFFCURVE",
"79 0 OFFCURVE",
"155 0 CURVE SMOOTH"
);
}
);
width = 613;
},
{
anchors = (
{
name = bottom;
position = "{276, 0}";
},
{
name = ogonek;
position = "{415, 10}";
},
{
name = top;
position = "{398, 690}";
},
{
name = topleft;
position = "{117, 700}";
}
);
layerId = "258BB4CE-589F-454F-8E39-237B943AA0B4";
paths = (
{
closed = 1;
nodes = (
"495 0 LINE SMOOTH",
"531 0 OFFCURVE",
"560 17 OFFCURVE",
"566 51 CURVE SMOOTH",
"572 86 OFFCURVE",
"551 103 OFFCURVE",
"513 103 CURVE SMOOTH",
"203 103 LINE SMOOTH",
"176 103 OFFCURVE",
"163 121 OFFCURVE",
"169 152 CURVE SMOOTH",
"196 306 LINE",
"451 306 LINE SMOOTH",
"487 306 OFFCURVE",
"516 323 OFFCURVE",
"522 357 CURVE SMOOTH",
"528 392 OFFCURVE",
"507 409 OFFCURVE",
"469 409 CURVE SMOOTH",
"214 409 LINE",
"239 548 LINE SMOOTH",
"244 579 OFFCURVE",
"263 597 OFFCURVE",
"290 597 CURVE SMOOTH",
"578 597 LINE SMOOTH",
"614 597 OFFCURVE",
"643 614 OFFCURVE",
"649 648 CURVE SMOOTH",
"655 683 OFFCURVE",
"634 700 OFFCURVE",
"596 700 CURVE SMOOTH",
"276 700 LINE SMOOTH",
"180 700 OFFCURVE",
"123 645 OFFCURVE",
"106 552 CURVE SMOOTH",
"36 152 LINE SMOOTH",
"19 56 OFFCURVE",
"68 0 OFFCURVE",
"169 0 CURVE SMOOTH"
);
}
);
width = 638;
},
{
anchors = (
{
name = bottom;
position = "{272, 0}";
},
{
name = ogonek;
position = "{450, 10}";
},
{
name = top;
position = "{395, 696}";
},
{
name = topleft;
position = "{113, 700}";
}
);
layerId = "8ED59CAD-D047-43C0-8308-3370007B39AA";
paths = (
{
closed = 1;
nodes = (
"492 0 LINE SMOOTH",
"519 0 OFFCURVE",
"537 12 OFFCURVE",
"541 34 CURVE SMOOTH",
"545 59 OFFCURVE",
"531 69 OFFCURVE",
"504 69 CURVE SMOOTH",
"177 69 LINE SMOOTH",
"146 69 OFFCURVE",
"130 91 OFFCURVE",
"136 125 CURVE SMOOTH",
"171 323 LINE",
"451 323 LINE SMOOTH",
"478 323 OFFCURVE",
"496 334 OFFCURVE",
"500 357 CURVE SMOOTH",
"504 382 OFFCURVE",
"490 392 OFFCURVE",
"463 392 CURVE SMOOTH",
"183 392 LINE",
"215 575 LINE SMOOTH",
"221 609 OFFCURVE",
"245 631 OFFCURVE",
"276 631 CURVE SMOOTH",
"581 631 LINE SMOOTH",
"608 631 OFFCURVE",
"626 642 OFFCURVE",
"630 665 CURVE SMOOTH",
"635 690 OFFCURVE",
"620 700 OFFCURVE",
"593 700 CURVE SMOOTH",
"273 700 LINE SMOOTH",
"185 700 OFFCURVE",
"143 648 OFFCURVE",
"130 575 CURVE SMOOTH",
"51 127 LINE SMOOTH",
"38 52 OFFCURVE",
"78 0 OFFCURVE",
"163 0 CURVE SMOOTH"
);
}
);
width = 621;
}
);
note = E;
rightKerningGroup = E;
unicode = 0045;
},
{
glyphname = F;
lastChange = "2018-03-10 10:10:30 +0000";
layers = (
{
anchors = (
{
name = bottom;
position = "{255, 0}";
},
{
name = top;
position = "{378, 700}";
}
);
layerId = "0B1DFD06-3317-40CA-B510-4969A0718C16";
paths = (
{
closed = 1;
nodes = (
"81 -10 OFFCURVE",
"92 2 OFFCURVE",
"96 22 CURVE SMOOTH",
"149 324 LINE",
"446 324 LINE SMOOTH",
"466 324 OFFCURVE",
"478 332 OFFCURVE",
"480 347 CURVE SMOOTH",
"483 365 OFFCURVE",
"473 371 OFFCURVE",
"454 371 CURVE SMOOTH",
"157 371 LINE",
"197 593 LINE SMOOTH",
"203 629 OFFCURVE",
"229 653 OFFCURVE",
"264 653 CURVE SMOOTH",
"580 653 LINE SMOOTH",
"600 653 OFFCURVE",
"612 661 OFFCURVE",
"614 676 CURVE SMOOTH",
"617 694 OFFCURVE",
"607 700 OFFCURVE",
"588 700 CURVE SMOOTH",
"278 700 LINE SMOOTH",
"196 700 OFFCURVE",
"155 656 OFFCURVE",
"143 590 CURVE SMOOTH",
"43 22 LINE SMOOTH",
"39 2 OFFCURVE",
"45 -10 OFFCURVE",
"63 -10 CURVE SMOOTH"
);
}
);
width = 591;
},
{
anchors = (
{
name = bottom;
position = "{255, 0}";
},
{
name = top;
position = "{378, 700}";
}
);
layerId = "258BB4CE-589F-454F-8E39-237B943AA0B4";
paths = (
{
closed = 1;
nodes = (
"111 -10 OFFCURVE",
"144 12 OFFCURVE",
"151 50 CURVE SMOOTH",
"194 296 LINE",
"449 296 LINE SMOOTH",
"485 296 OFFCURVE",
"514 313 OFFCURVE",
"520 347 CURVE SMOOTH",
"526 382 OFFCURVE",
"505 399 OFFCURVE",
"467 399 CURVE SMOOTH",
"212 399 LINE",
"239 548 LINE SMOOTH",
"244 579 OFFCURVE",
"263 597 OFFCURVE",
"290 597 CURVE SMOOTH",
"578 597 LINE SMOOTH",
"614 597 OFFCURVE",
"643 614 OFFCURVE",
"649 648 CURVE SMOOTH",
"655 683 OFFCURVE",
"634 700 OFFCURVE",
"596 700 CURVE SMOOTH",
"275 700 LINE SMOOTH",
"179 700 OFFCURVE",
"123 645 OFFCURVE",
"106 552 CURVE SMOOTH",
"18 50 LINE SMOOTH",
"11 12 OFFCURVE",
"34 -10 OFFCURVE",
"73 -10 CURVE SMOOTH"
);
}
);
width = 606;
},
{
anchors = (
{
name = bottom;
position = "{257, 0}";
},
{
name = top;
position = "{380, 700}";
}
);
layerId = "8ED59CAD-D047-43C0-8308-3370007B39AA";
paths = (
{
closed = 1;
nodes = (
"95 -10 OFFCURVE",
"115 6 OFFCURVE",
"120 33 CURVE SMOOTH",
"169 313 LINE",
"449 313 LINE SMOOTH",
"476 313 OFFCURVE",
"494 324 OFFCURVE",
"498 347 CURVE SMOOTH",
"503 372 OFFCURVE",
"488 382 OFFCURVE",
"461 382 CURVE SMOOTH",
"181 382 LINE",
"215 575 LINE SMOOTH",
"221 609 OFFCURVE",
"245 631 OFFCURVE",
"276 631 CURVE SMOOTH",
"581 631 LINE SMOOTH",
"608 631 OFFCURVE",
"626 642 OFFCURVE",
"630 665 CURVE SMOOTH",
"635 690 OFFCURVE",
"620 700 OFFCURVE",
"593 700 CURVE SMOOTH",
"273 700 LINE SMOOTH",
"185 700 OFFCURVE",
"143 648 OFFCURVE",
"130 575 CURVE SMOOTH",
"35 33 LINE SMOOTH",
"30 6 OFFCURVE",
"43 -10 OFFCURVE",
"69 -10 CURVE SMOOTH"
);
}
);
width = 599;
}
);
note = F;
unicode = 0046;
},
{
glyphname = G;
lastChange = "2018-03-10 10:10:30 +0000";
layers = (
{
anchors = (
{
name = bottom;
position = "{334, 0}";
},
{
name = top;
position = "{457, 700}";
}
);
layerId = "0B1DFD06-3317-40CA-B510-4969A0718C16";
paths = (
{
closed = 1;
nodes = (
"551 -10 OFFCURVE",
"671 103 OFFCURVE",
"693 223 CURVE SMOOTH",
"700 261 LINE SMOOTH",
"711 320 OFFCURVE",
"682 363 OFFCURVE",
"605 363 CURVE SMOOTH",
"451 363 LINE SMOOTH",
"432 363 OFFCURVE",
"420 357 OFFCURVE",
"417 339 CURVE SMOOTH",
"414 324 OFFCURVE",
"423 316 OFFCURVE",
"443 316 CURVE SMOOTH",
"603 316 LINE SMOOTH",
"643 316 OFFCURVE",
"654 302 OFFCURVE",
"647 260 CURVE SMOOTH",
"640 222 LINE SMOOTH",
"623 123 OFFCURVE",
"513 39 OFFCURVE",
"363 39 CURVE SMOOTH",
"165 39 OFFCURVE",
"96 165 OFFCURVE",
"129 349 CURVE SMOOTH",
"161 533 OFFCURVE",
"286 661 OFFCURVE",
"474 661 CURVE SMOOTH",
"572 661 OFFCURVE",
"646 635 OFFCURVE",
"682 572 CURVE SMOOTH",
"689 560 OFFCURVE",
"707 559 OFFCURVE",
"720 567 CURVE SMOOTH",
"733 575 OFFCURVE",
"735 592 OFFCURVE",
"728 603 CURVE SMOOTH",
"681 678 OFFCURVE",
"581 710 OFFCURVE",
"482 710 CURVE SMOOTH",
"269 710 OFFCURVE",
"114 572 OFFCURVE",
"75 349 CURVE SMOOTH",
"37 131 OFFCURVE",
"148 -10 OFFCURVE",
"354 -10 CURVE SMOOTH"
);
}
);
width = 750;
},
{
anchors = (
{
name = bottom;
position = "{364, 0}";
},
{
name = top;
position = "{486, 690}";
}
);
layerId = "258BB4CE-589F-454F-8E39-237B943AA0B4";
paths = (
{
closed = 1;
nodes = (
"572 -10 OFFCURVE",
"710 104 OFFCURVE",
"736 248 CURVE SMOOTH",
"743 287 LINE SMOOTH",
"755 356 OFFCURVE",
"728 389 OFFCURVE",
"649 389 CURVE SMOOTH",
"455 389 LINE SMOOTH",
"417 389 OFFCURVE",
"391 370 OFFCURVE",
"385 337 CURVE SMOOTH",
"380 305 OFFCURVE",
"398 286 OFFCURVE",
"436 286 CURVE SMOOTH",
"567 286 LINE SMOOTH",
"599 286 OFFCURVE",
"608 276 OFFCURVE",
"603 249 CURVE SMOOTH",
"599 227 LINE SMOOTH",
"584 144 OFFCURVE",
"504 95 OFFCURVE",
"382 95 CURVE SMOOTH",
"214 95 OFFCURVE",
"165 189 OFFCURVE",
"194 349 CURVE SMOOTH",
"222 510 OFFCURVE",
"325 605 OFFCURVE",
"470 605 CURVE SMOOTH",
"563 605 OFFCURVE",
"612 579 OFFCURVE",
"646 531 CURVE SMOOTH",
"662 508 OFFCURVE",
"700 497 OFFCURVE",
"728 515 CURVE SMOOTH",
"759 535 OFFCURVE",
"772 564 OFFCURVE",
"757 593 CURVE SMOOTH",
"720 661 OFFCURVE",
"613 710 OFFCURVE",
"484 710 CURVE SMOOTH",
"251 710 OFFCURVE",
"100 576 OFFCURVE",
"60 349 CURVE SMOOTH",
"20 123 OFFCURVE",
"158 -10 OFFCURVE",
"366 -10 CURVE SMOOTH"
);
}
);
width = 774;
},
{
anchors = (
{
name = bottom;
position = "{342, 0}";
},
{
name = top;
position = "{465, 696}";
}
);
layerId = "8ED59CAD-D047-43C0-8308-3370007B39AA";
paths = (
{
closed = 1;
nodes = (
"566 -10 OFFCURVE",
"684 108 OFFCURVE",
"706 233 CURVE SMOOTH",
"713 271 LINE SMOOTH",
"724 337 OFFCURVE",
"699 373 OFFCURVE",
"619 373 CURVE SMOOTH",
"449 373 LINE SMOOTH",
"422 373 OFFCURVE",
"405 362 OFFCURVE",
"401 338 CURVE SMOOTH",
"397 316 OFFCURVE",
"409 304 OFFCURVE",
"437 304 CURVE SMOOTH",
"585 304 LINE SMOOTH",
"622 304 OFFCURVE",
"631 292 OFFCURVE",
"625 256 CURVE SMOOTH",
"619 224 LINE SMOOTH",
"603 131 OFFCURVE",
"505 61 OFFCURVE",
"367 61 CURVE SMOOTH",
"195 61 OFFCURVE",
"120 175 OFFCURVE",
"151 349 CURVE SMOOTH",
"181 524 OFFCURVE",
"298 639 OFFCURVE",
"468 639 CURVE SMOOTH",
"566 639 OFFCURVE",
"628 613 OFFCURVE",
"663 556 CURVE SMOOTH",
"674 539 OFFCURVE",
"700 534 OFFCURVE",
"719 546 CURVE SMOOTH",
"740 559 OFFCURVE",
"746 581 OFFCURVE",
"736 599 CURVE SMOOTH",
"692 671 OFFCURVE",
"586 710 OFFCURVE",
"475 710 CURVE SMOOTH",
"253 710 OFFCURVE",
"104 571 OFFCURVE",
"65 349 CURVE SMOOTH",
"26 128 OFFCURVE",
"156 -10 OFFCURVE",
"359 -10 CURVE SMOOTH"
);
}
);
width = 752;
}
);
leftKerningGroup = C;
note = G;
rightKerningGroup = C;
unicode = 0047;
},
{
glyphname = H;
lastChange = "2018-03-10 10:10:30 +0000";
layers = (
{
anchors = (
{
name = bottom;
position = "{337, 0}";
},
{
name = center;
position = "{393, 350}";
},
{
name = top;
position = "{454, 700}";
},
{
name = topleft;
position = "{106, 700}";
}
);
layerId = "0B1DFD06-3317-40CA-B510-4969A0718C16";
paths = (
{
closed = 1;
nodes = (
"85 -10 OFFCURVE",
"96 2 OFFCURVE",
"100 22 CURVE SMOOTH",
"155 336 LINE",
"624 336 LINE",
"569 22 LINE SMOOTH",
"565 2 OFFCURVE",
"572 -10 OFFCURVE",
"590 -10 CURVE SMOOTH",
"608 -10 OFFCURVE",
"618 2 OFFCURVE",
"622 22 CURVE SMOOTH",
"738 678 LINE SMOOTH",
"741 698 OFFCURVE",
"735 710 OFFCURVE",
"717 710 CURVE SMOOTH",
"699 710 OFFCURVE",
"688 698 OFFCURVE",
"685 678 CURVE SMOOTH",
"633 383 LINE",
"164 383 LINE",
"216 678 LINE SMOOTH",
"219 698 OFFCURVE",
"212 710 OFFCURVE",
"194 710 CURVE SMOOTH",
"176 710 OFFCURVE",
"166 698 OFFCURVE",
"163 678 CURVE SMOOTH",
"47 22 LINE SMOOTH",
"43 2 OFFCURVE",
"49 -10 OFFCURVE",
"67 -10 CURVE SMOOTH"
);
}
);
width = 745;
},
{
anchors = (
{
name = bottom;
position = "{336, 0}";
},
{
name = center;
position = "{398, 350}";
},
{
name = top;
position = "{458, 690}";
},
{
name = topleft;
position = "{111, 700}";
}
);
layerId = "258BB4CE-589F-454F-8E39-237B943AA0B4";
paths = (
{
closed = 1;
nodes = (
"110 -10 OFFCURVE",
"143 12 OFFCURVE",
"150 50 CURVE SMOOTH",
"195 308 LINE",
"554 308 LINE",
"509 50 LINE SMOOTH",
"502 12 OFFCURVE",
"527 -10 OFFCURVE",
"565 -10 CURVE SMOOTH",
"604 -10 OFFCURVE",
"635 12 OFFCURVE",
"642 50 CURVE SMOOTH",
"748 650 LINE SMOOTH",
"754 688 OFFCURVE",
"731 710 OFFCURVE",
"692 710 CURVE SMOOTH",
"654 710 OFFCURVE",
"621 688 OFFCURVE",
"615 650 CURVE SMOOTH",
"572 411 LINE",
"213 411 LINE",
"256 650 LINE SMOOTH",
"262 688 OFFCURVE",
"237 710 OFFCURVE",
"199 710 CURVE SMOOTH",
"160 710 OFFCURVE",
"129 688 OFFCURVE",
"123 650 CURVE SMOOTH",
"17 50 LINE SMOOTH",
"10 12 OFFCURVE",
"33 -10 OFFCURVE",
"72 -10 CURVE SMOOTH"
);
}
);
width = 725;
},
{
anchors = (
{
name = bottom;
position = "{332, 0}";
},
{
name = center;
position = "{394, 350}";
},
{
name = top;
position = "{455, 696}";
},
{
name = topleft;
position = "{107, 700}";
}
);
layerId = "8ED59CAD-D047-43C0-8308-3370007B39AA";
paths = (
{
closed = 1;
nodes = (
"94 -10 OFFCURVE",
"114 6 OFFCURVE",
"119 33 CURVE SMOOTH",
"170 325 LINE",
"595 325 LINE",
"544 33 LINE SMOOTH",
"539 6 OFFCURVE",
"553 -10 OFFCURVE",
"579 -10 CURVE SMOOTH",
"605 -10 OFFCURVE",
"624 6 OFFCURVE",
"629 33 CURVE SMOOTH",
"741 667 LINE SMOOTH",
"745 694 OFFCURVE",
"732 710 OFFCURVE",
"706 710 CURVE SMOOTH",
"680 710 OFFCURVE",
"660 694 OFFCURVE",
"656 667 CURVE SMOOTH",
"607 394 LINE",
"182 394 LINE",
"231 667 LINE SMOOTH",
"235 694 OFFCURVE",
"221 710 OFFCURVE",
"195 710 CURVE SMOOTH",
"169 710 OFFCURVE",
"150 694 OFFCURVE",
"146 667 CURVE SMOOTH",
"34 33 LINE SMOOTH",
"29 6 OFFCURVE",
"42 -10 OFFCURVE",
"68 -10 CURVE SMOOTH"
);
}
);
width = 735;
}
);
leftKerningGroup = H;
note = H;
rightKerningGroup = H;
unicode = 0048;
},
{
glyphname = I;
lastChange = "2018-03-10 10:10:30 +0000";
layers = (
{
anchors = (
{
name = bottom;
position = "{70, 0}";
},
{
name = ogonek;
position = "{87, 10}";
},
{
name = top;
position = "{193, 700}";
},
{
name = topleft;
position = "{106, 700}";
}
);
layerId = "0B1DFD06-3317-40CA-B510-4969A0718C16";
paths = (
{
closed = 1;
nodes = (
"85 -10 OFFCURVE",
"96 2 OFFCURVE",
"100 22 CURVE SMOOTH",
"216 678 LINE SMOOTH",
"219 698 OFFCURVE",
"212 710 OFFCURVE",
"194 710 CURVE SMOOTH",
"176 710 OFFCURVE",
"166 698 OFFCURVE",
"163 678 CURVE SMOOTH",
"47 22 LINE SMOOTH",
"43 2 OFFCURVE",
"49 -10 OFFCURVE",
"67 -10 CURVE SMOOTH"
);
}
);
width = 223;
},
{
anchors = (
{
name = bottom;
position = "{70, 0}";
},
{
name = ogonek;
position = "{96, 10}";
},
{
name = top;
position = "{192, 690}";
},
{
name = topleft;
position = "{106, 700}";
}
);
layerId = "258BB4CE-589F-454F-8E39-237B943AA0B4";
paths = (
{
closed = 1;
nodes = (
"110 -10 OFFCURVE",
"143 12 OFFCURVE",
"150 50 CURVE SMOOTH",
"256 650 LINE SMOOTH",
"262 688 OFFCURVE",
"237 710 OFFCURVE",
"199 710 CURVE SMOOTH",
"160 710 OFFCURVE",
"129 688 OFFCURVE",
"123 650 CURVE SMOOTH",
"17 50 LINE SMOOTH",
"10 12 OFFCURVE",
"33 -10 OFFCURVE",
"72 -10 CURVE SMOOTH"
);
}
);
width = 233;
},
{
anchors = (
{
name = bottom;
position = "{69, 0}";
},
{
name = ogonek;
position = "{90, 10}";
},
{
name = top;
position = "{192, 696}";
},
{
name = topleft;
position = "{105, 700}";
}
);
layerId = "8ED59CAD-D047-43C0-8308-3370007B39AA";
paths = (
{
closed = 1;
nodes = (
"94 -10 OFFCURVE",
"114 6 OFFCURVE",
"119 33 CURVE SMOOTH",
"231 667 LINE SMOOTH",
"235 694 OFFCURVE",
"221 710 OFFCURVE",
"195 710 CURVE SMOOTH",
"169 710 OFFCURVE",
"150 694 OFFCURVE",
"146 667 CURVE SMOOTH",
"34 33 LINE SMOOTH",
"29 6 OFFCURVE",
"42 -10 OFFCURVE",
"68 -10 CURVE SMOOTH"
);
}
);
width = 225;
}
);
note = I;
unicode = 0049;
},
{
glyphname = J;
lastChange = "2018-03-10 10:10:30 +0000";
layers = (
{
anchors = (
{
name = bottom;
position = "{251, 0}";
},
{
name = top;
position = "{559, 700}";
}
);
layerId = "0B1DFD06-3317-40CA-B510-4969A0718C16";
paths = (
{
closed = 1;
nodes = (
"380 -10 OFFCURVE",
"476 74 OFFCURVE",
"501 215 CURVE SMOOTH",
"583 678 LINE SMOOTH",
"586 698 OFFCURVE",
"579 710 OFFCURVE",
"561 710 CURVE SMOOTH",
"543 710 OFFCURVE",
"533 698 OFFCURVE",
"530 678 CURVE SMOOTH",
"447 211 LINE SMOOTH",
"428 104 OFFCURVE",
"356 40 OFFCURVE",
"253 40 CURVE SMOOTH",
"156 40 OFFCURVE",
"115 63 OFFCURVE",
"76 134 CURVE SMOOTH",
"68 148 OFFCURVE",
"50 149 OFFCURVE",
"38 139 CURVE SMOOTH",
"25 129 OFFCURVE",
"21 116 OFFCURVE",
"29 103 CURVE SMOOTH",
"76 27 OFFCURVE",
"148 -10 OFFCURVE",
"244 -10 CURVE SMOOTH"
);
}
);
width = 585;
},
{
anchors = (
{
name = bottom;
position = "{254, 0}";
},
{
name = top;
position = "{562, 700}";
}
);
layerId = "258BB4CE-589F-454F-8E39-237B943AA0B4";
paths = (
{
closed = 1;
nodes = (
"425 -10 OFFCURVE",
"521 86 OFFCURVE",
"548 238 CURVE SMOOTH",
"621 650 LINE SMOOTH",
"627 688 OFFCURVE",
"602 710 OFFCURVE",
"564 710 CURVE SMOOTH",
"525 710 OFFCURVE",
"494 688 OFFCURVE",
"488 650 CURVE SMOOTH",
"414 234 LINE SMOOTH",
"398 140 OFFCURVE",
"352 96 OFFCURVE",
"271 96 CURVE SMOOTH",
"203 96 OFFCURVE",
"148 123 OFFCURVE",
"123 168 CURVE SMOOTH",
"102 205 OFFCURVE",
"64 205 OFFCURVE",
"36 185 CURVE SMOOTH",
"5 163 OFFCURVE",
"-7 132 OFFCURVE",
"12 106 CURVE SMOOTH",
"64 33 OFFCURVE",
"145 -10 OFFCURVE",
"252 -10 CURVE SMOOTH"
);
}
);
width = 593;
},
{
anchors = (
{
name = bottom;
position = "{252, 0}";
},
{
name = top;
position = "{560, 700}";
}
);
layerId = "8ED59CAD-D047-43C0-8308-3370007B39AA";
paths = (
{
closed = 1;
nodes = (
"368 -10 OFFCURVE",
"489 52 OFFCURVE",
"519 224 CURVE SMOOTH",
"598 667 LINE SMOOTH",
"602 694 OFFCURVE",
"588 710 OFFCURVE",
"562 710 CURVE SMOOTH",
"535 710 OFFCURVE",
"517 694 OFFCURVE",
"513 667 CURVE SMOOTH",
"434 220 LINE SMOOTH",
"414 106 OFFCURVE",
"343 62 OFFCURVE",
"260 62 CURVE SMOOTH",
"180 62 OFFCURVE",
"127 87 OFFCURVE",
"94 148 CURVE SMOOTH",
"81 171 OFFCURVE",
"55 171 OFFCURVE",
"37 157 CURVE SMOOTH",
"16 143 OFFCURVE",
"11 123 OFFCURVE",
"21 104 CURVE SMOOTH",
"65 29 OFFCURVE",
"157 -10 OFFCURVE",
"252 -10 CURVE SMOOTH"
);
}
);
width = 587;
}
);
leftKerningGroup = J;
note = J;
rightKerningGroup = J;
unicode = 004A;
},
{
glyphname = K;
lastChange = "2018-03-10 10:10:30 +0000";
layers = (
{
anchors = (
{
name = bottom;
position = "{294, 0}";
},
{
name = top;
position = "{417, 700}";
}
);
layerId = "0B1DFD06-3317-40CA-B510-4969A0718C16";
paths = (
{
closed = 1;
nodes = (
"568 -11 OFFCURVE",
"577 3 OFFCURVE",
"576 17 CURVE SMOOTH",
"568 216 OFFCURVE",
"482 313 OFFCURVE",
"343 415 CURVE",
"668 661 LINE SMOOTH",
"681 672 OFFCURVE",
"682 686 OFFCURVE",
"675 696 CURVE SMOOTH",
"668 704 OFFCURVE",
"656 708 OFFCURVE",
"643 699 CURVE SMOOTH",
"155 335 LINE",
"216 678 LINE SMOOTH",
"219 698 OFFCURVE",
"212 710 OFFCURVE",
"194 710 CURVE SMOOTH",
"176 710 OFFCURVE",
"166 698 OFFCURVE",
"163 678 CURVE SMOOTH",
"47 22 LINE SMOOTH",
"43 2 OFFCURVE",
"49 -10 OFFCURVE",
"67 -10 CURVE SMOOTH",
"85 -10 OFFCURVE",
"96 2 OFFCURVE",
"100 22 CURVE SMOOTH",
"144 271 LINE",
"299 383 LINE",
"449 287 OFFCURVE",
"515 201 OFFCURVE",
"527 7 CURVE SMOOTH",
"528 -7 OFFCURVE",
"537 -17 OFFCURVE",
"553 -14 CURVE SMOOTH"
);
}
);
width = 670;
},
{
anchors = (
{
name = bottom;
position = "{299, 0}";
},
{
name = top;
position = "{422, 700}";
}
);
layerId = "258BB4CE-589F-454F-8E39-237B943AA0B4";
paths = (
{
closed = 1;
nodes = (
"578 -10 OFFCURVE",
"609 20 OFFCURVE",
"611 54 CURVE SMOOTH",
"618 180 OFFCURVE",
"545 320 OFFCURVE",
"396 409 CURVE",
"663 610 LINE SMOOTH",
"696 635 OFFCURVE",
"704 662 OFFCURVE",
"682 691 CURVE SMOOTH",
"661 719 OFFCURVE",
"626 714 OFFCURVE",
"598 693 CURVE SMOOTH",
"212 401 LINE",
"256 650 LINE SMOOTH",
"262 688 OFFCURVE",
"237 710 OFFCURVE",
"199 710 CURVE SMOOTH",
"160 710 OFFCURVE",
"129 688 OFFCURVE",
"123 650 CURVE SMOOTH",
"17 50 LINE SMOOTH",
"10 12 OFFCURVE",
"33 -10 OFFCURVE",
"72 -10 CURVE SMOOTH",
"110 -10 OFFCURVE",
"143 12 OFFCURVE",
"150 50 CURVE SMOOTH",
"186 256 LINE",
"300 338 LINE",
"433 262 OFFCURVE",
"481 169 OFFCURVE",
"482 34 CURVE SMOOTH",
"482 2 OFFCURVE",
"509 -10 OFFCURVE",
"545 -10 CURVE SMOOTH"
);
}
);
width = 683;
},
{
anchors = (
{
name = bottom;
position = "{295, 0}";
},
{
name = top;
position = "{418, 700}";
}
);
layerId = "8ED59CAD-D047-43C0-8308-3370007B39AA";
paths = (
{
closed = 1;
nodes = (
"571 -11 OFFCURVE",
"589 10 OFFCURVE",
"589 32 CURVE SMOOTH",
"587 202 OFFCURVE",
"507 316 OFFCURVE",
"364 413 CURVE",
"665 641 LINE SMOOTH",
"686 657 OFFCURVE",
"689 676 OFFCURVE",
"676 694 CURVE SMOOTH",
"664 710 OFFCURVE",
"643 710 OFFCURVE",
"624 697 CURVE SMOOTH",
"177 361 LINE",
"231 667 LINE SMOOTH",
"235 694 OFFCURVE",
"221 710 OFFCURVE",
"195 710 CURVE SMOOTH",
"169 710 OFFCURVE",
"150 694 OFFCURVE",
"146 667 CURVE SMOOTH",
"34 33 LINE SMOOTH",
"29 6 OFFCURVE",
"42 -10 OFFCURVE",
"68 -10 CURVE SMOOTH",
"94 -10 OFFCURVE",
"114 6 OFFCURVE",
"119 33 CURVE SMOOTH",
"160 265 LINE",
"298 365 LINE",
"437 277 OFFCURVE",
"503 197 OFFCURVE",
"508 18 CURVE SMOOTH",
"509 -3 OFFCURVE",
"525 -14 OFFCURVE",
"549 -12 CURVE SMOOTH"
);
}
);
width = 670;
}
);
note = K;
rightKerningGroup = K;
unicode = 004B;
},
{
glyphname = L;
lastChange = "2018-03-10 10:10:30 +0000";
layers = (
{
anchors = (
{
name = bottom;
position = "{262, 0}";
},
{
name = center;
position = "{324, 350}";
},
{
name = top;
position = "{385, 700}";
},
{
name = topright;
position = "{664, 700}";
}
);
layerId = "0B1DFD06-3317-40CA-B510-4969A0718C16";
paths = (
{
closed = 1;
nodes = (
"492 0 LINE SMOOTH",
"512 0 OFFCURVE",
"523 8 OFFCURVE",
"526 23 CURVE SMOOTH",
"530 41 OFFCURVE",
"519 47 OFFCURVE",
"500 47 CURVE SMOOTH",
"162 47 LINE SMOOTH",
"127 47 OFFCURVE",
"110 71 OFFCURVE",
"116 107 CURVE SMOOTH",
"217 678 LINE SMOOTH",
"221 698 OFFCURVE",
"213 710 OFFCURVE",
"195 710 CURVE SMOOTH",
"177 710 OFFCURVE",
"168 698 OFFCURVE",
"164 678 CURVE SMOOTH",
"63 110 LINE SMOOTH",
"52 50 OFFCURVE",
"84 0 OFFCURVE",
"160 0 CURVE SMOOTH"
);
}
);
width = 608;
},
{
anchors = (
{
name = bottom;
position = "{262, 0}";
},
{
name = center;
position = "{324, 350}";
},
{
name = top;
position = "{385, 700}";
},
{
name = topright;
position = "{664, 700}";
}
);
layerId = "258BB4CE-589F-454F-8E39-237B943AA0B4";
paths = (
{
closed = 1;
nodes = (
"504 0 LINE SMOOTH",
"540 0 OFFCURVE",
"569 17 OFFCURVE",
"575 51 CURVE SMOOTH",
"581 86 OFFCURVE",
"560 103 OFFCURVE",
"522 103 CURVE SMOOTH",
"202 103 LINE SMOOTH",
"175 103 OFFCURVE",
"162 121 OFFCURVE",
"168 152 CURVE SMOOTH",
"256 650 LINE SMOOTH",
"262 688 OFFCURVE",
"237 710 OFFCURVE",
"199 710 CURVE SMOOTH",
"160 710 OFFCURVE",
"129 688 OFFCURVE",
"123 650 CURVE SMOOTH",
"35 152 LINE SMOOTH",
"18 56 OFFCURVE",
"67 0 OFFCURVE",
"168 0 CURVE SMOOTH"
);
}
);
width = 627;
},
{
anchors = (
{
name = bottom;
position = "{262, 0}";
},
{
name = center;
position = "{324, 350}";
},
{
name = top;
position = "{385, 700}";
},
{
name = topright;
position = "{664, 700}";
}
);
layerId = "8ED59CAD-D047-43C0-8308-3370007B39AA";
paths = (
{
closed = 1;
nodes = (
"496 0 LINE SMOOTH",
"523 0 OFFCURVE",
"541 12 OFFCURVE",
"545 34 CURVE SMOOTH",
"549 59 OFFCURVE",
"535 69 OFFCURVE",
"508 69 CURVE SMOOTH",
"177 69 LINE SMOOTH",
"146 69 OFFCURVE",
"130 91 OFFCURVE",
"136 125 CURVE SMOOTH",
"232 667 LINE SMOOTH",
"236 694 OFFCURVE",
"222 710 OFFCURVE",
"196 710 CURVE SMOOTH",
"170 710 OFFCURVE",
"151 694 OFFCURVE",
"147 667 CURVE SMOOTH",
"51 127 LINE SMOOTH",
"38 52 OFFCURVE",
"83 0 OFFCURVE",
"163 0 CURVE SMOOTH"
);
}
);
width = 615;
}
);
note = L;
rightKerningGroup = L;
unicode = 004C;
},
{
glyphname = M;
lastChange = "2018-03-10 10:10:30 +0000";
layers = (
{
anchors = (
{
name = bottom;
position = "{445, 0}";
},
{
name = top;
position = "{568, 700}";
}
);
layerId = "0B1DFD06-3317-40CA-B510-4969A0718C16";
paths = (
{
closed = 1;
nodes = (
"81 -10 OFFCURVE",
"92 2 OFFCURVE",
"96 22 CURVE SMOOTH",
"178 490 LINE SMOOTH",
"200 613 OFFCURVE",
"274 660 OFFCURVE",
"371 660 CURVE SMOOTH",
"450 660 OFFCURVE",
"527 613 OFFCURVE",
"505 490 CURVE SMOOTH",
"423 22 LINE SMOOTH",
"419 2 OFFCURVE",
"425 -10 OFFCURVE",
"442 -10 CURVE SMOOTH",
"460 -10 OFFCURVE",
"470 2 OFFCURVE",
"474 22 CURVE SMOOTH",
"556 490 LINE SMOOTH",
"578 613 OFFCURVE",
"666 660 OFFCURVE",
"750 660 CURVE SMOOTH",
"852 660 OFFCURVE",
"905 613 OFFCURVE",
"883 490 CURVE SMOOTH",
"801 22 LINE SMOOTH",
"797 2 OFFCURVE",
"803 -10 OFFCURVE",
"821 -10 CURVE SMOOTH",
"839 -10 OFFCURVE",
"850 2 OFFCURVE",
"854 22 CURVE SMOOTH",
"936 490 LINE SMOOTH",
"962 633 OFFCURVE",
"888 710 OFFCURVE",
"759 710 CURVE SMOOTH",
"661 710 OFFCURVE",
"580 654 OFFCURVE",
"544 591 CURVE",
"530 654 OFFCURVE",
"463 710 OFFCURVE",
"376 710 CURVE SMOOTH",
"247 710 OFFCURVE",
"151 640 OFFCURVE",
"125 490 CURVE SMOOTH",
"43 22 LINE SMOOTH",
"39 2 OFFCURVE",
"45 -10 OFFCURVE",
"63 -10 CURVE SMOOTH"
);
}
);
width = 972;
},
{
anchors = (
{
name = bottom;
position = "{455, 0}";
},
{
name = top;
position = "{578, 700}";
}
);
layerId = "258BB4CE-589F-454F-8E39-237B943AA0B4";
paths = (
{
closed = 1;
nodes = (
"111 -10 OFFCURVE",
"144 12 OFFCURVE",
"151 50 CURVE SMOOTH",
"223 462 LINE SMOOTH",
"241 563 OFFCURVE",
"283 605 OFFCURVE",
"369 605 CURVE SMOOTH",
"446 605 OFFCURVE",
"480 550 OFFCURVE",
"464 462 CURVE SMOOTH",
"392 50 LINE SMOOTH",
"385 12 OFFCURVE",
"407 -10 OFFCURVE",
"446 -10 CURVE SMOOTH",
"485 -10 OFFCURVE",
"516 12 OFFCURVE",
"523 50 CURVE SMOOTH",
"595 462 LINE SMOOTH",
"612 553 OFFCURVE",
"663 605 OFFCURVE",
"742 605 CURVE SMOOTH",
"828 605 OFFCURVE",
"854 563 OFFCURVE",
"836 462 CURVE SMOOTH",
"764 50 LINE SMOOTH",
"757 12 OFFCURVE",
"780 -10 OFFCURVE",
"819 -10 CURVE SMOOTH",
"857 -10 OFFCURVE",
"890 12 OFFCURVE",
"897 50 CURVE SMOOTH",
"969 462 LINE SMOOTH",
"996 615 OFFCURVE",
"910 710 OFFCURVE",
"761 710 CURVE SMOOTH",
"682 710 OFFCURVE",
"608 671 OFFCURVE",
"551 604 CURVE",
"515 671 OFFCURVE",
"455 710 OFFCURVE",
"378 710 CURVE SMOOTH",
"208 710 OFFCURVE",
"117 615 OFFCURVE",
"90 462 CURVE SMOOTH",
"18 50 LINE SMOOTH",
"11 12 OFFCURVE",
"34 -10 OFFCURVE",
"73 -10 CURVE SMOOTH"
);
}
);
width = 980;
},
{
anchors = (
{
name = bottom;
position = "{446, 0}";
},
{
name = top;
position = "{569, 700}";
}
);
layerId = "8ED59CAD-D047-43C0-8308-3370007B39AA";
paths = (
{
closed = 1;
nodes = (
"90 -10 OFFCURVE",
"110 6 OFFCURVE",
"115 33 CURVE SMOOTH",
"193 479 LINE SMOOTH",
"214 593 OFFCURVE",
"271 638 OFFCURVE",
"367 638 CURVE SMOOTH",
"445 638 OFFCURVE",
"506 588 OFFCURVE",
"486 479 CURVE SMOOTH",
"408 33 LINE SMOOTH",
"403 6 OFFCURVE",
"415 -10 OFFCURVE",
"441 -10 CURVE SMOOTH",
"467 -10 OFFCURVE",
"486 6 OFFCURVE",
"491 33 CURVE SMOOTH",
"569 479 LINE SMOOTH",
"589 589 OFFCURVE",
"661 638 OFFCURVE",
"743 638 CURVE SMOOTH",
"839 638 OFFCURVE",
"882 593 OFFCURVE",
"861 479 CURVE SMOOTH",
"783 33 LINE SMOOTH",
"778 6 OFFCURVE",
"791 -10 OFFCURVE",
"817 -10 CURVE SMOOTH",
"843 -10 OFFCURVE",
"863 6 OFFCURVE",
"868 33 CURVE SMOOTH",
"946 479 LINE SMOOTH",
"972 626 OFFCURVE",
"887 710 OFFCURVE",
"753 710 CURVE SMOOTH",
"663 710 OFFCURVE",
"588 661 OFFCURVE",
"543 596 CURVE",
"521 661 OFFCURVE",
"459 710 OFFCURVE",
"373 710 CURVE SMOOTH",
"220 710 OFFCURVE",
"134 626 OFFCURVE",
"108 479 CURVE SMOOTH",
"30 33 LINE SMOOTH",
"25 6 OFFCURVE",
"38 -10 OFFCURVE",
"64 -10 CURVE SMOOTH"
);
}
);
width = 969;
}
);
leftKerningGroup = M;
note = M;
rightKerningGroup = M;
unicode = 004D;
},
{
glyphname = N;
lastChange = "2018-03-10 10:10:30 +0000";
layers = (
{
anchors = (
{
name = bottom;
position = "{320, 0}";
},
{
name = top;
position = "{443, 700}";
}
);
layerId = "0B1DFD06-3317-40CA-B510-4969A0718C16";
paths = (
{
closed = 1;
nodes = (
"81 -10 OFFCURVE",
"92 2 OFFCURVE",
"96 22 CURVE SMOOTH",
"190 557 LINE SMOOTH",
"202 622 OFFCURVE",
"238 659 OFFCURVE",
"304 659 CURVE SMOOTH",
"433 659 OFFCURVE",
"459 500 OFFCURVE",
"541 246 CURVE SMOOTH",
"571 156 LINE",
"547 22 LINE SMOOTH",
"543 2 OFFCURVE",
"549 -10 OFFCURVE",
"567 -10 CURVE SMOOTH",
"585 -10 OFFCURVE",
"596 2 OFFCURVE",
"600 22 CURVE SMOOTH",
"716 678 LINE SMOOTH",
"719 698 OFFCURVE",
"712 710 OFFCURVE",
"694 710 CURVE SMOOTH",
"676 710 OFFCURVE",
"666 698 OFFCURVE",
"663 678 CURVE SMOOTH",
"590 269 LINE",
"574 320 LINE SMOOTH",
"507 535 OFFCURVE",
"459 710 OFFCURVE",
"313 710 CURVE SMOOTH",
"225 710 OFFCURVE",
"156 662 OFFCURVE",
"137 557 CURVE SMOOTH",
"43 22 LINE SMOOTH",
"39 2 OFFCURVE",
"45 -10 OFFCURVE",
"63 -10 CURVE SMOOTH"
);
}
);
width = 723;
},
{
anchors = (
{
name = bottom;
position = "{324, 0}";
},
{
name = top;
position = "{446, 690}";
}
);
layerId = "258BB4CE-589F-454F-8E39-237B943AA0B4";
paths = (
{
closed = 1;
nodes = (
"110 -10 OFFCURVE",
"143 12 OFFCURVE",
"150 50 CURVE SMOOTH",
"232 514 LINE SMOOTH",
"241 567 OFFCURVE",
"268 603 OFFCURVE",
"312 603 CURVE SMOOTH",
"382 603 OFFCURVE",
"401 523 OFFCURVE",
"476 297 CURVE SMOOTH",
"524 153 LINE",
"506 50 LINE SMOOTH",
"499 12 OFFCURVE",
"522 -10 OFFCURVE",
"561 -10 CURVE SMOOTH",
"599 -10 OFFCURVE",
"632 12 OFFCURVE",
"639 50 CURVE SMOOTH",
"745 650 LINE SMOOTH",
"751 688 OFFCURVE",
"726 710 OFFCURVE",
"688 710 CURVE SMOOTH",
"649 710 OFFCURVE",
"618 688 OFFCURVE",
"612 650 CURVE SMOOTH",
"568 400 LINE",
"544 474 LINE SMOOTH",
"494 626 OFFCURVE",
"455 710 OFFCURVE",
"315 710 CURVE SMOOTH",
"192 710 OFFCURVE",
"119 629 OFFCURVE",
"99 514 CURVE SMOOTH",
"17 50 LINE SMOOTH",
"10 12 OFFCURVE",
"33 -10 OFFCURVE",
"72 -10 CURVE SMOOTH"
);
}
);
width = 722;
},
{
anchors = (
{
name = bottom;
position = "{319, 0}";
},
{
name = top;
position = "{442, 696}";
}
);
layerId = "8ED59CAD-D047-43C0-8308-3370007B39AA";
paths = (
{
closed = 1;
nodes = (
"90 -10 OFFCURVE",
"110 6 OFFCURVE",
"115 33 CURVE SMOOTH",
"204 540 LINE SMOOTH",
"215 600 OFFCURVE",
"247 637 OFFCURVE",
"305 637 CURVE SMOOTH",
"410 637 OFFCURVE",
"434 509 OFFCURVE",
"513 266 CURVE SMOOTH",
"549 155 LINE",
"528 33 LINE SMOOTH",
"523 6 OFFCURVE",
"536 -10 OFFCURVE",
"562 -10 CURVE SMOOTH",
"588 -10 OFFCURVE",
"608 6 OFFCURVE",
"613 33 CURVE SMOOTH",
"725 667 LINE SMOOTH",
"729 694 OFFCURVE",
"715 710 OFFCURVE",
"689 710 CURVE SMOOTH",
"663 710 OFFCURVE",
"644 694 OFFCURVE",
"640 667 CURVE SMOOTH",
"579 321 LINE",
"559 382 LINE SMOOTH",
"500 571 OFFCURVE",
"457 710 OFFCURVE",
"309 710 CURVE SMOOTH",
"209 710 OFFCURVE",
"138 649 OFFCURVE",
"119 540 CURVE SMOOTH",
"30 33 LINE SMOOTH",
"25 6 OFFCURVE",
"38 -10 OFFCURVE",
"64 -10 CURVE SMOOTH"
);
}
);
width = 719;
}
);
leftKerningGroup = N;
note = N;
rightKerningGroup = N;
unicode = 004E;
},
{
glyphname = O;
lastChange = "2018-03-10 10:10:30 +0000";
layers = (
{
anchors = (
{
name = bottom;
position = "{362, 0}";
},
{
name = center;
position = "{424, 350}";
},
{
name = ogonek;
position = "{683, 10}";
},
{
name = top;
position = "{485, 700}";
},
{
name = topleft;
position = "{106, 700}";
},
{
name = topright;
position = "{689, 660}";
}
);
layerId = "0B1DFD06-3317-40CA-B510-4969A0718C16";
paths = (
{
closed = 1;
nodes = (
"560 -10 OFFCURVE",
"733 121 OFFCURVE",
"773 350 CURVE SMOOTH",
"812 573 OFFCURVE",
"673 710 OFFCURVE",
"485 710 CURVE SMOOTH",
"287 710 OFFCURVE",
"116 581 OFFCURVE",
"75 350 CURVE SMOOTH",
"35 127 OFFCURVE",
"174 -10 OFFCURVE",
"362 -10 CURVE SMOOTH"
);
},
{
closed = 1;
nodes = (
"205 39 OFFCURVE",
"92 147 OFFCURVE",
"128 350 CURVE SMOOTH",
"164 553 OFFCURVE",
"317 661 OFFCURVE",
"480 661 CURVE SMOOTH",
"643 661 OFFCURVE",
"756 553 OFFCURVE",
"720 350 CURVE SMOOTH",
"684 147 OFFCURVE",
"531 39 OFFCURVE",
"368 39 CURVE SMOOTH"
);
}
);
width = 808;
},
{
anchors = (
{
name = bottom;
position = "{372, 0}";
},
{
name = center;
position = "{449, 350}";
},
{
name = ogonek;
position = "{708, 10}";
},
{
name = top;
position = "{494, 690}";
},
{
name = topleft;
position = "{131, 700}";
},
{
name = topright;
position = "{742, 640}";
}
);
layerId = "258BB4CE-589F-454F-8E39-237B943AA0B4";
paths = (
{
closed = 1;
nodes = (
"638 -10 OFFCURVE",
"771 139 OFFCURVE",
"808 350 CURVE SMOOTH",
"845 561 OFFCURVE",
"717 710 OFFCURVE",
"487 710 CURVE SMOOTH",
"229 710 OFFCURVE",
"97 561 OFFCURVE",
"60 350 CURVE SMOOTH",
"23 139 OFFCURVE",
"155 -10 OFFCURVE",
"380 -10 CURVE SMOOTH"
);
},
{
closed = 1;
nodes = (
"235 95 OFFCURVE",
"166 195 OFFCURVE",
"194 350 CURVE SMOOTH",
"221 505 OFFCURVE",
"326 610 OFFCURVE",
"479 605 CURVE SMOOTH",
"632 600 OFFCURVE",
"701 505 OFFCURVE",
"674 350 CURVE SMOOTH",
"646 195 OFFCURVE",
"543 95 OFFCURVE",
"389 95 CURVE SMOOTH"
);
}
);
width = 828;
},
{
anchors = (
{
name = bottom;
position = "{362, 0}";
},
{
name = center;
position = "{430, 350}";
},
{
name = ogonek;
position = "{689, 10}";
},
{
name = top;
position = "{485, 696}";
},
{
name = topleft;
position = "{112, 700}";
},
{
name = topright;
position = "{684, 652}";
}
);
layerId = "8ED59CAD-D047-43C0-8308-3370007B39AA";
paths = (
{
closed = 1;
nodes = (
"586 -10 OFFCURVE",
"744 132 OFFCURVE",
"783 350 CURVE SMOOTH",
"821 568 OFFCURVE",
"680 710 OFFCURVE",
"482 710 CURVE SMOOTH",
"261 710 OFFCURVE",
"103 568 OFFCURVE",
"65 350 CURVE SMOOTH",
"26 132 OFFCURVE",
"167 -10 OFFCURVE",
"365 -10 CURVE SMOOTH"
);
},
{
closed = 1;
nodes = (
"214 61 OFFCURVE",
"117 166 OFFCURVE",
"150 350 CURVE SMOOTH",
"182 534 OFFCURVE",
"316 641 OFFCURVE",
"475 639 CURVE SMOOTH",
"633 637 OFFCURVE",
"730 534 OFFCURVE",
"698 350 CURVE SMOOTH",
"665 166 OFFCURVE",
"532 61 OFFCURVE",
"373 61 CURVE SMOOTH"
);
}
);
width = 808;
}
);
leftKerningGroup = O;
note = O;
rightKerningGroup = O;
unicode = 004F;
},
{
glyphname = P;
lastChange = "2018-03-10 10:10:30 +0000";
layers = (
{
anchors = (
{
name = bottom;
position = "{308, 0}";
},
{
name = top;
position = "{431, 700}";
}
);
layerId = "0B1DFD06-3317-40CA-B510-4969A0718C16";
paths = (
{
closed = 1;
nodes = (
"81 -10 OFFCURVE",
"92 2 OFFCURVE",
"96 22 CURVE SMOOTH",
"143 291 LINE",
"212 244 OFFCURVE",
"294 227 OFFCURVE",
"363 227 CURVE SMOOTH",
"516 227 OFFCURVE",
"656 310 OFFCURVE",
"683 464 CURVE SMOOTH",
"710 616 OFFCURVE",
"636 700 OFFCURVE",
"449 700 CURVE SMOOTH",
"278 700 LINE SMOOTH",
"191 700 OFFCURVE",
"154 650 OFFCURVE",
"143 590 CURVE SMOOTH",
"43 22 LINE SMOOTH",
"39 2 OFFCURVE",
"45 -10 OFFCURVE",
"63 -10 CURVE SMOOTH"
);
},
{
closed = 1;
nodes = (
"289 277 OFFCURVE",
"218 290 OFFCURVE",
"153 340 CURVE",
"197 593 LINE SMOOTH",
"203 629 OFFCURVE",
"225 653 OFFCURVE",
"264 653 CURVE SMOOTH",
"446 653 LINE SMOOTH",
"589 653 OFFCURVE",
"654 608 OFFCURVE",
"629 464 CURVE SMOOTH",
"604 322 OFFCURVE",
"476 277 OFFCURVE",
"371 277 CURVE SMOOTH"
);
}
);
width = 698;
},
{
anchors = (
{
name = bottom;
position = "{318, 0}";
},
{
name = top;
position = "{441, 700}";
}
);
layerId = "258BB4CE-589F-454F-8E39-237B943AA0B4";
paths = (
{
closed = 1;
nodes = (
"111 -11 OFFCURVE",
"144 11 OFFCURVE",
"151 49 CURVE SMOOTH",
"181 219 LINE",
"234 193 OFFCURVE",
"302 181 OFFCURVE",
"366 181 CURVE SMOOTH",
"571 181 OFFCURVE",
"690 278 OFFCURVE",
"719 441 CURVE SMOOTH",
"748 604 OFFCURVE",
"641 700 OFFCURVE",
"454 700 CURVE SMOOTH",
"276 700 LINE SMOOTH",
"180 700 OFFCURVE",
"123 645 OFFCURVE",
"106 552 CURVE SMOOTH",
"18 49 LINE SMOOTH",
"11 11 OFFCURVE",
"34 -11 OFFCURVE",
"73 -11 CURVE SMOOTH"
);
},
{
closed = 1;
nodes = (
"308 287 OFFCURVE",
"243 304 OFFCURVE",
"201 334 CURVE",
"239 548 LINE SMOOTH",
"244 579 OFFCURVE",
"263 597 OFFCURVE",
"290 597 CURVE SMOOTH",
"441 597 LINE SMOOTH",
"555 597 OFFCURVE",
"602 539 OFFCURVE",
"585 441 CURVE SMOOTH",
"568 344 OFFCURVE",
"491 287 OFFCURVE",
"378 287 CURVE SMOOTH"
);
}
);
width = 723;
},
{
anchors = (
{
name = bottom;
position = "{314, 0}";
},
{
name = top;
position = "{437, 700}";
}
);
layerId = "8ED59CAD-D047-43C0-8308-3370007B39AA";
paths = (
{
closed = 1;
nodes = (
"95 -10 OFFCURVE",
"115 6 OFFCURVE",
"120 33 CURVE SMOOTH",
"160 262 LINE",
"222 224 OFFCURVE",
"297 209 OFFCURVE",
"364 209 CURVE SMOOTH",
"541 209 OFFCURVE",
"671 297 OFFCURVE",
"699 455 CURVE SMOOTH",
"727 611 OFFCURVE",
"636 700 OFFCURVE",
"453 700 CURVE SMOOTH",
"283 700 LINE SMOOTH",
"195 700 OFFCURVE",
"143 648 OFFCURVE",
"130 575 CURVE SMOOTH",
"35 33 LINE SMOOTH",
"30 6 OFFCURVE",
"43 -10 OFFCURVE",
"69 -10 CURVE SMOOTH"
);
},
{
closed = 1;
nodes = (
"307 281 OFFCURVE",
"230 299 OFFCURVE",
"174 341 CURVE",
"215 575 LINE SMOOTH",
"221 609 OFFCURVE",
"245 631 OFFCURVE",
"276 631 CURVE SMOOTH",
"446 631 LINE SMOOTH",
"581 631 OFFCURVE",
"635 580 OFFCURVE",
"613 455 CURVE SMOOTH",
"591 331 OFFCURVE",
"484 281 OFFCURVE",
"376 281 CURVE SMOOTH"
);
}
);
width = 705;
}
);
note = P;
rightKerningGroup = P;
unicode = 0050;
},
{
glyphname = Q;
lastChange = "2018-03-10 10:10:30 +0000";
layers = (
{
anchors = (
{
name = bottom;
position = "{362, 0}";
},
{
name = top;
position = "{485, 700}";
}
);
layerId = "0B1DFD06-3317-40CA-B510-4969A0718C16";
paths = (
{
closed = 1;
nodes = (
"638 -29 OFFCURVE",
"641 -19 OFFCURVE",
"636 -1 CURVE SMOOTH",
"627 30 OFFCURVE",
"619 48 OFFCURVE",
"610 78 CURVE",
"691 140 OFFCURVE",
"752 234 OFFCURVE",
"773 350 CURVE SMOOTH",
"812 573 OFFCURVE",
"669 710 OFFCURVE",
"487 710 CURVE SMOOTH",
"286 710 OFFCURVE",
"114 573 OFFCURVE",
"75 350 CURVE SMOOTH",
"35 127 OFFCURVE",
"186 -10 OFFCURVE",
"360 -10 CURVE SMOOTH",
"441 -10 OFFCURVE",
"507 10 OFFCURVE",
"565 49 CURVE",
"574 24 OFFCURVE",
"586 -9 OFFCURVE",
"593 -29 CURVE SMOOTH",
"597 -41 OFFCURVE",
"611 -43 OFFCURVE",
"625 -36 CURVE SMOOTH"
);
},
{
closed = 1;
nodes = (
"308 39 OFFCURVE",
"252 54 OFFCURVE",
"210 84 CURVE",
"251 138 OFFCURVE",
"316 182 OFFCURVE",
"403 182 CURVE SMOOTH",
"486 182 OFFCURVE",
"524 143 OFFCURVE",
"549 89 CURVE",
"495 57 OFFCURVE",
"434 39 OFFCURVE",
"369 39 CURVE SMOOTH"
);
},
{
closed = 1;
nodes = (
"125 171 OFFCURVE",
"109 246 OFFCURVE",
"128 350 CURVE SMOOTH",
"164 553 OFFCURVE",
"316 661 OFFCURVE",
"479 661 CURVE SMOOTH",
"642 661 OFFCURVE",
"756 553 OFFCURVE",
"720 350 CURVE SMOOTH",
"702 249 OFFCURVE",
"654 171 OFFCURVE",
"592 119 CURVE",
"561 186 OFFCURVE",
"495 231 OFFCURVE",
"410 231 CURVE SMOOTH",
"314 231 OFFCURVE",
"229 179 OFFCURVE",
"176 113 CURVE"
);
}
);
width = 808;
},
{
anchors = (
{
name = bottom;
position = "{362, 0}";
},
{
name = top;
position = "{485, 700}";
}
);
layerId = "258BB4CE-589F-454F-8E39-237B943AA0B4";
paths = (
{
closed = 1;
nodes = (
"681 -14 OFFCURVE",
"689 14 OFFCURVE",
"678 47 CURVE SMOOTH",
"674 61 OFFCURVE",
"667 71 OFFCURVE",
"661 89 CURVE",
"738 152 OFFCURVE",
"789 243 OFFCURVE",
"808 350 CURVE SMOOTH",
"845 561 OFFCURVE",
"708 710 OFFCURVE",
"487 710 CURVE SMOOTH",
"226 710 OFFCURVE",
"97 561 OFFCURVE",
"60 350 CURVE SMOOTH",
"23 139 OFFCURVE",
"160 -10 OFFCURVE",
"376 -10 CURVE SMOOTH",
"445 -10 OFFCURVE",
"503 4 OFFCURVE",
"558 27 CURVE",
"564 11 OFFCURVE",
"570 -2 OFFCURVE",
"574 -14 CURVE SMOOTH",
"582 -40 OFFCURVE",
"616 -48 OFFCURVE",
"644 -33 CURVE SMOOTH"
);
},
{
closed = 1;
nodes = (
"341 95 OFFCURVE",
"302 105 OFFCURVE",
"271 123 CURVE",
"306 159 OFFCURVE",
"355 180 OFFCURVE",
"403 180 CURVE SMOOTH",
"454 180 OFFCURVE",
"495 158 OFFCURVE",
"517 121 CURVE",
"481 103 OFFCURVE",
"435 95 OFFCURVE",
"389 95 CURVE SMOOTH"
);
},
{
closed = 1;
nodes = (
"187 237 OFFCURVE",
"183 289 OFFCURVE",
"194 350 CURVE SMOOTH",
"221 505 OFFCURVE",
"326 610 OFFCURVE",
"479 605 CURVE SMOOTH",
"632 600 OFFCURVE",
"701 505 OFFCURVE",
"674 350 CURVE SMOOTH",
"663 288 OFFCURVE",
"639 235 OFFCURVE",
"606 193 CURVE",
"565 248 OFFCURVE",
"495 281 OFFCURVE",
"419 281 CURVE SMOOTH",
"348 281 OFFCURVE",
"269 249 OFFCURVE",
"205 196 CURVE"
);
}
);
width = 828;
},
{
anchors = (
{
name = bottom;
position = "{358, 0}";
},
{
name = top;
position = "{481, 700}";
}
);
layerId = "8ED59CAD-D047-43C0-8308-3370007B39AA";
paths = (
{
closed = 1;
nodes = (
"651 -23 OFFCURVE",
"656 -6 OFFCURVE",
"649 18 CURVE SMOOTH",
"641 42 OFFCURVE",
"634 57 OFFCURVE",
"626 82 CURVE",
"706 145 OFFCURVE",
"763 238 OFFCURVE",
"783 350 CURVE SMOOTH",
"821 568 OFFCURVE",
"695 710 OFFCURVE",
"479 710 CURVE SMOOTH",
"254 710 OFFCURVE",
"103 568 OFFCURVE",
"65 350 CURVE SMOOTH",
"26 132 OFFCURVE",
"173 -10 OFFCURVE",
"365 -10 CURVE SMOOTH",
"437 -10 OFFCURVE",
"497 8 OFFCURVE",
"558 40 CURVE",
"566 19 OFFCURVE",
"576 -6 OFFCURVE",
"581 -23 CURVE SMOOTH",
"587 -41 OFFCURVE",
"609 -45 OFFCURVE",
"629 -35 CURVE SMOOTH"
);
},
{
closed = 1;
nodes = (
"317 61 OFFCURVE",
"268 75 OFFCURVE",
"231 100 CURVE",
"269 147 OFFCURVE",
"328 181 OFFCURVE",
"399 181 CURVE SMOOTH",
"475 181 OFFCURVE",
"506 148 OFFCURVE",
"530 102 CURVE",
"483 76 OFFCURVE",
"430 61 OFFCURVE",
"373 61 CURVE SMOOTH"
);
},
{
closed = 1;
nodes = (
"149 194 OFFCURVE",
"134 263 OFFCURVE",
"150 350 CURVE SMOOTH",
"182 534 OFFCURVE",
"316 639 OFFCURVE",
"475 639 CURVE SMOOTH",
"641 639 OFFCURVE",
"730 534 OFFCURVE",
"698 350 CURVE SMOOTH",
"683 265 OFFCURVE",
"645 197 OFFCURVE",
"593 149 CURVE",
"559 210 OFFCURVE",
"498 251 OFFCURVE",
"409 251 CURVE SMOOTH",
"323 251 OFFCURVE",
"242 208 OFFCURVE",
"184 147 CURVE"
);
}
);
width = 808;
}
);
leftKerningGroup = O;
note = Q;
rightKerningGroup = O;
unicode = 0051;
},
{
glyphname = R;
lastChange = "2018-03-10 10:10:30 +0000";
layers = (
{
anchors = (
{
name = bottom;
position = "{312, 0}";
},
{
name = top;
position = "{435, 700}";
}
);
layerId = "0B1DFD06-3317-40CA-B510-4969A0718C16";
paths = (
{
closed = 1;
nodes = (
"81 -10 OFFCURVE",
"92 2 OFFCURVE",
"96 22 CURVE SMOOTH",
"197 593 LINE SMOOTH",
"203 629 OFFCURVE",
"229 653 OFFCURVE",
"264 653 CURVE SMOOTH",
"458 653 LINE SMOOTH",
"601 653 OFFCURVE",
"664 604 OFFCURVE",
"643 490 CURVE SMOOTH",
"624 382 OFFCURVE",
"535 351 OFFCURVE",
"443 351 CURVE SMOOTH",
"405 351 OFFCURVE",
"349 360 OFFCURVE",
"311 372 CURVE SMOOTH",
"301 375 OFFCURVE",
"288 376 OFFCURVE",
"275 361 CURVE SMOOTH",
"264 349 OFFCURVE",
"264 333 OFFCURVE",
"279 315 CURVE SMOOTH",
"531 12 LINE",
"541 -6 OFFCURVE",
"553 -9 OFFCURVE",
"569 -1 CURVE SMOOTH",
"583 6 OFFCURVE",
"585 19 OFFCURVE",
"583 32 CURVE SMOOTH",
"345 312 LINE",
"347 315 LINE",
"377 308 OFFCURVE",
"409 304 OFFCURVE",
"439 304 CURVE SMOOTH",
"567 304 OFFCURVE",
"677 370 OFFCURVE",
"697 492 CURVE SMOOTH",
"724 655 OFFCURVE",
"593 700 OFFCURVE",
"461 700 CURVE SMOOTH",
"278 700 LINE SMOOTH",
"189 700 OFFCURVE",
"154 655 OFFCURVE",
"143 590 CURVE SMOOTH",
"43 22 LINE SMOOTH",
"39 2 OFFCURVE",
"45 -10 OFFCURVE",
"63 -10 CURVE SMOOTH"
);
}
);
width = 707;
},
{
anchors = (
{
name = bottom;
position = "{321, 0}";
},
{
name = top;
position = "{443, 690}";
}
);
layerId = "258BB4CE-589F-454F-8E39-237B943AA0B4";
paths = (
{
closed = 1;
nodes = (
"111 -10 OFFCURVE",
"144 12 OFFCURVE",
"151 50 CURVE SMOOTH",
"239 548 LINE SMOOTH",
"244 579 OFFCURVE",
"263 597 OFFCURVE",
"290 597 CURVE SMOOTH",
"496 597 LINE SMOOTH",
"574 597 OFFCURVE",
"610 557 OFFCURVE",
"598 488 CURVE SMOOTH",
"585 415 OFFCURVE",
"545 372 OFFCURVE",
"466 372 CURVE SMOOTH",
"430 372 OFFCURVE",
"390 377 OFFCURVE",
"357 386 CURVE SMOOTH",
"332 393 OFFCURVE",
"303 387 OFFCURVE",
"282 365 CURVE SMOOTH",
"253 334 OFFCURVE",
"253 298 OFFCURVE",
"278 269 CURVE SMOOTH",
"497 16 LINE SMOOTH",
"523 -15 OFFCURVE",
"559 -19 OFFCURVE",
"597 9 CURVE SMOOTH",
"628 32 OFFCURVE",
"629 67 OFFCURVE",
"607 90 CURVE SMOOTH",
"431 277 LINE",
"432 278 LINE",
"449 274 OFFCURVE",
"473 271 OFFCURVE",
"489 271 CURVE SMOOTH",
"624 271 OFFCURVE",
"710 368 OFFCURVE",
"731 490 CURVE SMOOTH",
"752 612 OFFCURVE",
"662 700 OFFCURVE",
"509 700 CURVE SMOOTH",
"275 700 LINE SMOOTH",
"179 700 OFFCURVE",
"122 645 OFFCURVE",
"106 552 CURVE SMOOTH",
"18 50 LINE SMOOTH",
"11 12 OFFCURVE",
"34 -10 OFFCURVE",
"73 -10 CURVE SMOOTH"
);
}
);
width = 726;
},
{
anchors = (
{
name = bottom;
position = "{318, 0}";
},
{
name = top;
position = "{441, 696}";
}
);
layerId = "8ED59CAD-D047-43C0-8308-3370007B39AA";
paths = (
{
closed = 1;
nodes = (
"95 -10 OFFCURVE",
"115 6 OFFCURVE",
"120 33 CURVE SMOOTH",
"215 575 LINE SMOOTH",
"221 609 OFFCURVE",
"245 631 OFFCURVE",
"276 631 CURVE SMOOTH",
"475 631 LINE SMOOTH",
"598 631 OFFCURVE",
"644 585 OFFCURVE",
"627 489 CURVE SMOOTH",
"611 395 OFFCURVE",
"540 359 OFFCURVE",
"454 359 CURVE SMOOTH",
"416 359 OFFCURVE",
"368 367 OFFCURVE",
"332 378 CURVE SMOOTH",
"315 382 OFFCURVE",
"296 380 OFFCURVE",
"280 363 CURVE SMOOTH",
"261 343 OFFCURVE",
"261 319 OFFCURVE",
"280 297 CURVE SMOOTH",
"519 14 LINE",
"536 -9 OFFCURVE",
"558 -13 OFFCURVE",
"582 3 CURVE SMOOTH",
"603 16 OFFCURVE",
"605 38 OFFCURVE",
"595 55 CURVE SMOOTH",
"382 298 LINE",
"383 300 LINE",
"408 294 OFFCURVE",
"436 291 OFFCURVE",
"460 291 CURVE SMOOTH",
"584 291 OFFCURVE",
"691 369 OFFCURVE",
"713 491 CURVE SMOOTH",
"739 643 OFFCURVE",
"611 700 OFFCURVE",
"482 700 CURVE SMOOTH",
"283 700 LINE SMOOTH",
"195 700 OFFCURVE",
"143 648 OFFCURVE",
"130 575 CURVE SMOOTH",
"35 33 LINE SMOOTH",
"30 6 OFFCURVE",
"43 -10 OFFCURVE",
"69 -10 CURVE SMOOTH"
);
}
);
width = 713;
}
);
leftKerningGroup = R;
note = R;
rightKerningGroup = R;
unicode = 0052;
},
{
glyphname = S;
lastChange = "2018-03-10 10:10:30 +0000";
layers = (
{
anchors = (
{
name = bottom;
position = "{289, 0}";
},
{
name = top;
position = "{412, 700}";
}
);
layerId = "0B1DFD06-3317-40CA-B510-4969A0718C16";
paths = (
{
closed = 1;
nodes = (
"462 -10 OFFCURVE",
"572 50 OFFCURVE",
"596 179 CURVE SMOOTH",
"620 309 OFFCURVE",
"489 353 OFFCURVE",
"362 384 CURVE SMOOTH",
"258 409 OFFCURVE",
"158 434 OFFCURVE",
"176 533 CURVE SMOOTH",
"191 622 OFFCURVE",
"265 660 OFFCURVE",
"397 660 CURVE SMOOTH",
"515 660 OFFCURVE",
"575 625 OFFCURVE",
"598 569 CURVE SMOOTH",
"605 556 OFFCURVE",
"621 551 OFFCURVE",
"635 557 CURVE SMOOTH",
"650 565 OFFCURVE",
"658 578 OFFCURVE",
"651 591 CURVE SMOOTH",
"610 665 OFFCURVE",
"524 710 OFFCURVE",
"406 710 CURVE SMOOTH",
"226 710 OFFCURVE",
"139 636 OFFCURVE",
"122 533 CURVE SMOOTH",
"101 408 OFFCURVE",
"211 362 OFFCURVE",
"352 330 CURVE SMOOTH",
"459 306 OFFCURVE",
"559 277 OFFCURVE",
"542 179 CURVE SMOOTH",
"526 88 OFFCURVE",
"443 40 OFFCURVE",
"314 40 CURVE SMOOTH",
"215 40 OFFCURVE",
"129 68 OFFCURVE",
"86 135 CURVE SMOOTH",
"79 146 OFFCURVE",
"67 156 OFFCURVE",
"51 147 CURVE SMOOTH",
"38 139 OFFCURVE",
"31 124 OFFCURVE",
"38 111 CURVE SMOOTH",
"76 35 OFFCURVE",
"184 -10 OFFCURVE",
"305 -10 CURVE SMOOTH"
);
}
);
width = 661;
},
{
anchors = (
{
name = bottom;
position = "{344, 0}";
},
{
name = top;
position = "{436, 690}";
}
);
layerId = "258BB4CE-589F-454F-8E39-237B943AA0B4";
paths = (
{
closed = 1;
nodes = (
"529 -10 OFFCURVE",
"633 70 OFFCURVE",
"653 181 CURVE SMOOTH",
"673 295 OFFCURVE",
"610 364 OFFCURVE",
"402 415 CURVE SMOOTH",
"284 444 OFFCURVE",
"240 472 OFFCURVE",
"249 524 CURVE SMOOTH",
"258 575 OFFCURVE",
"320 605 OFFCURVE",
"414 605 CURVE SMOOTH",
"498 605 OFFCURVE",
"553 577 OFFCURVE",
"583 530 CURVE SMOOTH",
"599 506 OFFCURVE",
"634 497 OFFCURVE",
"662 515 CURVE SMOOTH",
"693 535 OFFCURVE",
"702 564 OFFCURVE",
"688 594 CURVE SMOOTH",
"651 667 OFFCURVE",
"551 710 OFFCURVE",
"427 710 CURVE SMOOTH",
"240 710 OFFCURVE",
"134 627 OFFCURVE",
"115 524 CURVE SMOOTH",
"96 415 OFFCURVE",
"162 344 OFFCURVE",
"364 298 CURVE SMOOTH",
"490 269 OFFCURVE",
"529 237 OFFCURVE",
"519 181 CURVE SMOOTH",
"509 127 OFFCURVE",
"452 95 OFFCURVE",
"364 95 CURVE SMOOTH",
"258 95 OFFCURVE",
"186 130 OFFCURVE",
"135 185 CURVE SMOOTH",
"107 214 OFFCURVE",
"81 215 OFFCURVE",
"53 192 CURVE SMOOTH",
"26 170 OFFCURVE",
"15 139 OFFCURVE",
"34 116 CURVE SMOOTH",
"103 37 OFFCURVE",
"216 -10 OFFCURVE",
"350 -10 CURVE SMOOTH"
);
}
);
width = 703;
},
{
anchors = (
{
name = bottom;
position = "{307, 0}";
},
{
name = top;
position = "{418, 696}";
}
);
layerId = "8ED59CAD-D047-43C0-8308-3370007B39AA";
paths = (
{
closed = 1;
nodes = (
"481 -10 OFFCURVE",
"592 58 OFFCURVE",
"614 180 CURVE SMOOTH",
"636 308 OFFCURVE",
"526 359 OFFCURVE",
"374 396 CURVE SMOOTH",
"265 423 OFFCURVE",
"187 449 OFFCURVE",
"201 529 CURVE SMOOTH",
"214 603 OFFCURVE",
"282 638 OFFCURVE",
"399 638 CURVE SMOOTH",
"495 638 OFFCURVE",
"562 606 OFFCURVE",
"588 553 CURVE",
"599 536 OFFCURVE",
"621 529 OFFCURVE",
"641 540 CURVE",
"663 553 OFFCURVE",
"670 572 OFFCURVE",
"661 592 CURVE SMOOTH",
"630 666 OFFCURVE",
"532 710 OFFCURVE",
"412 710 CURVE SMOOTH",
"232 710 OFFCURVE",
"133 632 OFFCURVE",
"115 529 CURVE SMOOTH",
"94 406 OFFCURVE",
"193 354 OFFCURVE",
"352 317 CURVE SMOOTH",
"465 291 OFFCURVE",
"542 261 OFFCURVE",
"528 180 CURVE SMOOTH",
"514 104 OFFCURVE",
"442 62 OFFCURVE",
"330 62 CURVE SMOOTH",
"232 62 OFFCURVE",
"147 93 OFFCURVE",
"101 155 CURVE SMOOTH",
"86 173 OFFCURVE",
"68 180 OFFCURVE",
"47 165 CURVE SMOOTH",
"29 151 OFFCURVE",
"20 130 OFFCURVE",
"32 113 CURVE SMOOTH",
"82 36 OFFCURVE",
"190 -10 OFFCURVE",
"317 -10 CURVE SMOOTH"
);
}
);
width = 669;
}
);
leftKerningGroup = S;
note = S;
rightKerningGroup = S;
unicode = 0053;
},
{
glyphname = T;
lastChange = "2018-03-10 10:10:30 +0000";
layers = (
{
anchors = (
{
name = bottom;
position = "{303, 0}";
},
{
name = center;
position = "{365, 350}";
},
{
name = top;
position = "{426, 700}";
}
);
layerId = "0B1DFD06-3317-40CA-B510-4969A0718C16";
paths = (
{
closed = 1;
nodes = (
"319 -10 OFFCURVE",
"330 2 OFFCURVE",
"334 22 CURVE SMOOTH",
"445 653 LINE",
"688 653 LINE SMOOTH",
"708 653 OFFCURVE",
"720 661 OFFCURVE",
"722 676 CURVE SMOOTH",
"724 694 OFFCURVE",
"715 700 OFFCURVE",
"696 700 CURVE SMOOTH",
"157 700 LINE SMOOTH",
"138 700 OFFCURVE",
"125 694 OFFCURVE",
"123 676 CURVE SMOOTH",
"121 661 OFFCURVE",
"129 653 OFFCURVE",
"149 653 CURVE SMOOTH",
"392 653 LINE",
"281 22 LINE SMOOTH",
"277 2 OFFCURVE",
"283 -10 OFFCURVE",
"301 -10 CURVE SMOOTH"
);
}
);
width = 689;
},
{
anchors = (
{
name = bottom;
position = "{300, 0}";
},
{
name = center;
position = "{362, 350}";
},
{
name = top;
position = "{422, 690}";
}
);
layerId = "258BB4CE-589F-454F-8E39-237B943AA0B4";
paths = (
{
closed = 1;
nodes = (
"336 -10 OFFCURVE",
"369 12 OFFCURVE",
"376 50 CURVE SMOOTH",
"472 597 LINE",
"665 597 LINE SMOOTH",
"701 597 OFFCURVE",
"730 614 OFFCURVE",
"736 648 CURVE SMOOTH",
"742 683 OFFCURVE",
"721 700 OFFCURVE",
"683 700 CURVE SMOOTH",
"164 700 LINE SMOOTH",
"126 700 OFFCURVE",
"99 683 OFFCURVE",
"93 648 CURVE SMOOTH",
"87 614 OFFCURVE",
"110 597 OFFCURVE",
"146 597 CURVE SMOOTH",
"339 597 LINE",
"243 50 LINE SMOOTH",
"236 12 OFFCURVE",
"259 -10 OFFCURVE",
"298 -10 CURVE SMOOTH"
);
}
);
width = 683;
},
{
anchors = (
{
name = bottom;
position = "{303, 0}";
},
{
name = center;
position = "{365, 350}";
},
{
name = top;
position = "{426, 696}";
}
);
layerId = "8ED59CAD-D047-43C0-8308-3370007B39AA";
paths = (
{
closed = 1;
nodes = (
"326 -10 OFFCURVE",
"346 6 OFFCURVE",
"351 33 CURVE SMOOTH",
"456 631 LINE",
"679 631 LINE SMOOTH",
"705 631 OFFCURVE",
"724 642 OFFCURVE",
"728 665 CURVE SMOOTH",
"733 690 OFFCURVE",
"717 700 OFFCURVE",
"691 700 CURVE SMOOTH",
"160 700 LINE SMOOTH",
"133 700 OFFCURVE",
"116 690 OFFCURVE",
"111 665 CURVE SMOOTH",
"107 642 OFFCURVE",
"121 631 OFFCURVE",
"148 631 CURVE SMOOTH",
"371 631 LINE",
"266 33 LINE SMOOTH",
"261 6 OFFCURVE",
"273 -10 OFFCURVE",
"300 -10 CURVE SMOOTH"
);
}
);
width = 687;
}
);
leftKerningGroup = T;
note = T;
rightKerningGroup = T;
unicode = 0054;
},
{
glyphname = U;
lastChange = "2018-03-10 10:10:30 +0000";
layers = (
{
anchors = (
{
name = bottom;
position = "{325, 0}";
},
{
name = ogonek;
position = "{356, 10}";
},
{
name = top;
position = "{448, 700}";
},
{
name = topright;
position = "{711, 666}";
}
);
layerId = "0B1DFD06-3317-40CA-B510-4969A0718C16";
paths = (
{
closed = 1;
nodes = (
"508 -10 OFFCURVE",
"625 85 OFFCURVE",
"659 275 CURVE SMOOTH",
"731 678 LINE SMOOTH",
"734 698 OFFCURVE",
"728 710 OFFCURVE",
"710 710 CURVE SMOOTH",
"692 710 OFFCURVE",
"681 698 OFFCURVE",
"678 678 CURVE SMOOTH",
"606 272 LINE SMOOTH",
"577 111 OFFCURVE",
"481 39 OFFCURVE",
"332 39 CURVE SMOOTH",
"175 39 OFFCURVE",
"112 114 OFFCURVE",
"140 272 CURVE SMOOTH",
"212 678 LINE SMOOTH",
"215 698 OFFCURVE",
"208 710 OFFCURVE",
"190 710 CURVE SMOOTH",
"172 710 OFFCURVE",
"162 698 OFFCURVE",
"159 678 CURVE SMOOTH",
"87 275 LINE SMOOTH",
"54 89 OFFCURVE",
"158 -10 OFFCURVE",
"323 -10 CURVE SMOOTH"
);
}
);
width = 733;
},
{
anchors = (
{
name = bottom;
position = "{319, 0}";
},
{
name = ogonek;
position = "{352, 10}";
},
{
name = top;
position = "{442, 700}";
},
{
name = topright;
position = "{717, 640}";
}
);
layerId = "258BB4CE-589F-454F-8E39-237B943AA0B4";
paths = (
{
closed = 1;
nodes = (
"530 -10 OFFCURVE",
"654 113 OFFCURVE",
"687 303 CURVE SMOOTH",
"749 650 LINE SMOOTH",
"755 688 OFFCURVE",
"732 710 OFFCURVE",
"693 710 CURVE SMOOTH",
"655 710 OFFCURVE",
"622 688 OFFCURVE",
"616 650 CURVE SMOOTH",
"554 300 LINE SMOOTH",
"530 162 OFFCURVE",
"464 95 OFFCURVE",
"336 95 CURVE SMOOTH",
"210 95 OFFCURVE",
"166 166 OFFCURVE",
"190 300 CURVE SMOOTH",
"252 650 LINE SMOOTH",
"258 688 OFFCURVE",
"233 710 OFFCURVE",
"195 710 CURVE SMOOTH",
"156 710 OFFCURVE",
"125 688 OFFCURVE",
"119 650 CURVE SMOOTH",
"57 303 LINE SMOOTH",
"23 108 OFFCURVE",
"147 -10 OFFCURVE",
"322 -10 CURVE SMOOTH"
);
}
);
width = 721;
},
{
anchors = (
{
name = bottom;
position = "{322, 0}";
},
{
name = ogonek;
position = "{353, 10}";
},
{
name = top;
position = "{445, 700}";
},
{
name = topright;
position = "{713, 656}";
}
);
layerId = "8ED59CAD-D047-43C0-8308-3370007B39AA";
paths = (
{
closed = 1;
nodes = (
"503 -10 OFFCURVE",
"634 93 OFFCURVE",
"669 286 CURVE SMOOTH",
"737 667 LINE SMOOTH",
"741 694 OFFCURVE",
"729 710 OFFCURVE",
"702 710 CURVE SMOOTH",
"676 710 OFFCURVE",
"656 694 OFFCURVE",
"652 667 CURVE SMOOTH",
"584 283 LINE SMOOTH",
"559 139 OFFCURVE",
"470 61 OFFCURVE",
"333 61 CURVE SMOOTH",
"191 61 OFFCURVE",
"133 136 OFFCURVE",
"159 283 CURVE SMOOTH",
"227 667 LINE SMOOTH",
"231 694 OFFCURVE",
"217 710 OFFCURVE",
"191 710 CURVE SMOOTH",
"165 710 OFFCURVE",
"146 694 OFFCURVE",
"142 667 CURVE SMOOTH",
"74 286 LINE SMOOTH",
"40 96 OFFCURVE",
"154 -10 OFFCURVE",
"327 -10 CURVE SMOOTH"
);
}
);
width = 726;
}
);
leftKerningGroup = U;
note = U;
rightKerningGroup = U;
unicode = 0055;
},
{
glyphname = V;
lastChange = "2018-03-10 10:10:30 +0000";
layers = (
{
anchors = (
{
name = bottom;
position = "{312, 0}";
},
{
name = top;
position = "{435, 700}";
}
);
layerId = "0B1DFD06-3317-40CA-B510-4969A0718C16";
paths = (
{
closed = 1;
nodes = (
"401 -10 OFFCURVE",
"454 33 OFFCURVE",
"520 188 CURVE SMOOTH",
"728 675 LINE SMOOTH",
"737 696 OFFCURVE",
"735 710 OFFCURVE",
"713 710 CURVE SMOOTH",
"691 710 OFFCURVE",
"686 701 OFFCURVE",
"677 680 CURVE SMOOTH",
"470 194 LINE SMOOTH",
"422 80 OFFCURVE",
"384 38 OFFCURVE",
"317 38 CURVE SMOOTH",
"250 38 OFFCURVE",
"230 80 OFFCURVE",
"222 194 CURVE SMOOTH",
"187 680 LINE SMOOTH",
"186 701 OFFCURVE",
"183 710 OFFCURVE",
"161 710 CURVE SMOOTH",
"139 710 OFFCURVE",
"133 696 OFFCURVE",
"134 675 CURVE SMOOTH",
"170 188 LINE SMOOTH",
"181 33 OFFCURVE",
"237 -10 OFFCURVE",
"310 -10 CURVE SMOOTH"
);
}
);
width = 707;
},
{
anchors = (
{
name = bottom;
position = "{338, 0}";
},
{
name = top;
position = "{461, 700}";
}
);
layerId = "258BB4CE-589F-454F-8E39-237B943AA0B4";
paths = (
{
closed = 1;
nodes = (
"468 -10 OFFCURVE",
"521 68 OFFCURVE",
"582 199 CURVE SMOOTH",
"787 641 LINE SMOOTH",
"807 684 OFFCURVE",
"794 710 OFFCURVE",
"741 710 CURVE SMOOTH",
"696 710 OFFCURVE",
"675 691 OFFCURVE",
"660 659 CURVE SMOOTH",
"455 209 LINE SMOOTH",
"419 130 OFFCURVE",
"397 94 OFFCURVE",
"355 94 CURVE SMOOTH",
"313 94 OFFCURVE",
"303 130 OFFCURVE",
"295 209 CURVE SMOOTH",
"248 659 LINE SMOOTH",
"245 691 OFFCURVE",
"230 710 OFFCURVE",
"185 710 CURVE SMOOTH",
"132 710 OFFCURVE",
"111 684 OFFCURVE",
"115 641 CURVE SMOOTH",
"164 199 LINE SMOOTH",
"179 68 OFFCURVE",
"241 -10 OFFCURVE",
"342 -10 CURVE SMOOTH"
);
}
);
width = 759;
},
{
anchors = (
{
name = bottom;
position = "{318, 0}";
},
{
name = top;
position = "{441, 700}";
}
);
layerId = "8ED59CAD-D047-43C0-8308-3370007B39AA";
paths = (
{
closed = 1;
nodes = (
"418 -10 OFFCURVE",
"476 47 OFFCURVE",
"541 192 CURVE SMOOTH",
"748 661 LINE SMOOTH",
"761 691 OFFCURVE",
"755 710 OFFCURVE",
"720 710 CURVE SMOOTH",
"689 710 OFFCURVE",
"677 697 OFFCURVE",
"666 672 CURVE SMOOTH",
"460 200 LINE SMOOTH",
"417 100 OFFCURVE",
"386 60 OFFCURVE",
"329 60 CURVE SMOOTH",
"272 60 OFFCURVE",
"256 100 OFFCURVE",
"247 200 CURVE SMOOTH",
"207 672 LINE SMOOTH",
"205 697 OFFCURVE",
"198 710 OFFCURVE",
"167 710 CURVE SMOOTH",
"132 710 OFFCURVE",
"120 691 OFFCURVE",
"123 661 CURVE SMOOTH",
"164 192 LINE SMOOTH",
"176 47 OFFCURVE",
"227 -10 OFFCURVE",
"321 -10 CURVE SMOOTH"
);
}
);
width = 720;
}
);
note = V;
unicode = 0056;
},
{
glyphname = W;
lastChange = "2018-03-10 10:10:30 +0000";
layers = (
{
anchors = (
{
name = bottom;
position = "{425, 0}";
},
{
name = top;
position = "{548, 700}";
}
);
layerId = "0B1DFD06-3317-40CA-B510-4969A0718C16";
paths = (
{
closed = 1;
nodes = (
"258 -10 OFFCURVE",
"301 7 OFFCURVE",
"331 94 CURVE SMOOTH",
"510 622 LINE SMOOTH",
"520 650 OFFCURVE",
"529 662 OFFCURVE",
"544 662 CURVE SMOOTH",
"559 662 OFFCURVE",
"564 650 OFFCURVE",
"564 622 CURVE SMOOTH",
"557 94 LINE SMOOTH",
"556 18 OFFCURVE",
"588 -10 OFFCURVE",
"626 -10 CURVE SMOOTH",
"664 -10 OFFCURVE",
"707 7 OFFCURVE",
"740 94 CURVE SMOOTH",
"954 675 LINE SMOOTH",
"962 696 OFFCURVE",
"961 710 OFFCURVE",
"939 710 CURVE SMOOTH",
"917 710 OFFCURVE",
"911 701 OFFCURVE",
"903 680 CURVE SMOOTH",
"689 95 LINE SMOOTH",
"675 56 OFFCURVE",
"662 38 OFFCURVE",
"635 38 CURVE SMOOTH",
"608 38 OFFCURVE",
"600 56 OFFCURVE",
"601 95 CURVE SMOOTH",
"609 623 LINE SMOOTH",
"610 684 OFFCURVE",
"589 710 OFFCURVE",
"550 710 CURVE SMOOTH",
"511 710 OFFCURVE",
"482 684 OFFCURVE",
"461 623 CURVE SMOOTH",
"283 95 LINE SMOOTH",
"270 56 OFFCURVE",
"256 38 OFFCURVE",
"229 38 CURVE SMOOTH",
"202 38 OFFCURVE",
"195 56 OFFCURVE",
"195 95 CURVE SMOOTH",
"187 680 LINE SMOOTH",
"187 701 OFFCURVE",
"183 710 OFFCURVE",
"161 710 CURVE SMOOTH",
"139 710 OFFCURVE",
"134 696 OFFCURVE",
"134 675 CURVE SMOOTH",
"144 94 LINE SMOOTH",
"145 17 OFFCURVE",
"182 -10 OFFCURVE",
"220 -10 CURVE SMOOTH"
);
}
);
width = 933;
},
{
anchors = (
{
name = bottom;
position = "{437, 0}";
},
{
name = top;
position = "{559, 690}";
}
);
layerId = "258BB4CE-589F-454F-8E39-237B943AA0B4";
paths = (
{
closed = 1;
nodes = (
"319 -10 OFFCURVE",
"365 39 OFFCURVE",
"393 130 CURVE SMOOTH",
"531 578 LINE SMOOTH",
"535 592 OFFCURVE",
"540 605 OFFCURVE",
"550 605 CURVE SMOOTH",
"560 605 OFFCURVE",
"560 592 OFFCURVE",
"559 578 CURVE SMOOTH",
"539 130 LINE SMOOTH",
"535 39 OFFCURVE",
"563 -10 OFFCURVE",
"642 -10 CURVE SMOOTH",
"722 -10 OFFCURVE",
"765 41 OFFCURVE",
"799 133 CURVE SMOOTH",
"988 642 LINE SMOOTH",
"1004 686 OFFCURVE",
"985 710 OFFCURVE",
"940 710 CURVE SMOOTH",
"901 710 OFFCURVE",
"874 694 OFFCURVE",
"861 657 CURVE SMOOTH",
"672 122 LINE SMOOTH",
"667 108 OFFCURVE",
"662 95 OFFCURVE",
"652 95 CURVE SMOOTH",
"643 95 OFFCURVE",
"640 105 OFFCURVE",
"641 121 CURVE SMOOTH",
"663 600 LINE SMOOTH",
"666 671 OFFCURVE",
"627 710 OFFCURVE",
"563 710 CURVE SMOOTH",
"490 710 OFFCURVE",
"447 671 OFFCURVE",
"425 600 CURVE SMOOTH",
"277 121 LINE SMOOTH",
"272 105 OFFCURVE",
"267 95 OFFCURVE",
"258 95 CURVE SMOOTH",
"248 95 OFFCURVE",
"248 108 OFFCURVE",
"248 122 CURVE SMOOTH",
"247 657 LINE SMOOTH",
"247 694 OFFCURVE",
"225 710 OFFCURVE",
"186 710 CURVE SMOOTH",
"141 710 OFFCURVE",
"113 686 OFFCURVE",
"114 642 CURVE SMOOTH",
"123 133 LINE SMOOTH",
"125 41 OFFCURVE",
"160 -10 OFFCURVE",
"240 -10 CURVE SMOOTH"
);
}
);
width = 958;
},
{
anchors = (
{
name = bottom;
position = "{426, 0}";
},
{
name = top;
position = "{549, 696}";
}
);
layerId = "8ED59CAD-D047-43C0-8308-3370007B39AA";
paths = (
{
closed = 1;
nodes = (
"279 -10 OFFCURVE",
"322 20 OFFCURVE",
"351 108 CURVE SMOOTH",
"514 604 LINE SMOOTH",
"522 627 OFFCURVE",
"529 639 OFFCURVE",
"542 639 CURVE SMOOTH",
"555 639 OFFCURVE",
"559 627 OFFCURVE",
"558 604 CURVE SMOOTH",
"545 108 LINE SMOOTH",
"543 20 OFFCURVE",
"575 -10 OFFCURVE",
"629 -10 CURVE SMOOTH",
"684 -10 OFFCURVE",
"726 21 OFFCURVE",
"759 110 CURVE SMOOTH",
"964 662 LINE SMOOTH",
"975 692 OFFCURVE",
"966 710 OFFCURVE",
"935 710 CURVE SMOOTH",
"906 710 OFFCURVE",
"892 698 OFFCURVE",
"881 671 CURVE SMOOTH",
"678 106 LINE SMOOTH",
"667 77 OFFCURVE",
"658 61 OFFCURVE",
"637 61 CURVE SMOOTH",
"618 61 OFFCURVE",
"611 76 OFFCURVE",
"613 105 CURVE SMOOTH",
"626 614 LINE SMOOTH",
"628 679 OFFCURVE",
"600 710 OFFCURVE",
"551 710 CURVE SMOOTH",
"499 710 OFFCURVE",
"463 679 OFFCURVE",
"442 614 CURVE SMOOTH",
"277 105 LINE SMOOTH",
"266 76 OFFCURVE",
"256 61 OFFCURVE",
"236 61 CURVE SMOOTH",
"216 61 OFFCURVE",
"212 77 OFFCURVE",
"212 106 CURVE SMOOTH",
"206 671 LINE SMOOTH",
"206 698 OFFCURVE",
"195 710 OFFCURVE",
"167 710 CURVE SMOOTH",
"135 710 OFFCURVE",
"121 692 OFFCURVE",
"122 662 CURVE SMOOTH",
"131 110 LINE SMOOTH",
"133 21 OFFCURVE",
"170 -10 OFFCURVE",
"225 -10 CURVE SMOOTH"
);
}
);
width = 935;
}
);
leftKerningGroup = W;
note = W;
rightKerningGroup = W;
unicode = 0057;
},
{
glyphname = X;
lastChange = "2018-03-10 10:10:30 +0000";
layers = (
{
anchors = (
{
name = bottom;
position = "{304, 0}";
},
{
name = top;
position = "{427, 700}";
}
);
layerId = "0B1DFD06-3317-40CA-B510-4969A0718C16";
paths = (
{
closed = 1;
nodes = (
"40 -12 OFFCURVE",
"55 -6 OFFCURVE",
"64 9 CURVE SMOOTH",
"215 234 LINE SMOOTH",
"271 313 OFFCURVE",
"316 333 OFFCURVE",
"364 333 CURVE SMOOTH",
"410 333 OFFCURVE",
"451 307 OFFCURVE",
"475 234 CURVE SMOOTH",
"549 9 LINE SMOOTH",
"554 -6 OFFCURVE",
"568 -13 OFFCURVE",
"585 -5 CURVE SMOOTH",
"598 2 OFFCURVE",
"603 18 OFFCURVE",
"598 33 CURVE SMOOTH",
"524 260 LINE SMOOTH",
"510 302 OFFCURVE",
"482 331 OFFCURVE",
"443 351 CURVE",
"482 369 OFFCURVE",
"520 399 OFFCURVE",
"558 454 CURVE SMOOTH",
"708 660 LINE SMOOTH",
"718 674 OFFCURVE",
"716 692 OFFCURVE",
"704 699 CURVE SMOOTH",
"691 705 OFFCURVE",
"675 699 OFFCURVE",
"668 686 CURVE SMOOTH",
"518 476 LINE SMOOTH",
"459 393 OFFCURVE",
"419 385 OFFCURVE",
"373 385 CURVE SMOOTH",
"325 385 OFFCURVE",
"288 393 OFFCURVE",
"258 476 CURVE SMOOTH",
"183 686 LINE SMOOTH",
"179 699 OFFCURVE",
"166 705 OFFCURVE",
"151 699 CURVE SMOOTH",
"137 692 OFFCURVE",
"128 674 OFFCURVE",
"133 660 CURVE SMOOTH",
"210 456 LINE SMOOTH",
"227 412 OFFCURVE",
"253 381 OFFCURVE",
"290 360 CURVE",
"239 334 OFFCURVE",
"217 309 OFFCURVE",
"180 263 CURVE SMOOTH",
"23 33 LINE SMOOTH",
"15 20 OFFCURVE",
"18 3 OFFCURVE",
"27 -4 CURVE"
);
}
);
width = 693;
},
{
anchors = (
{
name = bottom;
position = "{318, 0}";
},
{
name = top;
position = "{441, 700}";
}
);
layerId = "258BB4CE-589F-454F-8E39-237B943AA0B4";
paths = (
{
closed = 1;
nodes = (
"70 -20 OFFCURVE",
"111 -14 OFFCURVE",
"132 17 CURVE SMOOTH",
"271 221 LINE SMOOTH",
"307 274 OFFCURVE",
"340 305 OFFCURVE",
"382 305 CURVE SMOOTH",
"421 305 OFFCURVE",
"443 280 OFFCURVE",
"462 222 CURVE SMOOTH",
"530 17 LINE SMOOTH",
"540 -14 OFFCURVE",
"570 -20 OFFCURVE",
"606 -4 CURVE SMOOTH",
"641 12 OFFCURVE",
"655 42 OFFCURVE",
"646 68 CURVE SMOOTH",
"576 272 LINE SMOOTH",
"563 310 OFFCURVE",
"543 342 OFFCURVE",
"503 359 CURVE",
"557 383 OFFCURVE",
"584 410 OFFCURVE",
"608 442 CURVE SMOOTH",
"743 622 LINE SMOOTH",
"765 652 OFFCURVE",
"755 679 OFFCURVE",
"727 698 CURVE SMOOTH",
"698 718 OFFCURVE",
"657 714 OFFCURVE",
"632 680 CURVE SMOOTH",
"494 489 LINE SMOOTH",
"460 441 OFFCURVE",
"429 413 OFFCURVE",
"385 413 CURVE SMOOTH",
"341 413 OFFCURVE",
"320 441 OFFCURVE",
"302 489 CURVE SMOOTH",
"232 680 LINE SMOOTH",
"219 714 OFFCURVE",
"188 719 OFFCURVE",
"151 698 CURVE SMOOTH",
"117 679 OFFCURVE",
"105 652 OFFCURVE",
"117 622 CURVE SMOOTH",
"188 442 LINE SMOOTH",
"201 410 OFFCURVE",
"219 383 OFFCURVE",
"263 359 CURVE",
"217 342 OFFCURVE",
"187 310 OFFCURVE",
"160 272 CURVE SMOOTH",
"18 68 LINE SMOOTH",
"0 42 OFFCURVE",
"12 14 OFFCURVE",
"40 -4 CURVE"
);
}
);
width = 722;
},
{
anchors = (
{
name = bottom;
position = "{306, 0}";
},
{
name = top;
position = "{429, 700}";
}
);
layerId = "8ED59CAD-D047-43C0-8308-3370007B39AA";
paths = (
{
closed = 1;
nodes = (
"49 -15 OFFCURVE",
"74 -8 OFFCURVE",
"88 12 CURVE SMOOTH",
"235 229 LINE SMOOTH",
"282 298 OFFCURVE",
"323 322 OFFCURVE",
"369 322 CURVE SMOOTH",
"412 322 OFFCURVE",
"444 300 OFFCURVE",
"467 229 CURVE SMOOTH",
"538 12 LINE SMOOTH",
"545 -8 OFFCURVE",
"565 -14 OFFCURVE",
"587 -4 CURVE SMOOTH",
"609 6 OFFCURVE",
"619 29 OFFCURVE",
"613 47 CURVE SMOOTH",
"542 265 LINE SMOOTH",
"526 313 OFFCURVE",
"500 341 OFFCURVE",
"468 358 CURVE",
"509 379 OFFCURVE",
"543 408 OFFCURVE",
"574 449 CURVE SMOOTH",
"719 645 LINE SMOOTH",
"734 665 OFFCURVE",
"728 689 OFFCURVE",
"709 699 CURVE SMOOTH",
"688 710 OFFCURVE",
"664 704 OFFCURVE",
"650 684 CURVE SMOOTH",
"504 481 LINE SMOOTH",
"455 413 OFFCURVE",
"419 396 OFFCURVE",
"374 396 CURVE SMOOTH",
"327 396 OFFCURVE",
"297 412 OFFCURVE",
"272 481 CURVE SMOOTH",
"199 684 LINE SMOOTH",
"191 705 OFFCURVE",
"171 710 OFFCURVE",
"147 699 CURVE SMOOTH",
"124 689 OFFCURVE",
"116 666 OFFCURVE",
"124 645 CURVE SMOOTH",
"198 450 LINE SMOOTH",
"214 408 OFFCURVE",
"239 379 OFFCURVE",
"272 358 CURVE",
"223 335 OFFCURVE",
"199 310 OFFCURVE",
"169 267 CURVE SMOOTH",
"17 47 LINE SMOOTH",
"5 29 OFFCURVE",
"12 7 OFFCURVE",
"29 -4 CURVE"
);
}
);
width = 696;
}
);
note = X;
unicode = 0058;
},
{
glyphname = Y;
lastChange = "2018-03-10 10:10:30 +0000";
layers = (
{
anchors = (
{
name = bottom;
position = "{295, 0}";
},
{
name = top;
position = "{418, 700}";
},
{
name = topleft;
position = "{107, 700}";
}
);
layerId = "0B1DFD06-3317-40CA-B510-4969A0718C16";
paths = (
{
closed = 1;
nodes = (
"514 230 OFFCURVE",
"637 352 OFFCURVE",
"672 545 CURVE SMOOTH",
"696 678 LINE SMOOTH",
"699 698 OFFCURVE",
"693 710 OFFCURVE",
"675 710 CURVE SMOOTH",
"657 710 OFFCURVE",
"646 698 OFFCURVE",
"643 678 CURVE SMOOTH",
"619 542 LINE SMOOTH",
"589 373 OFFCURVE",
"484 279 OFFCURVE",
"344 279 CURVE SMOOTH",
"193 279 OFFCURVE",
"133 374 OFFCURVE",
"163 542 CURVE SMOOTH",
"187 678 LINE SMOOTH",
"190 698 OFFCURVE",
"183 710 OFFCURVE",
"165 710 CURVE SMOOTH",
"147 710 OFFCURVE",
"137 698 OFFCURVE",
"134 678 CURVE SMOOTH",
"110 545 LINE SMOOTH",
"78 362 OFFCURVE",
"170 230 OFFCURVE",
"336 230 CURVE SMOOTH"
);
},
{
closed = 1;
nodes = (
"311 -10 OFFCURVE",
"322 2 OFFCURVE",
"326 22 CURVE SMOOTH",
"364 241 LINE",
"311 241 LINE",
"311 241 LINE",
"273 22 LINE SMOOTH",
"269 2 OFFCURVE",
"275 -10 OFFCURVE",
"293 -10 CURVE SMOOTH"
);
}
);
width = 673;
},
{
anchors = (
{
name = bottom;
position = "{320, 0}";
},
{
name = top;
position = "{442, 690}";
},
{
name = topleft;
position = "{132, 700}";
}
);
layerId = "258BB4CE-589F-454F-8E39-237B943AA0B4";
paths = (
{
closed = 1;
nodes = (
"581 222 OFFCURVE",
"701 342 OFFCURVE",
"737 545 CURVE SMOOTH",
"756 650 LINE SMOOTH",
"762 688 OFFCURVE",
"739 710 OFFCURVE",
"700 710 CURVE SMOOTH",
"662 710 OFFCURVE",
"629 688 OFFCURVE",
"623 650 CURVE SMOOTH",
"604 542 LINE SMOOTH",
"578 397 OFFCURVE",
"493 327 OFFCURVE",
"378 327 CURVE SMOOTH",
"245 327 OFFCURVE",
"202 397 OFFCURVE",
"228 542 CURVE SMOOTH",
"247 650 LINE SMOOTH",
"253 688 OFFCURVE",
"228 710 OFFCURVE",
"190 710 CURVE SMOOTH",
"151 710 OFFCURVE",
"120 688 OFFCURVE",
"114 650 CURVE SMOOTH",
"95 545 LINE SMOOTH",
"59 342 OFFCURVE",
"170 222 OFFCURVE",
"369 222 CURVE SMOOTH"
);
},
{
closed = 1;
nodes = (
"356 -10 OFFCURVE",
"389 12 OFFCURVE",
"396 50 CURVE SMOOTH",
"438 289 LINE",
"345 289 LINE",
"305 289 LINE",
"263 50 LINE SMOOTH",
"256 12 OFFCURVE",
"279 -10 OFFCURVE",
"318 -10 CURVE SMOOTH"
);
}
);
width = 723;
},
{
anchors = (
{
name = bottom;
position = "{301, 0}";
},
{
name = top;
position = "{424, 696}";
},
{
name = topleft;
position = "{113, 700}";
}
);
layerId = "8ED59CAD-D047-43C0-8308-3370007B39AA";
paths = (
{
closed = 1;
nodes = (
"527 227 OFFCURVE",
"660 354 OFFCURVE",
"694 545 CURVE SMOOTH",
"716 667 LINE SMOOTH",
"720 694 OFFCURVE",
"707 710 OFFCURVE",
"681 710 CURVE SMOOTH",
"655 710 OFFCURVE",
"635 694 OFFCURVE",
"631 667 CURVE SMOOTH",
"609 542 LINE SMOOTH",
"581 386 OFFCURVE",
"493 298 OFFCURVE",
"354 298 CURVE SMOOTH",
"207 298 OFFCURVE",
"157 386 OFFCURVE",
"185 542 CURVE SMOOTH",
"207 667 LINE SMOOTH",
"211 694 OFFCURVE",
"197 710 OFFCURVE",
"171 710 CURVE SMOOTH",
"145 710 OFFCURVE",
"126 694 OFFCURVE",
"122 667 CURVE SMOOTH",
"100 545 LINE SMOOTH",
"66 354 OFFCURVE",
"168 227 OFFCURVE",
"341 227 CURVE SMOOTH"
);
},
{
closed = 1;
nodes = (
"325 -10 OFFCURVE",
"345 6 OFFCURVE",
"350 33 CURVE SMOOTH",
"390 260 LINE",
"321 260 LINE",
"305 260 LINE",
"265 33 LINE SMOOTH",
"260 6 OFFCURVE",
"273 -10 OFFCURVE",
"299 -10 CURVE SMOOTH"
);
}
);
width = 685;
}
);
leftKerningGroup = Y;
note = Y;
rightKerningGroup = Y;
unicode = 0059;
},
{
glyphname = Z;
lastChange = "2018-03-10 10:10:30 +0000";
layers = (
{
anchors = (
{
name = bottom;
position = "{304, 0}";
},
{
name = top;
position = "{427, 700}";
}
);
layerId = "0B1DFD06-3317-40CA-B510-4969A0718C16";
paths = (
{
closed = 1;
nodes = (
"564 0 LINE SMOOTH",
"583 0 OFFCURVE",
"595 6 OFFCURVE",
"598 24 CURVE SMOOTH",
"601 39 OFFCURVE",
"592 47 OFFCURVE",
"572 47 CURVE SMOOTH",
"120 47 LINE SMOOTH",
"85 47 OFFCURVE",
"78 61 OFFCURVE",
"82 85 CURVE SMOOTH",
"87 116 OFFCURVE",
"100 133 OFFCURVE",
"134 157 CURVE SMOOTH",
"617 509 LINE SMOOTH",
"665 544 OFFCURVE",
"686 566 OFFCURVE",
"694 615 CURVE SMOOTH",
"702 667 OFFCURVE",
"669 700 OFFCURVE",
"611 700 CURVE SMOOTH",
"186 700 LINE SMOOTH",
"167 700 OFFCURVE",
"155 694 OFFCURVE",
"152 676 CURVE SMOOTH",
"150 661 OFFCURVE",
"158 653 OFFCURVE",
"178 653 CURVE SMOOTH",
"603 653 LINE SMOOTH",
"638 653 OFFCURVE",
"646 639 OFFCURVE",
"641 615 CURVE SMOOTH",
"636 584 OFFCURVE",
"623 567 OFFCURVE",
"590 543 CURVE SMOOTH",
"107 192 LINE SMOOTH",
"59 157 OFFCURVE",
"37 134 OFFCURVE",
"29 85 CURVE SMOOTH",
"20 33 OFFCURVE",
"54 0 OFFCURVE",
"112 0 CURVE SMOOTH"
);
}
);
width = 690;
},
{
anchors = (
{
name = bottom;
position = "{328, 0}";
},
{
name = top;
position = "{450, 690}";
}
);
layerId = "258BB4CE-589F-454F-8E39-237B943AA0B4";
paths = (
{
closed = 1;
nodes = (
"560 0 LINE SMOOTH",
"598 0 OFFCURVE",
"633 17 OFFCURVE",
"639 52 CURVE SMOOTH",
"645 86 OFFCURVE",
"614 103 OFFCURVE",
"578 103 CURVE SMOOTH",
"197 103 LINE SMOOTH",
"163 103 OFFCURVE",
"151 111 OFFCURVE",
"153 124 CURVE SMOOTH",
"156 141 OFFCURVE",
"167 151 OFFCURVE",
"185 163 CURVE SMOOTH",
"630 460 LINE SMOOTH",
"697 504 OFFCURVE",
"716 534 OFFCURVE",
"726 587 CURVE SMOOTH",
"738 659 OFFCURVE",
"693 700 OFFCURVE",
"607 700 CURVE SMOOTH",
"210 700 LINE SMOOTH",
"172 700 OFFCURVE",
"137 683 OFFCURVE",
"131 648 CURVE SMOOTH",
"125 614 OFFCURVE",
"156 597 OFFCURVE",
"192 597 CURVE SMOOTH",
"558 597 LINE SMOOTH",
"586 597 OFFCURVE",
"592 586 OFFCURVE",
"590 574 CURVE SMOOTH",
"587 558 OFFCURVE",
"577 549 OFFCURVE",
"559 537 CURVE SMOOTH",
"113 240 LINE SMOOTH",
"45 195 OFFCURVE",
"26 160 OFFCURVE",
"18 113 CURVE SMOOTH",
"6 46 OFFCURVE",
"50 0 OFFCURVE",
"136 0 CURVE SMOOTH"
);
}
);
width = 711;
},
{
anchors = (
{
name = bottom;
position = "{310, 0}";
},
{
name = top;
position = "{433, 696}";
}
);
layerId = "8ED59CAD-D047-43C0-8308-3370007B39AA";
paths = (
{
closed = 1;
nodes = (
"559 0 LINE SMOOTH",
"585 0 OFFCURVE",
"607 10 OFFCURVE",
"611 35 CURVE SMOOTH",
"615 58 OFFCURVE",
"597 69 OFFCURVE",
"571 69 CURVE SMOOTH",
"147 69 LINE SMOOTH",
"113 69 OFFCURVE",
"103 81 OFFCURVE",
"107 101 CURVE SMOOTH",
"111 126 OFFCURVE",
"124 140 OFFCURVE",
"150 159 CURVE SMOOTH",
"618 489 LINE SMOOTH",
"674 528 OFFCURVE",
"696 553 OFFCURVE",
"704 604 CURVE SMOOTH",
"714 665 OFFCURVE",
"675 700 OFFCURVE",
"606 700 CURVE SMOOTH",
"192 700 LINE SMOOTH",
"165 700 OFFCURVE",
"145 690 OFFCURVE",
"140 665 CURVE SMOOTH",
"136 642 OFFCURVE",
"154 631 OFFCURVE",
"180 631 CURVE SMOOTH",
"581 631 LINE SMOOTH",
"614 631 OFFCURVE",
"621 618 OFFCURVE",
"618 599 CURVE SMOOTH",
"613 574 OFFCURVE",
"601 560 OFFCURVE",
"573 541 CURVE SMOOTH",
"106 211 LINE SMOOTH",
"49 172 OFFCURVE",
"29 144 OFFCURVE",
"21 96 CURVE SMOOTH",
"10 32 OFFCURVE",
"61 0 OFFCURVE",
"118 0 CURVE SMOOTH"
);
}
);
width = 691;
}
);
leftKerningGroup = Z;
note = Z;
rightKerningGroup = Z;
unicode = 005A;
},
{
glyphname = a;
lastChange = "2018-03-10 10:10:30 +0000";
layers = (
{
anchors = (
{
name = bottom;
position = "{259, 0}";
},
{
name = ogonek;
position = "{516, 10}";
},
{
name = top;
position = "{342, 470}";
}
);
layerId = "0B1DFD06-3317-40CA-B510-4969A0718C16";
paths = (
{
closed = 1;
nodes = (
"303 -10 OFFCURVE",
"376 14 OFFCURVE",
"431 67 CURVE",
"423 22 LINE SMOOTH",
"419 2 OFFCURVE",
"425 -10 OFFCURVE",
"442 -10 CURVE SMOOTH",
"460 -10 OFFCURVE",
"469 2 OFFCURVE",
"473 22 CURVE SMOOTH",
"526 323 LINE SMOOTH",
"545 428 OFFCURVE",
"482 500 OFFCURVE",
"341 500 CURVE SMOOTH",
"247 500 OFFCURVE",
"168 468 OFFCURVE",
"123 438 CURVE SMOOTH",
"113 431 OFFCURVE",
"108 414 OFFCURVE",
"119 403 CURVE SMOOTH",
"128 394 OFFCURVE",
"139 396 OFFCURVE",
"153 404 CURVE SMOOTH",
"206 433 OFFCURVE",
"260 452 OFFCURVE",
"335 452 CURVE SMOOTH",
"466 452 OFFCURVE",
"487 391 OFFCURVE",
"476 327 CURVE SMOOTH",
"464 256 LINE",
"433 296 OFFCURVE",
"375 328 OFFCURVE",
"288 328 CURVE SMOOTH",
"134 328 OFFCURVE",
"58 254 OFFCURVE",
"41 158 CURVE SMOOTH",
"25 70 OFFCURVE",
"83 -10 OFFCURVE",
"223 -10 CURVE SMOOTH"
);
},
{
closed = 1;
nodes = (
"123 38 OFFCURVE",
"79 78 OFFCURVE",
"93 158 CURVE SMOOTH",
"105 227 OFFCURVE",
"162 280 OFFCURVE",
"276 280 CURVE SMOOTH",
"400 280 OFFCURVE",
"460 235 OFFCURVE",
"448 165 CURVE SMOOTH",
"433 81 OFFCURVE",
"334 38 OFFCURVE",
"232 38 CURVE SMOOTH"
);
}
);
width = 591;
},
{
anchors = (
{
name = bottom;
position = "{277, 0}";
},
{
name = ogonek;
position = "{492, 10}";
},
{
name = top;
position = "{360, 470}";
}
);
layerId = "258BB4CE-589F-454F-8E39-237B943AA0B4";
paths = (
{
closed = 1;
nodes = (
"294 -10 OFFCURVE",
"355 13 OFFCURVE",
"396 55 CURVE",
"394 44 LINE SMOOTH",
"388 9 OFFCURVE",
"410 -10 OFFCURVE",
"449 -10 CURVE SMOOTH",
"488 -10 OFFCURVE",
"518 10 OFFCURVE",
"524 46 CURVE SMOOTH",
"569 303 LINE SMOOTH",
"590 421 OFFCURVE",
"495 500 OFFCURVE",
"351 500 CURVE SMOOTH",
"272 500 OFFCURVE",
"184 478 OFFCURVE",
"126 437 CURVE SMOOTH",
"93 414 OFFCURVE",
"83 387 OFFCURVE",
"100 363 CURVE SMOOTH",
"117 338 OFFCURVE",
"149 337 OFFCURVE",
"186 360 CURVE SMOOTH",
"230 384 OFFCURVE",
"276 397 OFFCURVE",
"335 397 CURVE SMOOTH",
"425 397 OFFCURVE",
"442 363 OFFCURVE",
"434 303 CURVE SMOOTH",
"432 288 LINE",
"399 312 OFFCURVE",
"345 327 OFFCURVE",
"289 327 CURVE SMOOTH",
"159 327 OFFCURVE",
"46 269 OFFCURVE",
"27 160 CURVE SMOOTH",
"8 53 OFFCURVE",
"100 -10 OFFCURVE",
"209 -10 CURVE SMOOTH"
);
},
{
closed = 1;
nodes = (
"187 82 OFFCURVE",
"148 107 OFFCURVE",
"157 160 CURVE SMOOTH",
"166 212 OFFCURVE",
"223 237 OFFCURVE",
"288 237 CURVE SMOOTH",
"363 237 OFFCURVE",
"419 212 OFFCURVE",
"410 160 CURVE SMOOTH",
"401 107 OFFCURVE",
"345 82 OFFCURVE",
"258 82 CURVE SMOOTH"
);
}
);
width = 602;
},
{
anchors = (
{
name = bottom;
position = "{263, 0}";
},
{
name = ogonek;
position = "{503, 10}";
},
{
name = top;
position = "{346, 470}";
}
);
layerId = "8ED59CAD-D047-43C0-8308-3370007B39AA";
paths = (
{
closed = 1;
nodes = (
"301 -10 OFFCURVE",
"364 14 OFFCURVE",
"413 62 CURVE",
"407 31 LINE SMOOTH",
"403 5 OFFCURVE",
"416 -10 OFFCURVE",
"441 -10 CURVE SMOOTH",
"468 -10 OFFCURVE",
"485 5 OFFCURVE",
"490 32 CURVE SMOOTH",
"540 315 LINE SMOOTH",
"559 425 OFFCURVE",
"485 500 OFFCURVE",
"342 500 CURVE SMOOTH",
"254 500 OFFCURVE",
"171 472 OFFCURVE",
"121 438 CURVE SMOOTH",
"102 424 OFFCURVE",
"95 401 OFFCURVE",
"108 386 CURVE SMOOTH",
"121 372 OFFCURVE",
"140 373 OFFCURVE",
"163 387 CURVE SMOOTH",
"212 414 OFFCURVE",
"265 430 OFFCURVE",
"332 430 CURVE SMOOTH",
"446 430 OFFCURVE",
"467 379 OFFCURVE",
"456 317 CURVE SMOOTH",
"448 272 LINE",
"416 304 OFFCURVE",
"353 328 OFFCURVE",
"279 328 CURVE SMOOTH",
"137 328 OFFCURVE",
"50 260 OFFCURVE",
"32 159 CURVE SMOOTH",
"15 63 OFFCURVE",
"91 -10 OFFCURVE",
"219 -10 CURVE SMOOTH"
);
},
{
closed = 1;
nodes = (
"148 56 OFFCURVE",
"103 90 OFFCURVE",
"115 159 CURVE SMOOTH",
"126 221 OFFCURVE",
"183 263 OFFCURVE",
"277 263 CURVE SMOOTH",
"382 263 OFFCURVE",
"441 226 OFFCURVE",
"430 163 CURVE SMOOTH",
"417 91 OFFCURVE",
"335 56 OFFCURVE",
"239 56 CURVE SMOOTH"
);
}
);
width = 591;
}
);
leftKerningGroup = a;
note = a;
rightKerningGroup = a;
unicode = 0061;
},
{
glyphname = b;
lastChange = "2018-03-10 10:10:30 +0000";
layers = (
{
anchors = (
{
name = bottom;
position = "{300, 0}";
},
{
name = top;
position = "{432, 750}";
}
);
layerId = "0B1DFD06-3317-40CA-B510-4969A0718C16";
paths = (
{
closed = 1;
nodes = (
"85 -10 OFFCURVE",
"96 2 OFFCURVE",
"99 22 CURVE SMOOTH",
"113 103 LINE",
"148 32 OFFCURVE",
"225 -10 OFFCURVE",
"319 -10 CURVE SMOOTH",
"487 -10 OFFCURVE",
"603 85 OFFCURVE",
"631 245 CURVE SMOOTH",
"656 388 OFFCURVE",
"581 500 OFFCURVE",
"409 500 CURVE SMOOTH",
"300 500 OFFCURVE",
"224 454 OFFCURVE",
"165 389 CURVE",
"223 727 LINE",
"227 747 OFFCURVE",
"221 759 OFFCURVE",
"203 759 CURVE SMOOTH",
"185 759 OFFCURVE",
"176 747 OFFCURVE",
"172 727 CURVE SMOOTH",
"48 22 LINE SMOOTH",
"44 2 OFFCURVE",
"49 -10 OFFCURVE",
"67 -10 CURVE SMOOTH"
);
},
{
closed = 1;
nodes = (
"186 38 OFFCURVE",
"116 118 OFFCURVE",
"138 245 CURVE SMOOTH",
"161 379 OFFCURVE",
"288 452 OFFCURVE",
"401 452 CURVE SMOOTH",
"546 452 OFFCURVE",
"601 368 OFFCURVE",
"579 245 CURVE SMOOTH",
"556 115 OFFCURVE",
"463 38 OFFCURVE",
"328 38 CURVE SMOOTH"
);
}
);
width = 684;
},
{
anchors = (
{
name = bottom;
position = "{305, 0}";
},
{
name = top;
position = "{437, 750}";
}
);
layerId = "258BB4CE-589F-454F-8E39-237B943AA0B4";
paths = (
{
closed = 1;
nodes = (
"111 -10 OFFCURVE",
"143 12 OFFCURVE",
"149 50 CURVE SMOOTH",
"152 70 LINE",
"191 23 OFFCURVE",
"252 -10 OFFCURVE",
"329 -10 CURVE SMOOTH",
"497 -10 OFFCURVE",
"608 85 OFFCURVE",
"636 245 CURVE SMOOTH",
"664 405 OFFCURVE",
"571 500 OFFCURVE",
"412 500 CURVE SMOOTH",
"337 500 OFFCURVE",
"270 471 OFFCURVE",
"215 422 CURVE",
"263 699 LINE SMOOTH",
"270 737 OFFCURVE",
"247 759 OFFCURVE",
"208 759 CURVE SMOOTH",
"169 759 OFFCURVE",
"139 738 OFFCURVE",
"132 699 CURVE SMOOTH",
"18 50 LINE SMOOTH",
"11 11 OFFCURVE",
"33 -10 OFFCURVE",
"72 -10 CURVE SMOOTH"
);
},
{
closed = 1;
nodes = (
"219 94 OFFCURVE",
"166 150 OFFCURVE",
"183 245 CURVE SMOOTH",
"200 340 OFFCURVE",
"272 396 OFFCURVE",
"376 396 CURVE SMOOTH",
"473 396 OFFCURVE",
"521 340 OFFCURVE",
"504 245 CURVE SMOOTH",
"487 150 OFFCURVE",
"420 94 OFFCURVE",
"323 94 CURVE SMOOTH"
);
}
);
width = 674;
},
{
anchors = (
{
name = bottom;
position = "{302, 0}";
},
{
name = top;
position = "{434, 750}";
}
);
layerId = "8ED59CAD-D047-43C0-8308-3370007B39AA";
paths = (
{
closed = 1;
nodes = (
"94 -10 OFFCURVE",
"113 6 OFFCURVE",
"118 33 CURVE SMOOTH",
"128 90 LINE",
"165 26 OFFCURVE",
"233 -10 OFFCURVE",
"325 -10 CURVE SMOOTH",
"505 -10 OFFCURVE",
"605 88 OFFCURVE",
"632 245 CURVE SMOOTH",
"659 395 OFFCURVE",
"574 500 OFFCURVE",
"411 500 CURVE SMOOTH",
"316 500 OFFCURVE",
"243 464 OFFCURVE",
"185 406 CURVE",
"238 716 LINE",
"243 743 OFFCURVE",
"230 759 OFFCURVE",
"204 759 CURVE SMOOTH",
"178 759 OFFCURVE",
"160 743 OFFCURVE",
"155 716 CURVE SMOOTH",
"35 33 LINE SMOOTH",
"30 6 OFFCURVE",
"42 -10 OFFCURVE",
"68 -10 CURVE SMOOTH"
);
},
{
closed = 1;
nodes = (
"205 60 OFFCURVE",
"135 131 OFFCURVE",
"155 245 CURVE SMOOTH",
"176 363 OFFCURVE",
"281 430 OFFCURVE",
"390 430 CURVE SMOOTH",
"521 430 OFFCURVE",
"568 357 OFFCURVE",
"548 245 CURVE SMOOTH",
"527 123 OFFCURVE",
"451 60 OFFCURVE",
"325 60 CURVE SMOOTH"
);
}
);
width = 675;
}
);
leftKerningGroup = b;
note = b;
rightKerningGroup = b;
unicode = 0062;
},
{
glyphname = c;
lastChange = "2018-03-10 10:10:30 +0000";
layers = (
{
anchors = (
{
name = bottom;
position = "{257, 0}";
},
{
name = top;
position = "{340, 470}";
}
);
layerId = "0B1DFD06-3317-40CA-B510-4969A0718C16";
paths = (
{
closed = 1;
nodes = (
"372 -10 OFFCURVE",
"443 22 OFFCURVE",
"505 70 CURVE SMOOTH",
"518 80 OFFCURVE",
"521 95 OFFCURVE",
"511 105 CURVE SMOOTH",
"500 116 OFFCURVE",
"485 111 OFFCURVE",
"473 100 CURVE SMOOTH",
"429 60 OFFCURVE",
"367 38 OFFCURVE",
"285 38 CURVE SMOOTH",
"130 38 OFFCURVE",
"88 128 OFFCURVE",
"109 246 CURVE SMOOTH",
"130 366 OFFCURVE",
"214 452 OFFCURVE",
"358 452 CURVE SMOOTH",
"437 452 OFFCURVE",
"494 434 OFFCURVE",
"524 393 CURVE SMOOTH",
"532 382 OFFCURVE",
"548 376 OFFCURVE",
"560 386 CURVE SMOOTH",
"573 396 OFFCURVE",
"577 408 OFFCURVE",
"569 420 CURVE SMOOTH",
"533 475 OFFCURVE",
"457 500 OFFCURVE",
"366 500 CURVE SMOOTH",
"176 500 OFFCURVE",
"83 382 OFFCURVE",
"57 246 CURVE SMOOTH",
"29 99 OFFCURVE",
"111 -10 OFFCURVE",
"276 -10 CURVE SMOOTH"
);
}
);
width = 598;
},
{
anchors = (
{
name = bottom;
position = "{290, 0}";
},
{
name = top;
position = "{373, 470}";
}
);
layerId = "258BB4CE-589F-454F-8E39-237B943AA0B4";
paths = (
{
closed = 1;
nodes = (
"394 -10 OFFCURVE",
"466 25 OFFCURVE",
"542 85 CURVE",
"568 112 OFFCURVE",
"569 142 OFFCURVE",
"546 164 CURVE SMOOTH",
"524 184 OFFCURVE",
"492 179 OFFCURVE",
"453 147 CURVE SMOOTH",
"413 114 OFFCURVE",
"370 94 OFFCURVE",
"303 94 CURVE SMOOTH",
"197 94 OFFCURVE",
"157 150 OFFCURVE",
"174 246 CURVE SMOOTH",
"191 340 OFFCURVE",
"260 396 OFFCURVE",
"356 396 CURVE SMOOTH",
"410 396 OFFCURVE",
"451 377 OFFCURVE",
"474 349 CURVE SMOOTH",
"491 328 OFFCURVE",
"525 314 OFFCURVE",
"554 332 CURVE SMOOTH",
"585 352 OFFCURVE",
"598 381 OFFCURVE",
"582 410 CURVE SMOOTH",
"551 467 OFFCURVE",
"467 500 OFFCURVE",
"370 500 CURVE SMOOTH",
"181 500 OFFCURVE",
"71 406 OFFCURVE",
"42 246 CURVE SMOOTH",
"14 85 OFFCURVE",
"126 -10 OFFCURVE",
"287 -10 CURVE SMOOTH"
);
}
);
width = 622;
},
{
anchors = (
{
name = bottom;
position = "{267, 0}";
},
{
name = top;
position = "{350, 470}";
}
);
layerId = "8ED59CAD-D047-43C0-8308-3370007B39AA";
paths = (
{
closed = 1;
nodes = (
"376 -10 OFFCURVE",
"449 23 OFFCURVE",
"516 76 CURVE SMOOTH",
"534 93 OFFCURVE",
"536 114 OFFCURVE",
"521 129 CURVE SMOOTH",
"506 144 OFFCURVE",
"483 138 OFFCURVE",
"461 119 CURVE SMOOTH",
"418 82 OFFCURVE",
"358 60 OFFCURVE",
"288 60 CURVE SMOOTH",
"153 60 OFFCURVE",
"112 137 OFFCURVE",
"131 246 CURVE SMOOTH",
"151 359 OFFCURVE",
"228 430 OFFCURVE",
"353 430 CURVE SMOOTH",
"424 430 OFFCURVE",
"472 410 OFFCURVE",
"499 373 CURVE SMOOTH",
"510 357 OFFCURVE",
"535 350 OFFCURVE",
"553 363 CURVE SMOOTH",
"574 377 OFFCURVE",
"581 397 OFFCURVE",
"570 416 CURVE SMOOTH",
"536 472 OFFCURVE",
"461 500 OFFCURVE",
"363 500 CURVE SMOOTH",
"164 500 OFFCURVE",
"71 381 OFFCURVE",
"47 246 CURVE SMOOTH",
"20 93 OFFCURVE",
"119 -10 OFFCURVE",
"275 -10 CURVE SMOOTH"
);
}
);
width = 599;
}
);
leftKerningGroup = c;
note = c;
rightKerningGroup = c;
unicode = 0063;
},
{
glyphname = d;
lastChange = "2018-03-10 10:10:30 +0000";
layers = (
{
anchors = (
{
name = bottom;
position = "{301, 0}";
},
{
name = center;
position = "{342, 235}";
},
{
name = top;
position = "{433, 750}";
},
{
name = topright;
position = "{701, 470}";
}
);
layerId = "0B1DFD06-3317-40CA-B510-4969A0718C16";
paths = (
{
closed = 1;
nodes = (
"389 -10 OFFCURVE",
"464 28 OFFCURVE",
"525 103 CURVE",
"511 22 LINE SMOOTH",
"507 2 OFFCURVE",
"513 -10 OFFCURVE",
"531 -10 CURVE SMOOTH",
"549 -10 OFFCURVE",
"558 2 OFFCURVE",
"562 22 CURVE SMOOTH",
"686 727 LINE SMOOTH",
"690 747 OFFCURVE",
"685 759 OFFCURVE",
"667 759 CURVE SMOOTH",
"649 759 OFFCURVE",
"639 747 OFFCURVE",
"635 727 CURVE",
"574 379 LINE",
"533 450 OFFCURVE",
"479 500 OFFCURVE",
"371 500 CURVE SMOOTH",
"190 500 OFFCURVE",
"82 384 OFFCURVE",
"56 241 CURVE SMOOTH",
"29 86 OFFCURVE",
"116 -10 OFFCURVE",
"279 -10 CURVE SMOOTH"
);
},
{
closed = 1;
nodes = (
"148 38 OFFCURVE",
"84 101 OFFCURVE",
"108 241 CURVE SMOOTH",
"130 364 OFFCURVE",
"217 452 OFFCURVE",
"363 452 CURVE SMOOTH",
"469 452 OFFCURVE",
"574 379 OFFCURVE",
"550 245 CURVE SMOOTH",
"528 118 OFFCURVE",
"430 38 OFFCURVE",
"288 38 CURVE SMOOTH"
);
}
);
width = 685;
},
{
anchors = (
{
name = bottom;
position = "{276, 0}";
},
{
name = center;
position = "{317, 235}";
},
{
name = top;
position = "{408, 750}";
},
{
name = topright;
position = "{676, 470}";
}
);
layerId = "258BB4CE-589F-454F-8E39-237B943AA0B4";
paths = (
{
closed = 1;
nodes = (
"359 -10 OFFCURVE",
"414 20 OFFCURVE",
"464 70 CURVE",
"461 50 LINE SMOOTH",
"454 12 OFFCURVE",
"477 -10 OFFCURVE",
"516 -10 CURVE SMOOTH",
"555 -10 OFFCURVE",
"585 11 OFFCURVE",
"592 50 CURVE SMOOTH",
"706 699 LINE SMOOTH",
"713 738 OFFCURVE",
"691 759 OFFCURVE",
"652 759 CURVE SMOOTH",
"613 759 OFFCURVE",
"582 737 OFFCURVE",
"575 699 CURVE SMOOTH",
"525 422 LINE",
"488 471 OFFCURVE",
"436 500 OFFCURVE",
"351 500 CURVE SMOOTH",
"177 500 OFFCURVE",
"70 402 OFFCURVE",
"42 245 CURVE SMOOTH",
"14 85 OFFCURVE",
"125 -10 OFFCURVE",
"273 -10 CURVE SMOOTH"
);
},
{
closed = 1;
nodes = (
"201 94 OFFCURVE",
"157 150 OFFCURVE",
"174 245 CURVE SMOOTH",
"191 340 OFFCURVE",
"259 396 OFFCURVE",
"356 396 CURVE SMOOTH",
"460 396 OFFCURVE",
"512 340 OFFCURVE",
"495 245 CURVE SMOOTH",
"478 150 OFFCURVE",
"407 94 OFFCURVE",
"303 94 CURVE SMOOTH"
);
}
);
width = 675;
},
{
anchors = (
{
name = bottom;
position = "{286, 0}";
},
{
name = center;
position = "{327, 235}";
},
{
name = top;
position = "{418, 750}";
},
{
name = topright;
position = "{686, 470}";
}
);
layerId = "8ED59CAD-D047-43C0-8308-3370007B39AA";
paths = (
{
closed = 1;
nodes = (
"361 -10 OFFCURVE",
"438 25 OFFCURVE",
"496 90 CURVE",
"486 33 LINE SMOOTH",
"481 6 OFFCURVE",
"494 -10 OFFCURVE",
"520 -10 CURVE SMOOTH",
"546 -10 OFFCURVE",
"564 6 OFFCURVE",
"569 33 CURVE SMOOTH",
"689 716 LINE SMOOTH",
"694 743 OFFCURVE",
"682 759 OFFCURVE",
"656 759 CURVE SMOOTH",
"630 759 OFFCURVE",
"611 743 OFFCURVE",
"606 716 CURVE SMOOTH",
"550 402 LINE",
"512 460 OFFCURVE",
"454 500 OFFCURVE",
"355 500 CURVE SMOOTH",
"182 500 OFFCURVE",
"72 391 OFFCURVE",
"46 243 CURVE SMOOTH",
"18 86 OFFCURVE",
"113 -10 OFFCURVE",
"268 -10 CURVE SMOOTH"
);
},
{
closed = 1;
nodes = (
"169 60 OFFCURVE",
"108 121 OFFCURVE",
"130 243 CURVE SMOOTH",
"149 354 OFFCURVE",
"232 430 OFFCURVE",
"355 430 CURVE SMOOTH",
"465 430 OFFCURVE",
"544 363 OFFCURVE",
"523 245 CURVE SMOOTH",
"503 131 OFFCURVE",
"416 60 OFFCURVE",
"289 60 CURVE SMOOTH"
);
}
);
width = 675;
}
);
leftKerningGroup = d;
note = d;
rightKerningGroup = d;
unicode = 0064;
},
{
glyphname = e;
lastChange = "2018-03-10 10:10:30 +0000";
layers = (
{
anchors = (
{
name = bottom;
position = "{281, 0}";
},
{
name = ogonek;
position = "{311, 10}";
},
{
name = top;
position = "{364, 470}";
}
);
layerId = "0B1DFD06-3317-40CA-B510-4969A0718C16";
paths = (
{
closed = 1;
nodes = (
"376 -9 OFFCURVE",
"462 20 OFFCURVE",
"526 79 CURVE SMOOTH",
"539 91 OFFCURVE",
"539 104 OFFCURVE",
"528 114 CURVE SMOOTH",
"518 123 OFFCURVE",
"507 118 OFFCURVE",
"491 105 CURVE SMOOTH",
"439 65 OFFCURVE",
"385 39 OFFCURVE",
"290 39 CURVE SMOOTH",
"153 39 OFFCURVE",
"86 102 OFFCURVE",
"107 223 CURVE",
"509 223 LINE SMOOTH",
"562 223 OFFCURVE",
"591 250 OFFCURVE",
"601 304 CURVE SMOOTH",
"617 396 OFFCURVE",
"554 500 OFFCURVE",
"371 500 CURVE SMOOTH",
"206 500 OFFCURVE",
"87 413 OFFCURVE",
"58 250 CURVE SMOOTH",
"26 70 OFFCURVE",
"134 -9 OFFCURVE",
"281 -9 CURVE SMOOTH"
);
},
{
closed = 1;
nodes = (
"134 363 OFFCURVE",
"211 452 OFFCURVE",
"363 452 CURVE SMOOTH",
"511 452 OFFCURVE",
"565 396 OFFCURVE",
"549 305 CURVE SMOOTH",
"544 275 OFFCURVE",
"529 268 OFFCURVE",
"503 268 CURVE SMOOTH",
"117 268 LINE"
);
}
);
width = 644;
},
{
anchors = (
{
name = bottom;
position = "{277, 0}";
},
{
name = ogonek;
position = "{331, 10}";
},
{
name = top;
position = "{360, 470}";
}
);
layerId = "258BB4CE-589F-454F-8E39-237B943AA0B4";
paths = (
{
closed = 1;
nodes = (
"384 -9 OFFCURVE",
"457 16 OFFCURVE",
"523 61 CURVE SMOOTH",
"552 81 OFFCURVE",
"558 113 OFFCURVE",
"539 137 CURVE SMOOTH",
"520 160 OFFCURVE",
"498 159 OFFCURVE",
"454 133 CURVE SMOOTH",
"414 109 OFFCURVE",
"374 93 OFFCURVE",
"305 93 CURVE SMOOTH",
"209 93 OFFCURVE",
"151 135 OFFCURVE",
"163 203 CURVE",
"475 203 LINE SMOOTH",
"547 203 OFFCURVE",
"598 237 OFFCURVE",
"610 304 CURVE SMOOTH",
"630 417 OFFCURVE",
"523 500 OFFCURVE",
"363 500 CURVE SMOOTH",
"174 500 OFFCURVE",
"69 398 OFFCURVE",
"41 241 CURVE SMOOTH",
"14 87 OFFCURVE",
"125 -9 OFFCURVE",
"287 -9 CURVE SMOOTH"
);
},
{
closed = 1;
nodes = (
"192 359 OFFCURVE",
"260 398 OFFCURVE",
"349 398 CURVE SMOOTH",
"454 398 OFFCURVE",
"493 369 OFFCURVE",
"485 324 CURVE SMOOTH",
"482 304 OFFCURVE",
"472 296 OFFCURVE",
"449 296 CURVE SMOOTH",
"181 296 LINE"
);
}
);
width = 638;
},
{
anchors = (
{
name = bottom;
position = "{275, 0}";
},
{
name = ogonek;
position = "{315, 10}";
},
{
name = top;
position = "{358, 470}";
}
);
layerId = "8ED59CAD-D047-43C0-8308-3370007B39AA";
paths = (
{
closed = 1;
nodes = (
"371 -9 OFFCURVE",
"455 18 OFFCURVE",
"521 72 CURVE SMOOTH",
"540 87 OFFCURVE",
"543 108 OFFCURVE",
"529 123 CURVE SMOOTH",
"514 138 OFFCURVE",
"500 134 OFFCURVE",
"472 116 CURVE SMOOTH",
"426 83 OFFCURVE",
"375 61 OFFCURVE",
"292 61 CURVE SMOOTH",
"166 61 OFFCURVE",
"108 115 OFFCURVE",
"126 215 CURVE",
"492 215 LINE SMOOTH",
"549 215 OFFCURVE",
"590 245 OFFCURVE",
"601 304 CURVE SMOOTH",
"618 404 OFFCURVE",
"531 500 OFFCURVE",
"362 500 CURVE SMOOTH",
"189 500 OFFCURVE",
"76 407 OFFCURVE",
"47 246 CURVE SMOOTH",
"18 77 OFFCURVE",
"133 -9 OFFCURVE",
"279 -9 CURVE SMOOTH"
);
},
{
closed = 1;
nodes = (
"154 361 OFFCURVE",
"231 430 OFFCURVE",
"353 430 CURVE SMOOTH",
"482 430 OFFCURVE",
"531 382 OFFCURVE",
"519 313 CURVE SMOOTH",
"515 287 OFFCURVE",
"502 279 OFFCURVE",
"477 279 CURVE SMOOTH",
"139 279 LINE"
);
}
);
width = 634;
}
);
leftKerningGroup = c;
note = e;
rightKerningGroup = c;
unicode = 0065;
},
{
glyphname = f;
lastChange = "2018-03-10 10:10:30 +0000";
layers = (
{
anchors = (
{
name = bottom;
position = "{171, 0}";
},
{
name = top;
position = "{303, 750}";
}
);
layerId = "0B1DFD06-3317-40CA-B510-4969A0718C16";
paths = (
{
closed = 1;
nodes = (
"124 -10 OFFCURVE",
"133 2 OFFCURVE",
"137 22 CURVE SMOOTH",
"239 603 LINE SMOOTH",
"251 671 OFFCURVE",
"291 691 OFFCURVE",
"335 691 CURVE SMOOTH",
"378 691 OFFCURVE",
"403 678 OFFCURVE",
"419 659 CURVE SMOOTH",
"430 646 OFFCURVE",
"440 640 OFFCURVE",
"455 651 CURVE SMOOTH",
"468 661 OFFCURVE",
"469 672 OFFCURVE",
"462 684 CURVE SMOOTH",
"442 711 OFFCURVE",
"398 739 OFFCURVE",
"343 739 CURVE SMOOTH",
"270 739 OFFCURVE",
"205 699 OFFCURVE",
"188 599 CURVE SMOOTH",
"86 22 LINE SMOOTH",
"82 2 OFFCURVE",
"88 -10 OFFCURVE",
"106 -10 CURVE SMOOTH"
);
},
{
closed = 1;
nodes = (
"364 455 LINE SMOOTH",
"384 455 OFFCURVE",
"395 462 OFFCURVE",
"398 477 CURVE SMOOTH",
"401 495 OFFCURVE",
"391 500 OFFCURVE",
"372 500 CURVE SMOOTH",
"112 500 LINE SMOOTH",
"93 500 OFFCURVE",
"81 495 OFFCURVE",
"78 477 CURVE SMOOTH",
"75 462 OFFCURVE",
"84 455 OFFCURVE",
"104 455 CURVE SMOOTH"
);
}
);
width = 425;
},
{
anchors = (
{
name = bottom;
position = "{206, 0}";
},
{
name = top;
position = "{338, 750}";
}
);
layerId = "258BB4CE-589F-454F-8E39-237B943AA0B4";
paths = (
{
closed = 1;
nodes = (
"180 -10 OFFCURVE",
"210 11 OFFCURVE",
"217 50 CURVE SMOOTH",
"309 570 LINE SMOOTH",
"317 617 OFFCURVE",
"339 630 OFFCURVE",
"368 630 CURVE SMOOTH",
"388 630 OFFCURVE",
"404 625 OFFCURVE",
"418 609 CURVE SMOOTH",
"438 588 OFFCURVE",
"472 575 OFFCURVE",
"501 593 CURVE SMOOTH",
"532 613 OFFCURVE",
"546 642 OFFCURVE",
"529 671 CURVE SMOOTH",
"505 711 OFFCURVE",
"439 734 OFFCURVE",
"377 734 CURVE SMOOTH",
"265 734 OFFCURVE",
"197 679 OFFCURVE",
"177 566 CURVE SMOOTH",
"86 50 LINE SMOOTH",
"79 12 OFFCURVE",
"102 -10 OFFCURVE",
"141 -10 CURVE SMOOTH"
);
},
{
closed = 1;
nodes = (
"391 387 LINE SMOOTH",
"428 387 OFFCURVE",
"460 404 OFFCURVE",
"466 438 CURVE SMOOTH",
"472 473 OFFCURVE",
"447 490 OFFCURVE",
"409 490 CURVE SMOOTH",
"141 490 LINE SMOOTH",
"103 490 OFFCURVE",
"72 473 OFFCURVE",
"66 438 CURVE SMOOTH",
"60 404 OFFCURVE",
"86 387 OFFCURVE",
"123 387 CURVE SMOOTH"
);
}
);
width = 495;
},
{
anchors = (
{
name = bottom;
position = "{187, 0}";
},
{
name = top;
position = "{319, 750}";
}
);
layerId = "8ED59CAD-D047-43C0-8308-3370007B39AA";
paths = (
{
closed = 1;
nodes = (
"148 -10 OFFCURVE",
"166 6 OFFCURVE",
"171 33 CURVE SMOOTH",
"269 590 LINE SMOOTH",
"279 649 OFFCURVE",
"311 667 OFFCURVE",
"351 667 CURVE SMOOTH",
"386 667 OFFCURVE",
"404 656 OFFCURVE",
"419 638 CURVE SMOOTH",
"434 622 OFFCURVE",
"454 613 OFFCURVE",
"475 627 CURVE SMOOTH",
"495 641 OFFCURVE",
"502 660 OFFCURVE",
"491 679 CURVE SMOOTH",
"469 711 OFFCURVE",
"420 737 OFFCURVE",
"359 737 CURVE SMOOTH",
"269 737 OFFCURVE",
"203 687 OFFCURVE",
"185 586 CURVE SMOOTH",
"88 33 LINE SMOOTH",
"83 6 OFFCURVE",
"96 -10 OFFCURVE",
"122 -10 CURVE SMOOTH"
);
},
{
closed = 1;
nodes = (
"377 428 LINE SMOOTH",
"403 428 OFFCURVE",
"423 439 OFFCURVE",
"427 461 CURVE SMOOTH",
"432 486 OFFCURVE",
"415 496 OFFCURVE",
"389 496 CURVE SMOOTH",
"125 496 LINE SMOOTH",
"99 496 OFFCURVE",
"80 486 OFFCURVE",
"75 461 CURVE SMOOTH",
"71 439 OFFCURVE",
"87 428 OFFCURVE",
"113 428 CURVE SMOOTH"
);
}
);
width = 457;
}
);
note = f;
unicode = 0066;
},
{
glyphname = g;
lastChange = "2018-03-10 10:10:30 +0000";
layers = (
{
anchors = (
{
name = bottom;
position = "{256, -250}";
},
{
name = top;
position = "{383, 470}";
}
);
layerId = "0B1DFD06-3317-40CA-B510-4969A0718C16";
paths = (
{
closed = 1;
nodes = (
"413 -251 OFFCURVE",
"527 -171 OFFCURVE",
"553 -21 CURVE SMOOTH",
"641 474 LINE SMOOTH",
"643 490 OFFCURVE",
"636 503 OFFCURVE",
"621 503 CURVE SMOOTH",
"607 503 OFFCURVE",
"592 490 OFFCURVE",
"590 474 CURVE SMOOTH",
"574 386 LINE",
"538 458 OFFCURVE",
"472 500 OFFCURVE",
"374 500 CURVE SMOOTH",
"180 500 OFFCURVE",
"80 378 OFFCURVE",
"54 231 CURVE SMOOTH",
"28 87 OFFCURVE",
"108 -16 OFFCURVE",
"276 -16 CURVE SMOOTH",
"394 -16 OFFCURVE",
"471 37 OFFCURVE",
"523 95 CURVE",
"502 -21 LINE SMOOTH",
"481 -143 OFFCURVE",
"394 -206 OFFCURVE",
"253 -206 CURVE SMOOTH",
"170 -206 OFFCURVE",
"119 -180 OFFCURVE",
"96 -144 CURVE SMOOTH",
"88 -132 OFFCURVE",
"75 -130 OFFCURVE",
"62 -138 CURVE SMOOTH",
"48 -146 OFFCURVE",
"44 -161 OFFCURVE",
"52 -171 CURVE SMOOTH",
"97 -226 OFFCURVE",
"165 -251 OFFCURVE",
"252 -251 CURVE SMOOTH"
);
},
{
closed = 1;
nodes = (
"131 32 OFFCURVE",
"85 113 OFFCURVE",
"106 231 CURVE SMOOTH",
"131 373 OFFCURVE",
"223 452 OFFCURVE",
"366 452 CURVE SMOOTH",
"515 452 OFFCURVE",
"567 357 OFFCURVE",
"546 241 CURVE SMOOTH",
"520 93 OFFCURVE",
"387 32 OFFCURVE",
"285 32 CURVE SMOOTH"
);
}
);
width = 684;
},
{
anchors = (
{
name = bottom;
position = "{261, -250}";
},
{
name = top;
position = "{388, 470}";
}
);
layerId = "258BB4CE-589F-454F-8E39-237B943AA0B4";
paths = (
{
closed = 1;
nodes = (
"447 -250 OFFCURVE",
"560 -132 OFFCURVE",
"588 28 CURVE SMOOTH",
"661 440 LINE SMOOTH",
"667 479 OFFCURVE",
"645 500 OFFCURVE",
"606 500 CURVE SMOOTH",
"567 500 OFFCURVE",
"536 478 OFFCURVE",
"530 440 CURVE SMOOTH",
"526 420 LINE",
"485 470 OFFCURVE",
"416 500 OFFCURVE",
"346 500 CURVE SMOOTH",
"184 500 OFFCURVE",
"70 405 OFFCURVE",
"42 245 CURVE SMOOTH",
"14 85 OFFCURVE",
"116 -10 OFFCURVE",
"268 -10 CURVE SMOOTH",
"349 -10 OFFCURVE",
"409 15 OFFCURVE",
"463 68 CURVE",
"457 28 LINE SMOOTH",
"440 -83 OFFCURVE",
"368 -149 OFFCURVE",
"264 -149 CURVE SMOOTH",
"209 -149 OFFCURVE",
"160 -132 OFFCURVE",
"133 -102 CURVE SMOOTH",
"105 -70 OFFCURVE",
"75 -65 OFFCURVE",
"46 -85 CURVE SMOOTH",
"15 -107 OFFCURVE",
"3 -139 OFFCURVE",
"22 -164 CURVE SMOOTH",
"63 -218 OFFCURVE",
"149 -250 OFFCURVE",
"253 -250 CURVE SMOOTH"
);
},
{
closed = 1;
nodes = (
"206 94 OFFCURVE",
"157 150 OFFCURVE",
"174 245 CURVE SMOOTH",
"191 340 OFFCURVE",
"259 396 OFFCURVE",
"356 396 CURVE SMOOTH",
"460 396 OFFCURVE",
"512 340 OFFCURVE",
"495 245 CURVE SMOOTH",
"478 150 OFFCURVE",
"407 94 OFFCURVE",
"303 94 CURVE SMOOTH"
);
}
);
width = 675;
},
{
anchors = (
{
name = bottom;
position = "{254, -250}";
},
{
name = top;
position = "{381, 470}";
}
);
layerId = "8ED59CAD-D047-43C0-8308-3370007B39AA";
paths = (
{
closed = 1;
nodes = (
"421 -251 OFFCURVE",
"536 -155 OFFCURVE",
"563 -1 CURVE SMOOTH",
"644 460 LINE SMOOTH",
"649 486 OFFCURVE",
"636 502 OFFCURVE",
"611 502 CURVE SMOOTH",
"587 502 OFFCURVE",
"566 485 OFFCURVE",
"561 460 CURVE SMOOTH",
"551 400 LINE",
"513 463 OFFCURVE",
"448 500 OFFCURVE",
"362 500 CURVE SMOOTH",
"170 500 OFFCURVE",
"72 389 OFFCURVE",
"45 237 CURVE SMOOTH",
"18 86 OFFCURVE",
"107 -14 OFFCURVE",
"265 -14 CURVE SMOOTH",
"364 -14 OFFCURVE",
"441 28 OFFCURVE",
"495 84 CURVE",
"480 -1 LINE SMOOTH",
"460 -119 OFFCURVE",
"379 -183 OFFCURVE",
"253 -183 CURVE SMOOTH",
"181 -183 OFFCURVE",
"131 -161 OFFCURVE",
"107 -127 CURVE SMOOTH",
"90 -107 OFFCURVE",
"71 -104 OFFCURVE",
"51 -117 CURVE SMOOTH",
"31 -130 OFFCURVE",
"22 -152 OFFCURVE",
"34 -168 CURVE SMOOTH",
"74 -223 OFFCURVE",
"154 -251 OFFCURVE",
"248 -251 CURVE SMOOTH"
);
},
{
closed = 1;
nodes = (
"154 57 OFFCURVE",
"110 128 OFFCURVE",
"129 237 CURVE SMOOTH",
"150 360 OFFCURVE",
"233 430 OFFCURVE",
"358 430 CURVE SMOOTH",
"484 430 OFFCURVE",
"541 350 OFFCURVE",
"522 243 CURVE SMOOTH",
"499 116 OFFCURVE",
"390 57 OFFCURVE",
"287 57 CURVE SMOOTH"
);
}
);
width = 670;
}
);
leftKerningGroup = d;
note = g;
rightKerningGroup = d;
unicode = 0067;
},
{
glyphname = h;
lastChange = "2018-03-10 10:10:30 +0000";
layers = (
{
anchors = (
{
name = bottom;
position = "{269, 0}";
},
{
name = center;
position = "{335, 375}";
},
{
name = top;
position = "{401, 750}";
}
);
layerId = "0B1DFD06-3317-40CA-B510-4969A0718C16";
paths = (
{
closed = 1;
nodes = (
"85 -10 OFFCURVE",
"95 2 OFFCURVE",
"99 22 CURVE SMOOTH",
"140 255 LINE SMOOTH",
"163 383 OFFCURVE",
"269 452 OFFCURVE",
"383 452 CURVE SMOOTH",
"494 452 OFFCURVE",
"517 398 OFFCURVE",
"500 303 CURVE SMOOTH",
"451 22 LINE SMOOTH",
"447 2 OFFCURVE",
"452 -10 OFFCURVE",
"470 -10 CURVE SMOOTH",
"488 -10 OFFCURVE",
"498 2 OFFCURVE",
"502 22 CURVE SMOOTH",
"551 303 LINE SMOOTH",
"572 426 OFFCURVE",
"517 500 OFFCURVE",
"391 500 CURVE SMOOTH",
"293 500 OFFCURVE",
"217 453 OFFCURVE",
"165 397 CURVE",
"223 727 LINE SMOOTH",
"227 747 OFFCURVE",
"221 759 OFFCURVE",
"203 759 CURVE SMOOTH",
"185 759 OFFCURVE",
"176 747 OFFCURVE",
"172 727 CURVE SMOOTH",
"48 22 LINE SMOOTH",
"44 2 OFFCURVE",
"49 -10 OFFCURVE",
"67 -10 CURVE SMOOTH"
);
}
);
width = 620;
},
{
anchors = (
{
name = bottom;
position = "{282, 0}";
},
{
name = center;
position = "{348, 375}";
},
{
name = top;
position = "{331, 750}";
}
);
layerId = "258BB4CE-589F-454F-8E39-237B943AA0B4";
paths = (
{
closed = 1;
nodes = (
"111 -10 OFFCURVE",
"142 12 OFFCURVE",
"149 50 CURVE SMOOTH",
"180 227 LINE SMOOTH",
"199 333 OFFCURVE",
"269 396 OFFCURVE",
"370 396 CURVE SMOOTH",
"448 396 OFFCURVE",
"468 350 OFFCURVE",
"454 275 CURVE SMOOTH",
"415 50 LINE SMOOTH",
"408 11 OFFCURVE",
"430 -10 OFFCURVE",
"469 -10 CURVE SMOOTH",
"508 -10 OFFCURVE",
"539 12 OFFCURVE",
"546 50 CURVE SMOOTH",
"585 275 LINE SMOOTH",
"608 406 OFFCURVE",
"542 500 OFFCURVE",
"418 500 CURVE SMOOTH",
"332 500 OFFCURVE",
"269 468 OFFCURVE",
"212 411 CURVE",
"263 699 LINE SMOOTH",
"270 737 OFFCURVE",
"247 759 OFFCURVE",
"208 759 CURVE SMOOTH",
"169 759 OFFCURVE",
"139 738 OFFCURVE",
"132 699 CURVE SMOOTH",
"18 50 LINE SMOOTH",
"11 11 OFFCURVE",
"33 -10 OFFCURVE",
"72 -10 CURVE SMOOTH"
);
}
);
width = 624;
},
{
anchors = (
{
name = bottom;
position = "{273, 0}";
},
{
name = center;
position = "{339, 375}";
},
{
name = top;
position = "{315, 750}";
}
);
layerId = "8ED59CAD-D047-43C0-8308-3370007B39AA";
paths = (
{
closed = 1;
nodes = (
"94 -10 OFFCURVE",
"113 6 OFFCURVE",
"118 33 CURVE SMOOTH",
"155 244 LINE SMOOTH",
"176 363 OFFCURVE",
"268 430 OFFCURVE",
"377 430 CURVE SMOOTH",
"473 430 OFFCURVE",
"497 379 OFFCURVE",
"481 292 CURVE SMOOTH",
"436 33 LINE SMOOTH",
"431 6 OFFCURVE",
"442 -10 OFFCURVE",
"469 -10 CURVE SMOOTH",
"495 -10 OFFCURVE",
"514 6 OFFCURVE",
"519 33 CURVE SMOOTH",
"564 292 LINE SMOOTH",
"587 417 OFFCURVE",
"524 500 OFFCURVE",
"401 500 CURVE SMOOTH",
"308 500 OFFCURVE",
"237 459 OFFCURVE",
"183 403 CURVE",
"238 716 LINE SMOOTH",
"243 743 OFFCURVE",
"230 759 OFFCURVE",
"204 759 CURVE SMOOTH",
"178 759 OFFCURVE",
"160 743 OFFCURVE",
"155 716 CURVE SMOOTH",
"35 33 LINE SMOOTH",
"30 6 OFFCURVE",
"42 -10 OFFCURVE",
"68 -10 CURVE SMOOTH"
);
}
);
width = 620;
}
);
leftKerningGroup = n;
note = h;
rightKerningGroup = n;
unicode = 0068;
},
{
glyphname = i;
lastChange = "2018-03-10 10:10:30 +0000";
layers = (
{
anchors = (
{
name = bottom;
position = "{86, 0}";
}
);
layerId = "0B1DFD06-3317-40CA-B510-4969A0718C16";
paths = (
{
closed = 1;
nodes = (
"101 -10 OFFCURVE",
"111 2 OFFCURVE",
"115 22 CURVE SMOOTH",
"194 468 LINE SMOOTH",
"197 488 OFFCURVE",
"191 500 OFFCURVE",
"173 500 CURVE SMOOTH",
"155 500 OFFCURVE",
"146 488 OFFCURVE",
"143 468 CURVE SMOOTH",
"64 22 LINE SMOOTH",
"60 2 OFFCURVE",
"65 -10 OFFCURVE",
"83 -10 CURVE SMOOTH"
);
},
{
closed = 1;
nodes = (
"210 586 OFFCURVE",
"236 607 OFFCURVE",
"240 628 CURVE SMOOTH",
"243 649 OFFCURVE",
"225 670 OFFCURVE",
"203 670 CURVE SMOOTH",
"180 670 OFFCURVE",
"157 649 OFFCURVE",
"154 628 CURVE SMOOTH",
"150 607 OFFCURVE",
"165 586 OFFCURVE",
"188 586 CURVE SMOOTH"
);
}
);
width = 256;
},
{
anchors = (
{
name = bottom;
position = "{92, 0}";
}
);
layerId = "258BB4CE-589F-454F-8E39-237B943AA0B4";
paths = (
{
closed = 1;
nodes = (
"129 -10 OFFCURVE",
"160 12 OFFCURVE",
"167 50 CURVE SMOOTH",
"236 440 LINE SMOOTH",
"242 478 OFFCURVE",
"219 500 OFFCURVE",
"180 500 CURVE SMOOTH",
"141 500 OFFCURVE",
"111 479 OFFCURVE",
"105 440 CURVE SMOOTH",
"36 50 LINE SMOOTH",
"29 11 OFFCURVE",
"51 -10 OFFCURVE",
"90 -10 CURVE"
);
},
{
closed = 1;
nodes = (
"238 550 OFFCURVE",
"277 580 OFFCURVE",
"285 624 CURVE SMOOTH",
"293 668 OFFCURVE",
"264 698 OFFCURVE",
"214 698 CURVE SMOOTH",
"165 698 OFFCURVE",
"127 668 OFFCURVE",
"119 624 CURVE SMOOTH",
"111 580 OFFCURVE",
"139 550 OFFCURVE",
"188 550 CURVE SMOOTH"
);
}
);
width = 266;
},
{
anchors = (
{
name = bottom;
position = "{88, 0}";
}
);
layerId = "8ED59CAD-D047-43C0-8308-3370007B39AA";
paths = (
{
closed = 1;
nodes = (
"112 -10 OFFCURVE",
"130 6 OFFCURVE",
"135 33 CURVE SMOOTH",
"210 457 LINE SMOOTH",
"214 484 OFFCURVE",
"202 500 OFFCURVE",
"175 500 CURVE SMOOTH",
"149 500 OFFCURVE",
"131 484 OFFCURVE",
"127 457 CURVE SMOOTH",
"52 33 LINE SMOOTH",
"47 6 OFFCURVE",
"59 -10 OFFCURVE",
"85 -10 CURVE SMOOTH"
);
},
{
closed = 1;
nodes = (
"221 572 OFFCURVE",
"252 596 OFFCURVE",
"257 626 CURVE SMOOTH",
"263 657 OFFCURVE",
"240 681 OFFCURVE",
"207 681 CURVE SMOOTH",
"174 681 OFFCURVE",
"145 657 OFFCURVE",
"139 626 CURVE SMOOTH",
"134 596 OFFCURVE",
"155 572 OFFCURVE",
"188 572 CURVE SMOOTH"
);
}
);
width = 258;
}
);
note = i;
unicode = 0069;
},
{
glyphname = j;
lastChange = "2018-03-10 10:10:30 +0000";
layers = (
{
layerId = "0B1DFD06-3317-40CA-B510-4969A0718C16";
paths = (
{
closed = 1;
nodes = (
"104 -292 OFFCURVE",
"140 -226 OFFCURVE",
"158 -124 CURVE SMOOTH",
"264 468 LINE SMOOTH",
"267 488 OFFCURVE",
"261 500 OFFCURVE",
"243 500 CURVE SMOOTH",
"225 500 OFFCURVE",
"216 488 OFFCURVE",
"213 468 CURVE SMOOTH",
"107 -124 LINE SMOOTH",
"91 -216 OFFCURVE",
"63 -243 OFFCURVE",
"-24 -243 CURVE SMOOTH",
"-39 -243 OFFCURVE",
"-51 -252 OFFCURVE",
"-54 -267 CURVE SMOOTH",
"-57 -282 OFFCURVE",
"-47 -292 OFFCURVE",
"-32 -292 CURVE SMOOTH"
);
},
{
closed = 1;
nodes = (
"280 586 OFFCURVE",
"306 607 OFFCURVE",
"310 628 CURVE SMOOTH",
"313 649 OFFCURVE",
"295 670 OFFCURVE",
"273 670 CURVE SMOOTH",
"250 670 OFFCURVE",
"227 649 OFFCURVE",
"224 628 CURVE SMOOTH",
"220 607 OFFCURVE",
"235 586 OFFCURVE",
"258 586 CURVE SMOOTH"
);
}
);
width = 326;
},
{
layerId = "258BB4CE-589F-454F-8E39-237B943AA0B4";
paths = (
{
closed = 1;
nodes = (
"140 -292 OFFCURVE",
"205 -229 OFFCURVE",
"228 -96 CURVE SMOOTH",
"323 440 LINE SMOOTH",
"329 478 OFFCURVE",
"306 500 OFFCURVE",
"267 500 CURVE SMOOTH",
"228 500 OFFCURVE",
"198 479 OFFCURVE",
"192 440 CURVE SMOOTH",
"97 -96 LINE SMOOTH",
"83 -177 OFFCURVE",
"65 -187 OFFCURVE",
"5 -187 CURVE SMOOTH",
"-29 -187 OFFCURVE",
"-58 -207 OFFCURVE",
"-64 -239 CURVE SMOOTH",
"-70 -271 OFFCURVE",
"-47 -292 OFFCURVE",
"-13 -292 CURVE SMOOTH"
);
},
{
closed = 1;
nodes = (
"325 550 OFFCURVE",
"364 580 OFFCURVE",
"372 624 CURVE SMOOTH",
"380 668 OFFCURVE",
"351 698 OFFCURVE",
"301 698 CURVE SMOOTH",
"252 698 OFFCURVE",
"214 668 OFFCURVE",
"206 624 CURVE SMOOTH",
"198 580 OFFCURVE",
"226 550 OFFCURVE",
"275 550 CURVE SMOOTH"
);
}
);
width = 353;
},
{
layerId = "8ED59CAD-D047-43C0-8308-3370007B39AA";
paths = (
{
closed = 1;
nodes = (
"123 -292 OFFCURVE",
"172 -227 OFFCURVE",
"192 -113 CURVE SMOOTH",
"294 457 LINE SMOOTH",
"298 484 OFFCURVE",
"285 500 OFFCURVE",
"259 500 CURVE SMOOTH",
"232 500 OFFCURVE",
"215 484 OFFCURVE",
"211 457 CURVE SMOOTH",
"109 -113 LINE SMOOTH",
"94 -200 OFFCURVE",
"70 -221 OFFCURVE",
"-6 -221 CURVE SMOOTH",
"-29 -221 OFFCURVE",
"-48 -234 OFFCURVE",
"-52 -256 CURVE SMOOTH",
"-56 -278 OFFCURVE",
"-41 -292 OFFCURVE",
"-18 -292 CURVE SMOOTH"
);
},
{
closed = 1;
nodes = (
"304 572 OFFCURVE",
"335 596 OFFCURVE",
"340 626 CURVE SMOOTH",
"346 657 OFFCURVE",
"323 681 OFFCURVE",
"290 681 CURVE SMOOTH",
"257 681 OFFCURVE",
"228 657 OFFCURVE",
"222 626 CURVE SMOOTH",
"217 596 OFFCURVE",
"238 572 OFFCURVE",
"271 572 CURVE SMOOTH"
);
}
);
width = 341;
}
);
note = j;
unicode = 006A;
},
{
glyphname = k;
lastChange = "2018-03-10 10:10:30 +0000";
layers = (
{
anchors = (
{
name = bottom;
position = "{267, 0}";
},
{
name = top;
position = "{399, 750}";
}
);
layerId = "0B1DFD06-3317-40CA-B510-4969A0718C16";
paths = (
{
closed = 1;
nodes = (
"85 -10 OFFCURVE",
"95 -2 OFFCURVE",
"99 22 CURVE SMOOTH",
"139 248 LINE",
"293 317 LINE",
"401 248 OFFCURVE",
"453 167 OFFCURVE",
"459 11 CURVE SMOOTH",
"460 -2 OFFCURVE",
"470 -10 OFFCURVE",
"487 -10 CURVE SMOOTH",
"502 -10 OFFCURVE",
"511 2 OFFCURVE",
"511 21 CURVE SMOOTH",
"509 166 OFFCURVE",
"437 273 OFFCURVE",
"345 341 CURVE",
"590 454 LINE SMOOTH",
"605 461 OFFCURVE",
"610 474 OFFCURVE",
"603 489 CURVE SMOOTH",
"598 500 OFFCURVE",
"587 503 OFFCURVE",
"573 497 CURVE SMOOTH",
"149 305 LINE",
"223 727 LINE SMOOTH",
"227 747 OFFCURVE",
"221 759 OFFCURVE",
"203 759 CURVE SMOOTH",
"185 759 OFFCURVE",
"177 752 OFFCURVE",
"173 732 CURVE SMOOTH",
"48 22 LINE SMOOTH",
"44 2 OFFCURVE",
"49 -10 OFFCURVE",
"67 -10 CURVE SMOOTH"
);
}
);
width = 619;
},
{
anchors = (
{
name = bottom;
position = "{273, 0}";
},
{
name = top;
position = "{405, 750}";
}
);
layerId = "258BB4CE-589F-454F-8E39-237B943AA0B4";
paths = (
{
closed = 1;
nodes = (
"111 -10 OFFCURVE",
"142 12 OFFCURVE",
"149 50 CURVE SMOOTH",
"175 201 LINE",
"284 257 LINE",
"358 199 OFFCURVE",
"396 156 OFFCURVE",
"407 33 CURVE SMOOTH",
"410 5 OFFCURVE",
"433 -10 OFFCURVE",
"466 -10 CURVE SMOOTH",
"506 -10 OFFCURVE",
"536 15 OFFCURVE",
"535 54 CURVE SMOOTH",
"530 167 OFFCURVE",
"481 237 OFFCURVE",
"393 310 CURVE",
"563 396 LINE SMOOTH",
"596 413 OFFCURVE",
"609 437 OFFCURVE",
"597 473 CURVE SMOOTH",
"588 501 OFFCURVE",
"559 510 OFFCURVE",
"518 489 CURVE SMOOTH",
"197 326 LINE",
"263 699 LINE SMOOTH",
"270 737 OFFCURVE",
"247 759 OFFCURVE",
"208 759 CURVE SMOOTH",
"169 759 OFFCURVE",
"139 738 OFFCURVE",
"132 699 CURVE SMOOTH",
"18 50 LINE SMOOTH",
"11 11 OFFCURVE",
"33 -10 OFFCURVE",
"72 -10 CURVE SMOOTH"
);
}
);
width = 608;
},
{
anchors = (
{
name = bottom;
position = "{268, 0}";
},
{
name = top;
position = "{400, 750}";
}
);
layerId = "8ED59CAD-D047-43C0-8308-3370007B39AA";
paths = (
{
closed = 1;
nodes = (
"94 -10 OFFCURVE",
"113 6 OFFCURVE",
"118 33 CURVE SMOOTH",
"152 229 LINE",
"289 293 LINE",
"383 224 OFFCURVE",
"427 150 OFFCURVE",
"438 20 CURVE SMOOTH",
"439 0 OFFCURVE",
"452 -10 OFFCURVE",
"475 -10 CURVE SMOOTH",
"502 -10 OFFCURVE",
"517 9 OFFCURVE",
"516 34 CURVE SMOOTH",
"513 166 OFFCURVE",
"454 259 OFFCURVE",
"363 329 CURVE",
"578 431 LINE SMOOTH",
"600 441 OFFCURVE",
"607 462 OFFCURVE",
"600 483 CURVE SMOOTH",
"594 499 OFFCURVE",
"575 506 OFFCURVE",
"550 494 CURVE SMOOTH",
"167 313 LINE",
"238 716 LINE SMOOTH",
"243 743 OFFCURVE",
"230 759 OFFCURVE",
"204 759 CURVE SMOOTH",
"178 759 OFFCURVE",
"160 743 OFFCURVE",
"155 716 CURVE SMOOTH",
"35 33 LINE SMOOTH",
"30 6 OFFCURVE",
"42 -10 OFFCURVE",
"68 -10 CURVE SMOOTH"
);
}
);
width = 607;
}
);
note = k;
unicode = 006B;
},
{
glyphname = l;
lastChange = "2018-03-10 10:10:30 +0000";
layers = (
{
anchors = (
{
name = bottom;
position = "{70, 0}";
},
{
name = center;
position = "{136, 375}";
},
{
name = top;
position = "{202, 750}";
},
{
name = topright;
position = "{287, 750}";
}
);
layerId = "0B1DFD06-3317-40CA-B510-4969A0718C16";
paths = (
{
closed = 1;
nodes = (
"85 -10 OFFCURVE",
"95 2 OFFCURVE",
"99 22 CURVE SMOOTH",
"223 727 LINE SMOOTH",
"227 747 OFFCURVE",
"221 759 OFFCURVE",
"203 759 CURVE SMOOTH",
"185 759 OFFCURVE",
"176 747 OFFCURVE",
"172 727 CURVE SMOOTH",
"48 22 LINE SMOOTH",
"44 2 OFFCURVE",
"49 -10 OFFCURVE",
"67 -10 CURVE SMOOTH"
);
}
);
width = 222;
},
{
anchors = (
{
name = bottom;
position = "{75, 0}";
},
{
name = center;
position = "{141, 375}";
},
{
name = top;
position = "{207, 750}";
},
{
name = topright;
position = "{292, 750}";
}
);
layerId = "258BB4CE-589F-454F-8E39-237B943AA0B4";
paths = (
{
closed = 1;
nodes = (
"111 -10 OFFCURVE",
"142 12 OFFCURVE",
"149 50 CURVE SMOOTH",
"263 699 LINE SMOOTH",
"270 737 OFFCURVE",
"247 759 OFFCURVE",
"208 759 CURVE SMOOTH",
"169 759 OFFCURVE",
"139 738 OFFCURVE",
"132 699 CURVE SMOOTH",
"18 50 LINE SMOOTH",
"11 11 OFFCURVE",
"33 -10 OFFCURVE",
"72 -10 CURVE SMOOTH"
);
}
);
width = 232;
},
{
anchors = (
{
name = bottom;
position = "{71, 0}";
},
{
name = center;
position = "{137, 375}";
},
{
name = top;
position = "{203, 750}";
},
{
name = topright;
position = "{288, 750}";
}
);
layerId = "8ED59CAD-D047-43C0-8308-3370007B39AA";
paths = (
{
closed = 1;
nodes = (
"94 -10 OFFCURVE",
"113 6 OFFCURVE",
"118 33 CURVE SMOOTH",
"238 716 LINE SMOOTH",
"243 743 OFFCURVE",
"230 759 OFFCURVE",
"204 759 CURVE SMOOTH",
"178 759 OFFCURVE",
"160 743 OFFCURVE",
"155 716 CURVE SMOOTH",
"35 33 LINE SMOOTH",
"30 6 OFFCURVE",
"42 -10 OFFCURVE",
"68 -10 CURVE SMOOTH"
);
}
);
width = 224;
}
);
note = l;
unicode = 006C;
},
{
glyphname = m;
lastChange = "2018-03-10 10:10:30 +0000";
layers = (
{
anchors = (
{
name = bottom;
position = "{381, 0}";
},
{
name = top;
position = "{464, 470}";
}
);
layerId = "0B1DFD06-3317-40CA-B510-4969A0718C16";
paths = (
{
closed = 1;
nodes = (
"84 -10 OFFCURVE",
"94 2 OFFCURVE",
"98 22 CURVE SMOOTH",
"139 255 LINE SMOOTH",
"162 383 OFFCURVE",
"258 452 OFFCURVE",
"342 452 CURVE SMOOTH",
"417 452 OFFCURVE",
"436 398 OFFCURVE",
"419 303 CURVE SMOOTH",
"370 22 LINE SMOOTH",
"366 2 OFFCURVE",
"371 -10 OFFCURVE",
"389 -10 CURVE SMOOTH",
"407 -10 OFFCURVE",
"417 2 OFFCURVE",
"421 22 CURVE SMOOTH",
"476 336 LINE",
"520 412 OFFCURVE",
"585 452 OFFCURVE",
"649 452 CURVE SMOOTH",
"727 452 OFFCURVE",
"745 411 OFFCURVE",
"729 316 CURVE SMOOTH",
"677 22 LINE SMOOTH",
"673 2 OFFCURVE",
"678 -10 OFFCURVE",
"696 -10 CURVE SMOOTH",
"714 -10 OFFCURVE",
"724 2 OFFCURVE",
"728 22 CURVE SMOOTH",
"780 316 LINE SMOOTH",
"800 433 OFFCURVE",
"762 500 OFFCURVE",
"657 500 CURVE SMOOTH",
"590 500 OFFCURVE",
"520 456 OFFCURVE",
"467 396 CURVE",
"457 459 OFFCURVE",
"418 500 OFFCURVE",
"350 500 CURVE SMOOTH",
"282 500 OFFCURVE",
"212 460 OFFCURVE",
"164 397 CURVE",
"177 468 LINE SMOOTH",
"180 488 OFFCURVE",
"174 500 OFFCURVE",
"156 500 CURVE SMOOTH",
"138 500 OFFCURVE",
"129 488 OFFCURVE",
"126 468 CURVE SMOOTH",
"47 22 LINE SMOOTH",
"43 2 OFFCURVE",
"48 -10 OFFCURVE",
"66 -10 CURVE SMOOTH"
);
}
);
width = 846;
},
{
anchors = (
{
name = bottom;
position = "{386, 0}";
},
{
name = top;
position = "{469, 470}";
}
);
guideLines = (
{
position = "{849, 416}";
}
);
layerId = "258BB4CE-589F-454F-8E39-237B943AA0B4";
paths = (
{
closed = 1;
nodes = (
"110 -10 OFFCURVE",
"141 12 OFFCURVE",
"148 50 CURVE SMOOTH",
"184 257 LINE SMOOTH",
"200 344 OFFCURVE",
"246 396 OFFCURVE",
"309 396 CURVE SMOOTH",
"358 396 OFFCURVE",
"370 351 OFFCURVE",
"356 275 CURVE SMOOTH",
"317 50 LINE SMOOTH",
"310 11 OFFCURVE",
"332 -10 OFFCURVE",
"371 -10 CURVE SMOOTH",
"410 -10 OFFCURVE",
"441 12 OFFCURVE",
"448 50 CURVE SMOOTH",
"497 329 LINE",
"530 376 OFFCURVE",
"562 396 OFFCURVE",
"601 396 CURVE SMOOTH",
"644 396 OFFCURVE",
"664 364 OFFCURVE",
"652 296 CURVE SMOOTH",
"609 50 LINE SMOOTH",
"602 11 OFFCURVE",
"624 -10 OFFCURVE",
"663 -10 CURVE SMOOTH",
"702 -10 OFFCURVE",
"733 12 OFFCURVE",
"740 50 CURVE SMOOTH",
"782 288 LINE SMOOTH",
"805 416 OFFCURVE",
"751 500 OFFCURVE",
"644 500 CURVE SMOOTH",
"579 500 OFFCURVE",
"523 469 OFFCURVE",
"468 416 CURVE",
"455 469 OFFCURVE",
"411 500 OFFCURVE",
"356 500 CURVE SMOOTH",
"302 500 OFFCURVE",
"253 470 OFFCURVE",
"212 416 CURVE",
"217 440 LINE SMOOTH",
"223 478 OFFCURVE",
"200 500 OFFCURVE",
"161 500 CURVE SMOOTH",
"122 500 OFFCURVE",
"92 479 OFFCURVE",
"86 440 CURVE SMOOTH",
"17 50 LINE SMOOTH",
"10 11 OFFCURVE",
"32 -10 OFFCURVE",
"71 -10 CURVE SMOOTH"
);
}
);
width = 818;
},
{
anchors = (
{
name = bottom;
position = "{382, 0}";
},
{
name = top;
position = "{465, 470}";
}
);
layerId = "8ED59CAD-D047-43C0-8308-3370007B39AA";
paths = (
{
closed = 1;
nodes = (
"93 -10 OFFCURVE",
"112 6 OFFCURVE",
"117 33 CURVE SMOOTH",
"156 256 LINE SMOOTH",
"176 367 OFFCURVE",
"252 430 OFFCURVE",
"328 430 CURVE SMOOTH",
"388 430 OFFCURVE",
"409 379 OFFCURVE",
"393 292 CURVE SMOOTH",
"348 33 LINE SMOOTH",
"343 6 OFFCURVE",
"354 -10 OFFCURVE",
"381 -10 CURVE SMOOTH",
"407 -10 OFFCURVE",
"426 6 OFFCURVE",
"431 33 CURVE SMOOTH",
"484 333 LINE",
"523 398 OFFCURVE",
"575 430 OFFCURVE",
"629 430 CURVE SMOOTH",
"693 430 OFFCURVE",
"712 392 OFFCURVE",
"697 308 CURVE SMOOTH",
"649 33 LINE SMOOTH",
"644 6 OFFCURVE",
"655 -10 OFFCURVE",
"682 -10 CURVE SMOOTH",
"708 -10 OFFCURVE",
"727 6 OFFCURVE",
"732 33 CURVE SMOOTH",
"780 305 LINE SMOOTH",
"801 428 OFFCURVE",
"758 500 OFFCURVE",
"648 500 CURVE SMOOTH",
"582 500 OFFCURVE",
"519 462 OFFCURVE",
"466 405 CURVE",
"454 464 OFFCURVE",
"411 500 OFFCURVE",
"348 500 CURVE SMOOTH",
"286 500 OFFCURVE",
"228 464 OFFCURVE",
"182 405 CURVE",
"192 457 LINE SMOOTH",
"196 484 OFFCURVE",
"183 500 OFFCURVE",
"157 500 CURVE SMOOTH",
"131 500 OFFCURVE",
"113 484 OFFCURVE",
"109 457 CURVE SMOOTH",
"34 33 LINE SMOOTH",
"29 6 OFFCURVE",
"41 -10 OFFCURVE",
"67 -10 CURVE SMOOTH"
);
}
);
width = 833;
}
);
leftKerningGroup = n;
note = m;
rightKerningGroup = n;
unicode = 006D;
},
{
glyphname = n;
lastChange = "2018-03-10 10:10:30 +0000";
layers = (
{
anchors = (
{
name = bottom;
position = "{268, 0}";
},
{
name = top;
position = "{351, 470}";
}
);
layerId = "0B1DFD06-3317-40CA-B510-4969A0718C16";
paths = (
{
closed = 1;
nodes = (
"84 -10 OFFCURVE",
"94 2 OFFCURVE",
"98 22 CURVE SMOOTH",
"139 255 LINE SMOOTH",
"162 383 OFFCURVE",
"268 452 OFFCURVE",
"382 452 CURVE SMOOTH",
"495 452 OFFCURVE",
"516 398 OFFCURVE",
"499 303 CURVE SMOOTH",
"450 22 LINE SMOOTH",
"446 2 OFFCURVE",
"451 -10 OFFCURVE",
"469 -10 CURVE SMOOTH",
"487 -10 OFFCURVE",
"497 2 OFFCURVE",
"501 22 CURVE SMOOTH",
"550 303 LINE SMOOTH",
"572 430 OFFCURVE",
"518 500 OFFCURVE",
"388 500 CURVE SMOOTH",
"290 500 OFFCURVE",
"216 453 OFFCURVE",
"164 397 CURVE",
"177 468 LINE SMOOTH",
"180 488 OFFCURVE",
"174 500 OFFCURVE",
"156 500 CURVE SMOOTH",
"138 500 OFFCURVE",
"129 488 OFFCURVE",
"126 468 CURVE SMOOTH",
"47 22 LINE SMOOTH",
"43 2 OFFCURVE",
"48 -10 OFFCURVE",
"66 -10 CURVE SMOOTH"
);
}
);
width = 619;
},
{
anchors = (
{
name = bottom;
position = "{273, 0}";
},
{
name = top;
position = "{356, 470}";
}
);
layerId = "258BB4CE-589F-454F-8E39-237B943AA0B4";
paths = (
{
closed = 1;
nodes = (
"110 -10 OFFCURVE",
"141 12 OFFCURVE",
"148 50 CURVE SMOOTH",
"179 227 LINE SMOOTH",
"198 333 OFFCURVE",
"268 396 OFFCURVE",
"369 396 CURVE SMOOTH",
"450 396 OFFCURVE",
"467 350 OFFCURVE",
"453 275 CURVE SMOOTH",
"414 50 LINE SMOOTH",
"407 11 OFFCURVE",
"429 -10 OFFCURVE",
"468 -10 CURVE SMOOTH",
"507 -10 OFFCURVE",
"538 12 OFFCURVE",
"545 50 CURVE SMOOTH",
"584 275 LINE SMOOTH",
"609 412 OFFCURVE",
"540 500 OFFCURVE",
"417 500 CURVE SMOOTH",
"331 500 OFFCURVE",
"264 468 OFFCURVE",
"207 411 CURVE",
"213 440 LINE SMOOTH",
"219 478 OFFCURVE",
"198 500 OFFCURVE",
"159 500 CURVE SMOOTH",
"120 500 OFFCURVE",
"92 479 OFFCURVE",
"86 440 CURVE SMOOTH",
"17 50 LINE SMOOTH",
"10 11 OFFCURVE",
"32 -10 OFFCURVE",
"71 -10 CURVE SMOOTH"
);
}
);
width = 623;
},
{
anchors = (
{
name = bottom;
position = "{269, 0}";
},
{
name = top;
position = "{352, 470}";
}
);
layerId = "8ED59CAD-D047-43C0-8308-3370007B39AA";
paths = (
{
closed = 1;
nodes = (
"93 -10 OFFCURVE",
"112 6 OFFCURVE",
"117 33 CURVE SMOOTH",
"154 244 LINE SMOOTH",
"175 363 OFFCURVE",
"267 430 OFFCURVE",
"376 430 CURVE SMOOTH",
"473 430 OFFCURVE",
"496 379 OFFCURVE",
"480 292 CURVE SMOOTH",
"435 33 LINE SMOOTH",
"430 6 OFFCURVE",
"441 -10 OFFCURVE",
"468 -10 CURVE SMOOTH",
"494 -10 OFFCURVE",
"513 6 OFFCURVE",
"518 33 CURVE SMOOTH",
"563 292 LINE SMOOTH",
"586 417 OFFCURVE",
"525 500 OFFCURVE",
"400 500 CURVE SMOOTH",
"307 500 OFFCURVE",
"234 459 OFFCURVE",
"180 403 CURVE",
"190 457 LINE SMOOTH",
"194 484 OFFCURVE",
"183 500 OFFCURVE",
"156 500 CURVE SMOOTH",
"130 500 OFFCURVE",
"113 484 OFFCURVE",
"109 457 CURVE SMOOTH",
"34 33 LINE SMOOTH",
"29 6 OFFCURVE",
"41 -10 OFFCURVE",
"67 -10 CURVE SMOOTH"
);
}
);
width = 619;
}
);
leftKerningGroup = n;
note = n;
rightKerningGroup = n;
unicode = 006E;
},
{
glyphname = o;
lastChange = "2018-03-10 10:10:30 +0000";
layers = (
{
anchors = (
{
name = bottom;
position = "{277, 0}";
},
{
name = center;
position = "{318, 235}";
},
{
name = ogonek;
position = "{530, 10}";
},
{
name = top;
position = "{360, 470}";
},
{
name = topright;
position = "{563, 470}";
}
);
layerId = "0B1DFD06-3317-40CA-B510-4969A0718C16";
paths = (
{
closed = 1;
nodes = (
"470 -10 OFFCURVE",
"561 111 OFFCURVE",
"585 245 CURVE SMOOTH",
"607 370 OFFCURVE",
"542 500 OFFCURVE",
"364 500 CURVE SMOOTH",
"173 500 OFFCURVE",
"81 378 OFFCURVE",
"57 245 CURVE SMOOTH",
"34 118 OFFCURVE",
"109 -10 OFFCURVE",
"278 -10 CURVE SMOOTH"
);
},
{
closed = 1;
nodes = (
"160 38 OFFCURVE",
"86 111 OFFCURVE",
"109 245 CURVE SMOOTH",
"132 379 OFFCURVE",
"227 452 OFFCURVE",
"358 452 CURVE SMOOTH",
"483 452 OFFCURVE",
"557 379 OFFCURVE",
"533 245 CURVE SMOOTH",
"509 111 OFFCURVE",
"410 38 OFFCURVE",
"285 38 CURVE SMOOTH"
);
}
);
width = 638;
},
{
anchors = (
{
name = bottom;
position = "{297, 0}";
},
{
name = center;
position = "{338, 235}";
},
{
name = ogonek;
position = "{550, 10}";
},
{
name = top;
position = "{380, 470}";
},
{
name = topright;
position = "{582, 463}";
}
);
layerId = "258BB4CE-589F-454F-8E39-237B943AA0B4";
paths = (
{
closed = 1;
nodes = (
"497 -10 OFFCURVE",
"611 90 OFFCURVE",
"638 245 CURVE SMOOTH",
"666 400 OFFCURVE",
"549 500 OFFCURVE",
"374 500 CURVE SMOOTH",
"181 500 OFFCURVE",
"70 400 OFFCURVE",
"42 245 CURVE SMOOTH",
"15 90 OFFCURVE",
"130 -10 OFFCURVE",
"305 -10 CURVE SMOOTH"
);
},
{
closed = 1;
nodes = (
"204 94 OFFCURVE",
"157 150 OFFCURVE",
"174 245 CURVE SMOOTH",
"191 340 OFFCURVE",
"265 396 OFFCURVE",
"367 396 CURVE SMOOTH",
"478 396 OFFCURVE",
"523 340 OFFCURVE",
"506 245 CURVE SMOOTH",
"489 150 OFFCURVE",
"416 94 OFFCURVE",
"314 94 CURVE SMOOTH"
);
}
);
width = 676;
},
{
anchors = (
{
name = bottom;
position = "{282, 0}";
},
{
name = center;
position = "{323, 235}";
},
{
name = ogonek;
position = "{535, 10}";
},
{
name = top;
position = "{365, 470}";
},
{
name = topright;
position = "{527, 467}";
}
);
layerId = "8ED59CAD-D047-43C0-8308-3370007B39AA";
paths = (
{
closed = 1;
nodes = (
"479 -10 OFFCURVE",
"578 108 OFFCURVE",
"602 245 CURVE SMOOTH",
"626 382 OFFCURVE",
"536 500 OFFCURVE",
"366 500 CURVE SMOOTH",
"170 500 OFFCURVE",
"71 382 OFFCURVE",
"47 245 CURVE SMOOTH",
"23 108 OFFCURVE",
"113 -10 OFFCURVE",
"284 -10 CURVE SMOOTH"
);
},
{
closed = 1;
nodes = (
"177 60 OFFCURVE",
"110 127 OFFCURVE",
"131 245 CURVE SMOOTH",
"152 363 OFFCURVE",
"242 430 OFFCURVE",
"358 430 CURVE SMOOTH",
"473 430 OFFCURVE",
"539 363 OFFCURVE",
"518 245 CURVE SMOOTH",
"497 127 OFFCURVE",
"408 60 OFFCURVE",
"293 60 CURVE SMOOTH"
);
}
);
width = 645;
}
);
note = o;
unicode = 006F;
},
{
glyphname = p;
lastChange = "2018-03-10 10:10:30 +0000";
layers = (
{
anchors = (
{
name = bottom;
position = "{300, 0}";
},
{
name = top;
position = "{383, 470}";
}
);
layerId = "0B1DFD06-3317-40CA-B510-4969A0718C16";
paths = (
{
closed = 1;
nodes = (
"34 -299 OFFCURVE",
"44 -287 OFFCURVE",
"48 -267 CURVE",
"114 101 LINE",
"152 38 OFFCURVE",
"220 -10 OFFCURVE",
"319 -10 CURVE SMOOTH",
"509 -10 OFFCURVE",
"606 102 OFFCURVE",
"631 245 CURVE SMOOTH",
"658 400 OFFCURVE",
"581 500 OFFCURVE",
"409 500 CURVE SMOOTH",
"301 500 OFFCURVE",
"224 462 OFFCURVE",
"163 387 CURVE",
"178 468 LINE SMOOTH",
"182 488 OFFCURVE",
"175 500 OFFCURVE",
"157 500 CURVE SMOOTH",
"139 500 OFFCURVE",
"131 488 OFFCURVE",
"127 468 CURVE SMOOTH",
"-3 -267 LINE SMOOTH",
"-7 -287 OFFCURVE",
"-2 -299 OFFCURVE",
"16 -299 CURVE SMOOTH"
);
},
{
closed = 1;
nodes = (
"203 38 OFFCURVE",
"115 111 OFFCURVE",
"138 245 CURVE SMOOTH",
"160 372 OFFCURVE",
"259 452 OFFCURVE",
"401 452 CURVE SMOOTH",
"553 452 OFFCURVE",
"604 385 OFFCURVE",
"579 245 CURVE SMOOTH",
"557 122 OFFCURVE",
"469 38 OFFCURVE",
"328 38 CURVE SMOOTH"
);
}
);
width = 684;
},
{
anchors = (
{
name = bottom;
position = "{300, 0}";
},
{
name = top;
position = "{383, 470}";
}
);
layerId = "258BB4CE-589F-454F-8E39-237B943AA0B4";
paths = (
{
closed = 1;
nodes = (
"59 -299 OFFCURVE",
"90 -277 OFFCURVE",
"97 -239 CURVE SMOOTH",
"152 68 LINE",
"189 19 OFFCURVE",
"257 -10 OFFCURVE",
"328 -10 CURVE SMOOTH",
"498 -10 OFFCURVE",
"607 85 OFFCURVE",
"635 245 CURVE SMOOTH",
"663 405 OFFCURVE",
"570 500 OFFCURVE",
"413 500 CURVE SMOOTH",
"343 500 OFFCURVE",
"272 470 OFFCURVE",
"213 420 CURVE",
"217 440 LINE SMOOTH",
"223 478 OFFCURVE",
"200 500 OFFCURVE",
"161 500 CURVE SMOOTH",
"122 500 OFFCURVE",
"92 479 OFFCURVE",
"86 440 CURVE SMOOTH",
"-34 -239 LINE SMOOTH",
"-41 -278 OFFCURVE",
"-19 -299 OFFCURVE",
"20 -299 CURVE SMOOTH"
);
},
{
closed = 1;
nodes = (
"218 94 OFFCURVE",
"165 150 OFFCURVE",
"182 245 CURVE SMOOTH",
"199 340 OFFCURVE",
"271 396 OFFCURVE",
"375 396 CURVE SMOOTH",
"472 396 OFFCURVE",
"520 340 OFFCURVE",
"503 245 CURVE SMOOTH",
"486 150 OFFCURVE",
"419 94 OFFCURVE",
"322 94 CURVE SMOOTH"
);
}
);
width = 673;
},
{
anchors = (
{
name = bottom;
position = "{299, 0}";
},
{
name = top;
position = "{382, 470}";
}
);
layerId = "8ED59CAD-D047-43C0-8308-3370007B39AA";
paths = (
{
closed = 1;
nodes = (
"42 -299 OFFCURVE",
"61 -283 OFFCURVE",
"66 -256 CURVE",
"128 88 LINE",
"165 30 OFFCURVE",
"229 -10 OFFCURVE",
"322 -10 CURVE SMOOTH",
"503 -10 OFFCURVE",
"605 95 OFFCURVE",
"631 245 CURVE SMOOTH",
"659 402 OFFCURVE",
"574 500 OFFCURVE",
"409 500 CURVE SMOOTH",
"322 500 OFFCURVE",
"242 465 OFFCURVE",
"182 400 CURVE",
"192 457 LINE SMOOTH",
"196 484 OFFCURVE",
"183 500 OFFCURVE",
"157 500 CURVE SMOOTH",
"131 500 OFFCURVE",
"113 484 OFFCURVE",
"109 457 CURVE SMOOTH",
"-17 -256 LINE SMOOTH",
"-22 -283 OFFCURVE",
"-10 -299 OFFCURVE",
"16 -299 CURVE SMOOTH"
);
},
{
closed = 1;
nodes = (
"215 60 OFFCURVE",
"133 127 OFFCURVE",
"154 245 CURVE SMOOTH",
"174 359 OFFCURVE",
"262 430 OFFCURVE",
"389 430 CURVE SMOOTH",
"515 430 OFFCURVE",
"569 367 OFFCURVE",
"547 245 CURVE SMOOTH",
"527 133 OFFCURVE",
"447 60 OFFCURVE",
"324 60 CURVE SMOOTH"
);
}
);
width = 674;
}
);
leftKerningGroup = b;
note = p;
rightKerningGroup = b;
unicode = 0070;
},
{
glyphname = q;
lastChange = "2018-03-10 10:10:30 +0000";
layers = (
{
anchors = (
{
name = bottom;
position = "{301, 0}";
},
{
name = top;
position = "{384, 470}";
}
);
layerId = "0B1DFD06-3317-40CA-B510-4969A0718C16";
paths = (
{
closed = 1;
nodes = (
"498 -299 OFFCURVE",
"507 -287 OFFCURVE",
"511 -267 CURVE SMOOTH",
"641 468 LINE SMOOTH",
"644 488 OFFCURVE",
"639 500 OFFCURVE",
"621 500 CURVE SMOOTH",
"603 500 OFFCURVE",
"593 488 OFFCURVE",
"590 468 CURVE SMOOTH",
"575 387 LINE",
"540 462 OFFCURVE",
"472 500 OFFCURVE",
"366 500 CURVE SMOOTH",
"181 500 OFFCURVE",
"84 396 OFFCURVE",
"56 241 CURVE SMOOTH",
"30 92 OFFCURVE",
"114 -10 OFFCURVE",
"273 -10 CURVE SMOOTH",
"392 -10 OFFCURVE",
"465 35 OFFCURVE",
"524 101 CURVE",
"460 -267 LINE",
"456 -287 OFFCURVE",
"462 -299 OFFCURVE",
"480 -299 CURVE SMOOTH"
);
},
{
closed = 1;
nodes = (
"143 38 OFFCURVE",
"86 112 OFFCURVE",
"108 241 CURVE SMOOTH",
"133 381 OFFCURVE",
"222 452 OFFCURVE",
"361 452 CURVE SMOOTH",
"503 452 OFFCURVE",
"573 372 OFFCURVE",
"550 245 CURVE SMOOTH",
"527 111 OFFCURVE",
"396 38 OFFCURVE",
"283 38 CURVE SMOOTH"
);
}
);
width = 685;
},
{
anchors = (
{
name = bottom;
position = "{271, 0}";
},
{
name = top;
position = "{354, 470}";
}
);
layerId = "258BB4CE-589F-454F-8E39-237B943AA0B4";
paths = (
{
closed = 1;
nodes = (
"504 -299 OFFCURVE",
"534 -278 OFFCURVE",
"541 -239 CURVE SMOOTH",
"661 440 LINE SMOOTH",
"667 479 OFFCURVE",
"645 500 OFFCURVE",
"606 500 CURVE SMOOTH",
"567 500 OFFCURVE",
"536 478 OFFCURVE",
"530 440 CURVE SMOOTH",
"526 420 LINE",
"488 471 OFFCURVE",
"427 500 OFFCURVE",
"347 500 CURVE SMOOTH",
"179 500 OFFCURVE",
"70 405 OFFCURVE",
"42 245 CURVE SMOOTH",
"14 85 OFFCURVE",
"109 -10 OFFCURVE",
"258 -10 CURVE SMOOTH",
"340 -10 OFFCURVE",
"412 19 OFFCURVE",
"463 68 CURVE",
"410 -239 LINE SMOOTH",
"403 -277 OFFCURVE",
"426 -299 OFFCURVE",
"465 -299 CURVE SMOOTH"
);
},
{
closed = 1;
nodes = (
"206 94 OFFCURVE",
"157 150 OFFCURVE",
"174 245 CURVE SMOOTH",
"191 340 OFFCURVE",
"259 396 OFFCURVE",
"356 396 CURVE SMOOTH",
"460 396 OFFCURVE",
"512 340 OFFCURVE",
"495 245 CURVE SMOOTH",
"478 150 OFFCURVE",
"407 94 OFFCURVE",
"303 94 CURVE SMOOTH"
);
}
);
width = 675;
},
{
anchors = (
{
name = bottom;
position = "{284, 0}";
},
{
name = top;
position = "{367, 470}";
}
);
layerId = "8ED59CAD-D047-43C0-8308-3370007B39AA";
paths = (
{
closed = 1;
nodes = (
"495 -299 OFFCURVE",
"513 -283 OFFCURVE",
"518 -256 CURVE SMOOTH",
"644 457 LINE SMOOTH",
"648 484 OFFCURVE",
"636 500 OFFCURVE",
"610 500 CURVE SMOOTH",
"584 500 OFFCURVE",
"565 484 OFFCURVE",
"561 457 CURVE SMOOTH",
"551 400 LINE",
"514 466 OFFCURVE",
"449 500 OFFCURVE",
"358 500 CURVE SMOOTH",
"171 500 OFFCURVE",
"74 400 OFFCURVE",
"46 243 CURVE SMOOTH",
"19 89 OFFCURVE",
"107 -10 OFFCURVE",
"263 -10 CURVE SMOOTH",
"368 -10 OFFCURVE",
"438 30 OFFCURVE",
"495 88 CURVE",
"435 -256 LINE",
"430 -283 OFFCURVE",
"443 -299 OFFCURVE",
"469 -299 CURVE SMOOTH"
);
},
{
closed = 1;
nodes = (
"167 60 OFFCURVE",
"109 127 OFFCURVE",
"130 243 CURVE SMOOTH",
"151 365 OFFCURVE",
"228 430 OFFCURVE",
"354 430 CURVE SMOOTH",
"481 430 OFFCURVE",
"543 359 OFFCURVE",
"523 245 CURVE SMOOTH",
"502 127 OFFCURVE",
"395 60 OFFCURVE",
"286 60 CURVE SMOOTH"
);
}
);
width = 675;
}
);
leftKerningGroup = d;
note = q;
rightKerningGroup = d;
unicode = 0071;
},
{
glyphname = r;
lastChange = "2018-03-10 10:10:30 +0000";
layers = (
{
anchors = (
{
name = bottom;
position = "{70, 0}";
},
{
name = top;
position = "{153, 470}";
}
);
layerId = "0B1DFD06-3317-40CA-B510-4969A0718C16";
paths = (
{
closed = 1;
nodes = (
"84 -10 OFFCURVE",
"94 2 OFFCURVE",
"98 22 CURVE SMOOTH",
"139 255 LINE SMOOTH",
"161 379 OFFCURVE",
"256 442 OFFCURVE",
"370 442 CURVE SMOOTH",
"396 442 LINE SMOOTH",
"413 442 OFFCURVE",
"428 448 OFFCURVE",
"431 466 CURVE SMOOTH",
"434 484 OFFCURVE",
"421 490 OFFCURVE",
"404 490 CURVE SMOOTH",
"378 490 LINE SMOOTH",
"280 490 OFFCURVE",
"216 453 OFFCURVE",
"164 397 CURVE",
"177 468 LINE SMOOTH",
"180 488 OFFCURVE",
"174 500 OFFCURVE",
"156 500 CURVE SMOOTH",
"138 500 OFFCURVE",
"129 488 OFFCURVE",
"126 468 CURVE SMOOTH",
"47 22 LINE SMOOTH",
"43 2 OFFCURVE",
"48 -10 OFFCURVE",
"66 -10 CURVE SMOOTH"
);
}
);
width = 435;
},
{
anchors = (
{
name = bottom;
position = "{73, 0}";
},
{
name = top;
position = "{236, 470}";
}
);
layerId = "258BB4CE-589F-454F-8E39-237B943AA0B4";
paths = (
{
closed = 1;
nodes = (
"110 -10 OFFCURVE",
"141 12 OFFCURVE",
"148 50 CURVE SMOOTH",
"179 227 LINE SMOOTH",
"197 331 OFFCURVE",
"269 386 OFFCURVE",
"353 386 CURVE SMOOTH",
"387 386 LINE SMOOTH",
"429 386 OFFCURVE",
"457 405 OFFCURVE",
"463 438 CURVE SMOOTH",
"469 471 OFFCURVE",
"447 490 OFFCURVE",
"405 490 CURVE SMOOTH",
"383 490 LINE SMOOTH",
"315 490 OFFCURVE",
"254 457 OFFCURVE",
"207 407 CURVE",
"213 440 LINE SMOOTH",
"219 478 OFFCURVE",
"198 500 OFFCURVE",
"159 500 CURVE SMOOTH",
"120 500 OFFCURVE",
"92 479 OFFCURVE",
"86 440 CURVE SMOOTH",
"17 50 LINE SMOOTH",
"10 11 OFFCURVE",
"32 -10 OFFCURVE",
"71 -10 CURVE SMOOTH"
);
}
);
width = 447;
},
{
anchors = (
{
name = bottom;
position = "{70, 0}";
},
{
name = top;
position = "{185, 470}";
}
);
layerId = "8ED59CAD-D047-43C0-8308-3370007B39AA";
paths = (
{
closed = 1;
nodes = (
"93 -10 OFFCURVE",
"112 6 OFFCURVE",
"117 33 CURVE SMOOTH",
"154 244 LINE SMOOTH",
"174 360 OFFCURVE",
"260 420 OFFCURVE",
"362 420 CURVE SMOOTH",
"391 420 LINE SMOOTH",
"418 420 OFFCURVE",
"439 431 OFFCURVE",
"443 455 CURVE SMOOTH",
"447 479 OFFCURVE",
"430 490 OFFCURVE",
"403 490 CURVE SMOOTH",
"379 490 LINE SMOOTH",
"293 490 OFFCURVE",
"230 455 OFFCURVE",
"180 401 CURVE",
"190 457 LINE SMOOTH",
"194 484 OFFCURVE",
"183 500 OFFCURVE",
"156 500 CURVE SMOOTH",
"130 500 OFFCURVE",
"113 484 OFFCURVE",
"109 457 CURVE SMOOTH",
"34 33 LINE SMOOTH",
"29 6 OFFCURVE",
"41 -10 OFFCURVE",
"67 -10 CURVE SMOOTH"
);
}
);
width = 439;
}
);
leftKerningGroup = r;
note = r;
rightKerningGroup = r;
unicode = 0072;
},
{
glyphname = s;
lastChange = "2018-03-10 10:10:30 +0000";
layers = (
{
anchors = (
{
name = bottom;
position = "{237, 0}";
},
{
name = top;
position = "{304, 470}";
}
);
layerId = "0B1DFD06-3317-40CA-B510-4969A0718C16";
paths = (
{
closed = 1;
nodes = (
"345 -9 OFFCURVE",
"428 28 OFFCURVE",
"445 119 CURVE SMOOTH",
"460 197 OFFCURVE",
"403 231 OFFCURVE",
"281 274 CURVE SMOOTH",
"205 301 OFFCURVE",
"152 311 OFFCURVE",
"163 373 CURVE SMOOTH",
"171 422 OFFCURVE",
"219 451 OFFCURVE",
"301 451 CURVE SMOOTH",
"378 451 OFFCURVE",
"407 429 OFFCURVE",
"434 395 CURVE SMOOTH",
"443 383 OFFCURVE",
"453 380 OFFCURVE",
"469 387 CURVE SMOOTH",
"485 394 OFFCURVE",
"490 411 OFFCURVE",
"482 423 CURVE SMOOTH",
"453 467 OFFCURVE",
"386 500 OFFCURVE",
"309 500 CURVE SMOOTH",
"192 500 OFFCURVE",
"122 449 OFFCURVE",
"109 375 CURVE SMOOTH",
"93 282 OFFCURVE",
"173 259 OFFCURVE",
"251 230 CURVE SMOOTH",
"357 191 OFFCURVE",
"404 177 OFFCURVE",
"394 119 CURVE SMOOTH",
"385 64 OFFCURVE",
"327 40 OFFCURVE",
"248 40 CURVE SMOOTH",
"182 40 OFFCURVE",
"127 64 OFFCURVE",
"87 115 CURVE SMOOTH",
"76 129 OFFCURVE",
"67 137 OFFCURVE",
"49 128 CURVE SMOOTH",
"33 120 OFFCURVE",
"29 107 OFFCURVE",
"37 94 CURVE SMOOTH",
"81 23 OFFCURVE",
"168 -9 OFFCURVE",
"242 -9 CURVE SMOOTH"
);
}
);
width = 520;
},
{
anchors = (
{
name = bottom;
position = "{259, 0}";
},
{
name = top;
position = "{322, 470}";
}
);
layerId = "258BB4CE-589F-454F-8E39-237B943AA0B4";
paths = (
{
closed = 1;
nodes = (
"417 -9 OFFCURVE",
"484 60 OFFCURVE",
"496 130 CURVE SMOOTH",
"509 207 OFFCURVE",
"474 250 OFFCURVE",
"347 291 CURVE SMOOTH",
"257 320 OFFCURVE",
"215 334 OFFCURVE",
"220 365 CURVE SMOOTH",
"224 387 OFFCURVE",
"250 398 OFFCURVE",
"296 398 CURVE SMOOTH",
"345 398 OFFCURVE",
"388 384 OFFCURVE",
"412 360 CURVE SMOOTH",
"432 340 OFFCURVE",
"461 326 OFFCURVE",
"495 346 CURVE SMOOTH",
"525 364 OFFCURVE",
"535 390 OFFCURVE",
"519 419 CURVE SMOOTH",
"491 470 OFFCURVE",
"400 500 OFFCURVE",
"306 500 CURVE SMOOTH",
"173 500 OFFCURVE",
"102 445 OFFCURVE",
"88 365 CURVE SMOOTH",
"72 275 OFFCURVE",
"153 236 OFFCURVE",
"261 200 CURVE SMOOTH",
"353 170 OFFCURVE",
"370 156 OFFCURVE",
"365 130 CURVE SMOOTH",
"361 107 OFFCURVE",
"329 93 OFFCURVE",
"291 93 CURVE SMOOTH",
"217 93 OFFCURVE",
"168 110 OFFCURVE",
"126 156 CURVE SMOOTH",
"105 179 OFFCURVE",
"80 181 OFFCURVE",
"53 164 CURVE SMOOTH",
"21 144 OFFCURVE",
"8 110 OFFCURVE",
"30 84 CURVE SMOOTH",
"82 22 OFFCURVE",
"178 -9 OFFCURVE",
"283 -9 CURVE SMOOTH"
);
}
);
width = 555;
},
{
anchors = (
{
name = bottom;
position = "{241, 0}";
},
{
name = top;
position = "{307, 470}";
}
);
layerId = "8ED59CAD-D047-43C0-8308-3370007B39AA";
paths = (
{
closed = 1;
nodes = (
"366 -9 OFFCURVE",
"447 44 OFFCURVE",
"461 123 CURVE",
"475 203 OFFCURVE",
"427 239 OFFCURVE",
"304 281 CURVE SMOOTH",
"221 309 OFFCURVE",
"172 320 OFFCURVE",
"181 370 CURVE SMOOTH",
"188 408 OFFCURVE",
"227 430 OFFCURVE",
"294 430 CURVE SMOOTH",
"360 430 OFFCURVE",
"394 411 OFFCURVE",
"419 381 CURVE SMOOTH",
"432 364 OFFCURVE",
"452 358 OFFCURVE",
"475 371 CURVE SMOOTH",
"496 382 OFFCURVE",
"502 403 OFFCURVE",
"492 421 CURVE SMOOTH",
"465 469 OFFCURVE",
"386 500 OFFCURVE",
"302 500 CURVE SMOOTH",
"184 500 OFFCURVE",
"110 447 OFFCURVE",
"96 371 CURVE SMOOTH",
"80 279 OFFCURVE",
"160 250 OFFCURVE",
"250 218 CURVE SMOOTH",
"350 183 OFFCURVE",
"386 169 OFFCURVE",
"378 123 CURVE SMOOTH",
"370 79 OFFCURVE",
"316 61 OFFCURVE",
"259 61 CURVE SMOOTH",
"191 61 OFFCURVE",
"135 79 OFFCURVE",
"98 129 CURVE SMOOTH",
"84 147 OFFCURVE",
"73 153 OFFCURVE",
"50 144 CURVE SMOOTH",
"27 133 OFFCURVE",
"16 109 OFFCURVE",
"29 90 CURVE SMOOTH",
"70 26 OFFCURVE",
"157 -9 OFFCURVE",
"251 -9 CURVE SMOOTH"
);
}
);
width = 526;
}
);
leftKerningGroup = s;
note = s;
rightKerningGroup = s;
unicode = 0073;
},
{
glyphname = t;
lastChange = "2018-03-10 10:10:30 +0000";
layers = (
{
anchors = (
{
name = bottom;
position = "{213, 0}";
},
{
name = center;
position = "{212, 235}";
},
{
name = top;
position = "{254, 470}";
},
{
name = topright;
position = "{441, 470}";
}
);
layerId = "0B1DFD06-3317-40CA-B510-4969A0718C16";
paths = (
{
closed = 1;
nodes = (
"281 -10 OFFCURVE",
"324 19 OFFCURVE",
"350 49 CURVE SMOOTH",
"362 62 OFFCURVE",
"365 77 OFFCURVE",
"354 87 CURVE SMOOTH",
"343 98 OFFCURVE",
"330 94 OFFCURVE",
"315 80 CURVE SMOOTH",
"292 58 OFFCURVE",
"266 38 OFFCURVE",
"220 38 CURVE SMOOTH",
"174 38 OFFCURVE",
"143 58 OFFCURVE",
"155 126 CURVE SMOOTH",
"251 667 LINE SMOOTH",
"254 687 OFFCURVE",
"249 699 OFFCURVE",
"231 699 CURVE SMOOTH",
"213 699 OFFCURVE",
"203 687 OFFCURVE",
"200 667 CURVE SMOOTH",
"105 130 LINE SMOOTH",
"89 40 OFFCURVE",
"145 -10 OFFCURVE",
"211 -10 CURVE SMOOTH"
);
},
{
closed = 1;
nodes = (
"364 455 LINE SMOOTH",
"383 455 OFFCURVE",
"395 460 OFFCURVE",
"398 478 CURVE SMOOTH",
"401 493 OFFCURVE",
"392 500 OFFCURVE",
"372 500 CURVE SMOOTH",
"112 500 LINE SMOOTH",
"92 500 OFFCURVE",
"81 493 OFFCURVE",
"78 478 CURVE SMOOTH",
"75 460 OFFCURVE",
"85 455 OFFCURVE",
"104 455 CURVE SMOOTH"
);
}
);
width = 425;
},
{
anchors = (
{
name = bottom;
position = "{258, 0}";
},
{
name = center;
position = "{266, 235}";
},
{
name = top;
position = "{308, 470}";
},
{
name = topright;
position = "{495, 470}";
}
);
layerId = "258BB4CE-589F-454F-8E39-237B943AA0B4";
paths = (
{
closed = 1;
nodes = (
"332 -10 OFFCURVE",
"390 15 OFFCURVE",
"429 55 CURVE SMOOTH",
"455 82 OFFCURVE",
"449 104 OFFCURVE",
"430 123 CURVE SMOOTH",
"410 143 OFFCURVE",
"390 145 OFFCURVE",
"357 118 CURVE SMOOTH",
"337 102 OFFCURVE",
"320 94 OFFCURVE",
"294 94 CURVE SMOOTH",
"264 94 OFFCURVE",
"247 112 OFFCURVE",
"252 142 CURVE SMOOTH",
"340 639 LINE SMOOTH",
"347 678 OFFCURVE",
"324 699 OFFCURVE",
"285 699 CURVE SMOOTH",
"246 699 OFFCURVE",
"215 677 OFFCURVE",
"209 639 CURVE SMOOTH",
"123 153 LINE SMOOTH",
"105 51 OFFCURVE",
"170 -10 OFFCURVE",
"265 -10 CURVE SMOOTH"
);
},
{
closed = 1;
nodes = (
"391 387 LINE SMOOTH",
"428 387 OFFCURVE",
"460 404 OFFCURVE",
"466 438 CURVE SMOOTH",
"472 473 OFFCURVE",
"447 490 OFFCURVE",
"409 490 CURVE SMOOTH",
"141 490 LINE SMOOTH",
"103 490 OFFCURVE",
"72 473 OFFCURVE",
"66 438 CURVE SMOOTH",
"60 404 OFFCURVE",
"86 387 OFFCURVE",
"123 387 CURVE SMOOTH"
);
}
);
width = 502;
},
{
anchors = (
{
name = bottom;
position = "{233, 0}";
},
{
name = center;
position = "{236, 235}";
},
{
name = top;
position = "{278, 470}";
},
{
name = topright;
position = "{465, 470}";
}
);
layerId = "8ED59CAD-D047-43C0-8308-3370007B39AA";
paths = (
{
closed = 1;
nodes = (
"297 -10 OFFCURVE",
"354 20 OFFCURVE",
"384 55 CURVE SMOOTH",
"401 75 OFFCURVE",
"404 91 OFFCURVE",
"390 104 CURVE SMOOTH",
"375 119 OFFCURVE",
"356 114 OFFCURVE",
"334 95 CURVE SMOOTH",
"312 76 OFFCURVE",
"290 60 OFFCURVE",
"252 60 CURVE SMOOTH",
"206 60 OFFCURVE",
"187 80 OFFCURVE",
"196 132 CURVE SMOOTH",
"289 656 LINE SMOOTH",
"293 683 OFFCURVE",
"281 699 OFFCURVE",
"255 699 CURVE SMOOTH",
"228 699 OFFCURVE",
"210 683 OFFCURVE",
"206 656 CURVE SMOOTH",
"115 139 LINE SMOOTH",
"97 38 OFFCURVE",
"162 -10 OFFCURVE",
"235 -10 CURVE SMOOTH"
);
},
{
closed = 1;
nodes = (
"377 428 LINE SMOOTH",
"403 428 OFFCURVE",
"423 438 OFFCURVE",
"427 462 CURVE SMOOTH",
"432 485 OFFCURVE",
"416 496 OFFCURVE",
"389 496 CURVE SMOOTH",
"125 496 LINE SMOOTH",
"98 496 OFFCURVE",
"80 485 OFFCURVE",
"75 462 CURVE SMOOTH",
"71 438 OFFCURVE",
"87 428 OFFCURVE",
"113 428 CURVE SMOOTH"
);
}
);
width = 461;
}
);
note = t;
unicode = 0074;
},
{
glyphname = u;
lastChange = "2018-03-10 10:10:30 +0000";
layers = (
{
anchors = (
{
name = bottom;
position = "{268, 0}";
},
{
name = ogonek;
position = "{482, 10}";
},
{
name = top;
position = "{351, 470}";
},
{
name = topright;
position = "{557, 470}";
}
);
layerId = "0B1DFD06-3317-40CA-B510-4969A0718C16";
paths = (
{
closed = 1;
nodes = (
"329 -10 OFFCURVE",
"406 37 OFFCURVE",
"457 93 CURVE",
"445 22 LINE SMOOTH",
"441 2 OFFCURVE",
"447 -10 OFFCURVE",
"465 -10 CURVE SMOOTH",
"483 -10 OFFCURVE",
"492 2 OFFCURVE",
"496 22 CURVE SMOOTH",
"575 468 LINE SMOOTH",
"578 488 OFFCURVE",
"573 500 OFFCURVE",
"555 500 CURVE SMOOTH",
"537 500 OFFCURVE",
"527 488 OFFCURVE",
"524 468 CURVE SMOOTH",
"482 235 LINE SMOOTH",
"460 107 OFFCURVE",
"354 38 OFFCURVE",
"250 38 CURVE SMOOTH",
"138 38 OFFCURVE",
"104 87 OFFCURVE",
"124 197 CURVE SMOOTH",
"172 468 LINE SMOOTH",
"175 488 OFFCURVE",
"170 500 OFFCURVE",
"152 500 CURVE SMOOTH",
"134 500 OFFCURVE",
"124 488 OFFCURVE",
"121 468 CURVE SMOOTH",
"73 197 LINE SMOOTH",
"50 68 OFFCURVE",
"114 -10 OFFCURVE",
"241 -10 CURVE SMOOTH"
);
}
);
width = 619;
},
{
anchors = (
{
name = bottom;
position = "{263, 0}";
},
{
name = ogonek;
position = "{488, 10}";
},
{
name = top;
position = "{346, 470}";
},
{
name = topright;
position = "{593, 420}";
}
);
layerId = "258BB4CE-589F-454F-8E39-237B943AA0B4";
paths = (
{
closed = 1;
nodes = (
"311 -10 OFFCURVE",
"367 21 OFFCURVE",
"418 79 CURVE",
"413 50 LINE SMOOTH",
"406 12 OFFCURVE",
"427 -10 OFFCURVE",
"466 -10 CURVE SMOOTH",
"505 -10 OFFCURVE",
"533 11 OFFCURVE",
"540 50 CURVE SMOOTH",
"609 440 LINE SMOOTH",
"615 479 OFFCURVE",
"593 500 OFFCURVE",
"554 500 CURVE SMOOTH",
"515 500 OFFCURVE",
"484 478 OFFCURVE",
"478 440 CURVE SMOOTH",
"446 263 LINE SMOOTH",
"428 157 OFFCURVE",
"361 94 OFFCURVE",
"267 94 CURVE SMOOTH",
"194 94 OFFCURVE",
"159 139 OFFCURVE",
"172 215 CURVE SMOOTH",
"212 440 LINE SMOOTH",
"218 479 OFFCURVE",
"196 500 OFFCURVE",
"157 500 CURVE SMOOTH",
"118 500 OFFCURVE",
"87 478 OFFCURVE",
"81 440 CURVE SMOOTH",
"41 215 LINE SMOOTH",
"16 74 OFFCURVE",
"102 -10 OFFCURVE",
"229 -10 CURVE SMOOTH"
);
}
);
width = 623;
},
{
anchors = (
{
name = bottom;
position = "{266, 0}";
},
{
name = ogonek;
position = "{484, 10}";
},
{
name = top;
position = "{349, 470}";
},
{
name = topright;
position = "{571, 450}";
}
);
layerId = "8ED59CAD-D047-43C0-8308-3370007B39AA";
paths = (
{
closed = 1;
nodes = (
"318 -10 OFFCURVE",
"388 31 OFFCURVE",
"441 87 CURVE",
"432 33 LINE SMOOTH",
"427 6 OFFCURVE",
"439 -10 OFFCURVE",
"465 -10 CURVE SMOOTH",
"492 -10 OFFCURVE",
"509 6 OFFCURVE",
"514 33 CURVE SMOOTH",
"589 457 LINE SMOOTH",
"593 484 OFFCURVE",
"581 500 OFFCURVE",
"555 500 CURVE SMOOTH",
"528 500 OFFCURVE",
"510 484 OFFCURVE",
"506 457 CURVE SMOOTH",
"468 246 LINE SMOOTH",
"447 127 OFFCURVE",
"357 60 OFFCURVE",
"257 60 CURVE SMOOTH",
"154 60 OFFCURVE",
"127 113 OFFCURVE",
"143 204 CURVE SMOOTH",
"188 457 LINE SMOOTH",
"192 484 OFFCURVE",
"180 500 OFFCURVE",
"154 500 CURVE SMOOTH",
"128 500 OFFCURVE",
"109 484 OFFCURVE",
"105 457 CURVE SMOOTH",
"60 204 LINE SMOOTH",
"36 69 OFFCURVE",
"111 -10 OFFCURVE",
"232 -10 CURVE SMOOTH"
);
}
);
width = 620;
}
);
note = u;
unicode = 0075;
},
{
glyphname = v;
lastChange = "2018-03-10 10:10:30 +0000";
layers = (
{
anchors = (
{
name = bottom;
position = "{286, 0}";
},
{
name = top;
position = "{369, 470}";
}
);
layerId = "0B1DFD06-3317-40CA-B510-4969A0718C16";
paths = (
{
closed = 1;
nodes = (
"380 -10 OFFCURVE",
"418 46 OFFCURVE",
"447 101 CURVE SMOOTH",
"640 464 LINE",
"647 479 OFFCURVE",
"643 495 OFFCURVE",
"629 500 CURVE",
"617 505 OFFCURVE",
"600 497 OFFCURVE",
"593 483 CURVE",
"402 122 LINE SMOOTH",
"377 75 OFFCURVE",
"344 35 OFFCURVE",
"293 35 CURVE SMOOTH",
"241 35 OFFCURVE",
"223 75 OFFCURVE",
"214 125 CURVE SMOOTH",
"150 483 LINE",
"149 497 OFFCURVE",
"134 505 OFFCURVE",
"119 500 CURVE",
"105 495 OFFCURVE",
"95 479 OFFCURVE",
"97 464 CURVE",
"161 113 LINE SMOOTH",
"174 42 OFFCURVE",
"211 -10 OFFCURVE",
"289 -10 CURVE SMOOTH"
);
}
);
width = 656;
},
{
anchors = (
{
name = bottom;
position = "{294, 0}";
},
{
name = top;
position = "{377, 470}";
}
);
layerId = "258BB4CE-589F-454F-8E39-237B943AA0B4";
paths = (
{
closed = 1;
nodes = (
"385 -10 OFFCURVE",
"437 22 OFFCURVE",
"493 123 CURVE SMOOTH",
"660 428 LINE SMOOTH",
"678 460 OFFCURVE",
"661 488 OFFCURVE",
"628 497 CURVE SMOOTH",
"591 507 OFFCURVE",
"558 496 OFFCURVE",
"542 466 CURVE SMOOTH",
"363 140 LINE SMOOTH",
"342 103 OFFCURVE",
"329 94 OFFCURVE",
"311 94 CURVE SMOOTH",
"293 94 OFFCURVE",
"282 103 OFFCURVE",
"275 140 CURVE SMOOTH",
"210 466 LINE SMOOTH",
"201 495 OFFCURVE",
"175 507 OFFCURVE",
"136 497 CURVE SMOOTH",
"99 488 OFFCURVE",
"71 460 OFFCURVE",
"78 428 CURVE SMOOTH",
"149 123 LINE SMOOTH",
"170 33 OFFCURVE",
"226 -10 OFFCURVE",
"302 -10 CURVE SMOOTH"
);
}
);
width = 669;
},
{
anchors = (
{
name = bottom;
position = "{285, 0}";
},
{
name = top;
position = "{368, 470}";
}
);
layerId = "8ED59CAD-D047-43C0-8308-3370007B39AA";
paths = (
{
closed = 1;
nodes = (
"369 -10 OFFCURVE",
"420 36 OFFCURVE",
"460 110 CURVE SMOOTH",
"643 450 LINE SMOOTH",
"655 471 OFFCURVE",
"644 491 OFFCURVE",
"622 499 CURVE SMOOTH",
"596 508 OFFCURVE",
"577 500 OFFCURVE",
"566 476 CURVE",
"380 129 LINE SMOOTH",
"357 86 OFFCURVE",
"333 59 OFFCURVE",
"295 59 CURVE SMOOTH",
"257 59 OFFCURVE",
"240 86 OFFCURVE",
"232 131 CURVE SMOOTH",
"168 476 LINE SMOOTH",
"164 496 OFFCURVE",
"144 506 OFFCURVE",
"119 499 CURVE SMOOTH",
"92 491 OFFCURVE",
"82 471 OFFCURVE",
"85 450 CURVE SMOOTH",
"148 112 LINE SMOOTH",
"162 36 OFFCURVE",
"207 -10 OFFCURVE",
"287 -10 CURVE SMOOTH"
);
}
);
width = 652;
}
);
note = v;
unicode = 0076;
},
{
glyphname = w;
lastChange = "2018-03-10 10:10:30 +0000";
layers = (
{
anchors = (
{
name = bottom;
position = "{345, 0}";
},
{
name = top;
position = "{428, 470}";
}
);
layerId = "0B1DFD06-3317-40CA-B510-4969A0718C16";
paths = (
{
closed = 1;
nodes = (
"228 -10 OFFCURVE",
"258 14 OFFCURVE",
"275 64 CURVE SMOOTH",
"400 424 LINE SMOOTH",
"407 444 OFFCURVE",
"414 452 OFFCURVE",
"426 452 CURVE SMOOTH",
"437 452 OFFCURVE",
"442 444 OFFCURVE",
"442 424 CURVE SMOOTH",
"439 64 LINE SMOOTH",
"439 12 OFFCURVE",
"471 -10 OFFCURVE",
"513 -10 CURVE SMOOTH",
"558 -10 OFFCURVE",
"588 11 OFFCURVE",
"608 64 CURVE SMOOTH",
"760 475 LINE SMOOTH",
"765 490 OFFCURVE",
"759 500 OFFCURVE",
"740 500 CURVE SMOOTH",
"721 500 OFFCURVE",
"715 494 OFFCURVE",
"709 479 CURVE SMOOTH",
"561 78 LINE SMOOTH",
"551 51 OFFCURVE",
"537 38 OFFCURVE",
"518 38 CURVE SMOOTH",
"492 38 OFFCURVE",
"486 51 OFFCURVE",
"487 78 CURVE SMOOTH",
"490 438 LINE SMOOTH",
"490 477 OFFCURVE",
"459 500 OFFCURVE",
"431 500 CURVE SMOOTH",
"397 500 OFFCURVE",
"369 482 OFFCURVE",
"354 438 CURVE SMOOTH",
"231 78 LINE SMOOTH",
"222 51 OFFCURVE",
"212 38 OFFCURVE",
"186 38 CURVE SMOOTH",
"167 38 OFFCURVE",
"158 51 OFFCURVE",
"157 78 CURVE SMOOTH",
"149 477 LINE SMOOTH",
"149 492 OFFCURVE",
"142 500 OFFCURVE",
"123 500 CURVE SMOOTH",
"105 500 OFFCURVE",
"98 490 OFFCURVE",
"98 475 CURVE SMOOTH",
"105 72 LINE SMOOTH",
"106 28 OFFCURVE",
"131 -10 OFFCURVE",
"178 -10 CURVE SMOOTH"
);
}
);
width = 773;
},
{
anchors = (
{
name = bottom;
position = "{383, 0}";
},
{
name = top;
position = "{466, 470}";
}
);
layerId = "258BB4CE-589F-454F-8E39-237B943AA0B4";
paths = (
{
closed = 1;
nodes = (
"293 -10 OFFCURVE",
"337 42 OFFCURVE",
"364 130 CURVE SMOOTH",
"440 376 LINE SMOOTH",
"445 393 OFFCURVE",
"451 396 OFFCURVE",
"458 396 CURVE SMOOTH",
"465 396 OFFCURVE",
"469 393 OFFCURVE",
"468 376 CURVE SMOOTH",
"458 130 LINE SMOOTH",
"454 42 OFFCURVE",
"481 -10 OFFCURVE",
"560 -10 CURVE SMOOTH",
"637 -10 OFFCURVE",
"684 38 OFFCURVE",
"718 122 CURVE SMOOTH",
"841 432 LINE SMOOTH",
"859 477 OFFCURVE",
"833 500 OFFCURVE",
"788 500 CURVE SMOOTH",
"749 500 OFFCURVE",
"715 484 OFFCURVE",
"703 447 CURVE SMOOTH",
"589 115 LINE SMOOTH",
"585 101 OFFCURVE",
"579 94 OFFCURVE",
"572 94 CURVE SMOOTH",
"564 94 OFFCURVE",
"560 101 OFFCURVE",
"560 114 CURVE SMOOTH",
"571 390 LINE SMOOTH",
"573 462 OFFCURVE",
"529 500 OFFCURVE",
"471 500 CURVE SMOOTH",
"393 500 OFFCURVE",
"355 462 OFFCURVE",
"333 390 CURVE SMOOTH",
"246 114 LINE SMOOTH",
"242 101 OFFCURVE",
"236 94 OFFCURVE",
"228 94 CURVE SMOOTH",
"221 94 OFFCURVE",
"217 101 OFFCURVE",
"217 115 CURVE SMOOTH",
"220 447 LINE SMOOTH",
"220 484 OFFCURVE",
"193 500 OFFCURVE",
"154 500 CURVE SMOOTH",
"109 500 OFFCURVE",
"75 477 OFFCURVE",
"77 432 CURVE SMOOTH",
"92 122 LINE SMOOTH",
"96 38 OFFCURVE",
"137 -10 OFFCURVE",
"214 -10 CURVE SMOOTH"
);
}
);
width = 848;
},
{
anchors = (
{
name = bottom;
position = "{355, 0}";
},
{
name = top;
position = "{438, 470}";
}
);
layerId = "8ED59CAD-D047-43C0-8308-3370007B39AA";
paths = (
{
closed = 1;
nodes = (
"241 -10 OFFCURVE",
"283 18 OFFCURVE",
"307 90 CURVE SMOOTH",
"412 405 LINE SMOOTH",
"418 424 OFFCURVE",
"426 430 OFFCURVE",
"435 430 CURVE SMOOTH",
"444 430 OFFCURVE",
"448 424 OFFCURVE",
"448 405 CURVE SMOOTH",
"443 90 LINE SMOOTH",
"442 18 OFFCURVE",
"473 -10 OFFCURVE",
"526 -10 CURVE SMOOTH",
"570 -10 OFFCURVE",
"620 16 OFFCURVE",
"647 87 CURVE SMOOTH",
"788 458 LINE SMOOTH",
"798 485 OFFCURVE",
"781 500 OFFCURVE",
"755 500 CURVE SMOOTH",
"725 500 OFFCURVE",
"710 490 OFFCURVE",
"702 466 CURVE SMOOTH",
"567 93 LINE SMOOTH",
"560 71 OFFCURVE",
"549 60 OFFCURVE",
"535 60 CURVE SMOOTH",
"516 60 OFFCURVE",
"511 71 OFFCURVE",
"511 92 CURVE SMOOTH",
"518 419 LINE SMOOTH",
"519 474 OFFCURVE",
"483 500 OFFCURVE",
"443 500 CURVE SMOOTH",
"394 500 OFFCURVE",
"359 474 OFFCURVE",
"341 419 CURVE SMOOTH",
"232 92 LINE SMOOTH",
"225 71 OFFCURVE",
"217 60 OFFCURVE",
"198 60 CURVE SMOOTH",
"184 60 OFFCURVE",
"176 71 OFFCURVE",
"176 93 CURVE SMOOTH",
"173 466 LINE SMOOTH",
"173 490 OFFCURVE",
"161 500 OFFCURVE",
"131 500 CURVE SMOOTH",
"106 500 OFFCURVE",
"84 485 OFFCURVE",
"85 458 CURVE SMOOTH",
"94 87 LINE SMOOTH",
"97 16 OFFCURVE",
"145 -10 OFFCURVE",
"189 -10 CURVE SMOOTH"
);
}
);
width = 795;
}
);
note = w;
unicode = 0077;
},
{
glyphname = x;
lastChange = "2018-03-10 10:10:30 +0000";
layers = (
{
anchors = (
{
name = bottom;
position = "{238, 0}";
},
{
name = top;
position = "{321, 470}";
}
);
layerId = "0B1DFD06-3317-40CA-B510-4969A0718C16";
paths = (
{
closed = 1;
nodes = (
"32 -13 OFFCURVE",
"54 -10 OFFCURVE",
"66 4 CURVE SMOOTH",
"201 169 LINE SMOOTH",
"228 202 OFFCURVE",
"242 227 OFFCURVE",
"278 227 CURVE SMOOTH",
"314 227 OFFCURVE",
"328 202 OFFCURVE",
"343 169 CURVE SMOOTH",
"420 4 LINE SMOOTH",
"426 -10 OFFCURVE",
"445 -13 OFFCURVE",
"457 -3 CURVE SMOOTH",
"471 8 OFFCURVE",
"468 25 OFFCURVE",
"462 38 CURVE SMOOTH",
"382 200 LINE SMOOTH",
"374 219 OFFCURVE",
"361 237 OFFCURVE",
"336 250 CURVE",
"367 261 OFFCURVE",
"386 281 OFFCURVE",
"402 302 CURVE SMOOTH",
"525 453 LINE SMOOTH",
"535 466 OFFCURVE",
"539 483 OFFCURVE",
"528 494 CURVE SMOOTH",
"519 503 OFFCURVE",
"500 502 OFFCURVE",
"487 489 CURVE SMOOTH",
"365 334 LINE SMOOTH",
"335 296 OFFCURVE",
"313 278 OFFCURVE",
"283 278 CURVE SMOOTH",
"255 278 OFFCURVE",
"238 296 OFFCURVE",
"221 334 CURVE SMOOTH",
"153 489 LINE SMOOTH",
"148 500 OFFCURVE",
"133 503 OFFCURVE",
"120 494 CURVE SMOOTH",
"105 484 OFFCURVE",
"104 470 OFFCURVE",
"110 457 CURVE SMOOTH",
"180 302 LINE SMOOTH",
"189 283 OFFCURVE",
"205 262 OFFCURVE",
"225 254 CURVE",
"198 240 OFFCURVE",
"180 219 OFFCURVE",
"164 200 CURVE SMOOTH",
"28 38 LINE SMOOTH",
"16 25 OFFCURVE",
"11 8 OFFCURVE",
"22 -3 CURVE SMOOTH"
);
}
);
width = 561;
},
{
anchors = (
{
name = bottom;
position = "{264, 0}";
},
{
name = top;
position = "{347, 470}";
}
);
layerId = "258BB4CE-589F-454F-8E39-237B943AA0B4";
paths = (
{
closed = 1;
nodes = (
"54 -18 OFFCURVE",
"99 -12 OFFCURVE",
"125 17 CURVE SMOOTH",
"245 149 LINE SMOOTH",
"274 180 OFFCURVE",
"285 194 OFFCURVE",
"293 194 CURVE SMOOTH",
"301 194 OFFCURVE",
"308 180 OFFCURVE",
"325 149 CURVE SMOOTH",
"399 17 LINE SMOOTH",
"415 -12 OFFCURVE",
"453 -19 OFFCURVE",
"484 3 CURVE SMOOTH",
"515 25 OFFCURVE",
"530 56 OFFCURVE",
"513 82 CURVE SMOOTH",
"442 195 LINE SMOOTH",
"426 221 OFFCURVE",
"410 239 OFFCURVE",
"396 251 CURVE",
"417 264 OFFCURVE",
"435 277 OFFCURVE",
"463 306 CURVE SMOOTH",
"562 407 LINE SMOOTH",
"582 427 OFFCURVE",
"579 463 OFFCURVE",
"550 484 CURVE SMOOTH",
"515 509 OFFCURVE",
"478 501 OFFCURVE",
"455 475 CURVE SMOOTH",
"343 353 LINE SMOOTH",
"316 323 OFFCURVE",
"311 315 OFFCURVE",
"302 315 CURVE SMOOTH",
"293 315 OFFCURVE",
"290 323 OFFCURVE",
"273 353 CURVE SMOOTH",
"205 475 LINE SMOOTH",
"190 502 OFFCURVE",
"152 507 OFFCURVE",
"119 490 CURVE SMOOTH",
"82 471 OFFCURVE",
"75 431 OFFCURVE",
"90 407 CURVE SMOOTH",
"153 306 LINE SMOOTH",
"171 277 OFFCURVE",
"185 264 OFFCURVE",
"200 251 CURVE",
"182 239 OFFCURVE",
"160 221 OFFCURVE",
"134 195 CURVE SMOOTH",
"23 82 LINE SMOOTH",
"-2 56 OFFCURVE",
"5 25 OFFCURVE",
"30 3 CURVE SMOOTH"
);
}
);
width = 592;
},
{
anchors = (
{
name = bottom;
position = "{244, 0}";
},
{
name = top;
position = "{327, 470}";
}
);
layerId = "8ED59CAD-D047-43C0-8308-3370007B39AA";
paths = (
{
closed = 1;
nodes = (
"36 -15 OFFCURVE",
"68 -11 OFFCURVE",
"85 9 CURVE SMOOTH",
"214 161 LINE SMOOTH",
"242 193 OFFCURVE",
"258 214 OFFCURVE",
"282 214 CURVE SMOOTH",
"307 214 OFFCURVE",
"315 193 OFFCURVE",
"331 161 CURVE SMOOTH",
"407 9 LINE SMOOTH",
"417 -11 OFFCURVE",
"443 -15 OFFCURVE",
"463 -1 CURVE SMOOTH",
"485 15 OFFCURVE",
"489 37 OFFCURVE",
"479 56 CURVE SMOOTH",
"402 198 LINE SMOOTH",
"391 220 OFFCURVE",
"377 238 OFFCURVE",
"358 252 CURVE",
"384 265 OFFCURVE",
"401 279 OFFCURVE",
"423 304 CURVE SMOOTH",
"536 435 LINE SMOOTH",
"551 452 OFFCURVE",
"552 476 OFFCURVE",
"535 491 CURVE SMOOTH",
"519 505 OFFCURVE",
"488 503 OFFCURVE",
"472 483 CURVE SMOOTH",
"354 342 LINE SMOOTH",
"325 307 OFFCURVE",
"310 293 OFFCURVE",
"288 293 CURVE SMOOTH",
"267 293 OFFCURVE",
"256 307 OFFCURVE",
"239 342 CURVE SMOOTH",
"171 483 LINE SMOOTH",
"162 502 OFFCURVE",
"135 505 OFFCURVE",
"116 491 CURVE SMOOTH",
"94 475 OFFCURVE",
"89 452 OFFCURVE",
"99 435 CURVE SMOOTH",
"166 304 LINE SMOOTH",
"178 279 OFFCURVE",
"191 265 OFFCURVE",
"211 252 CURVE",
"188 238 OFFCURVE",
"168 220 OFFCURVE",
"148 198 CURVE SMOOTH",
"22 56 LINE SMOOTH",
"5 37 OFFCURVE",
"5 14 OFFCURVE",
"21 -1 CURVE SMOOTH"
);
}
);
width = 565;
}
);
note = x;
unicode = 0078;
},
{
glyphname = y;
lastChange = "2018-03-10 10:10:30 +0000";
layers = (
{
anchors = (
{
name = bottom;
position = "{283, 0}";
},
{
name = top;
position = "{366, 470}";
}
);
layerId = "0B1DFD06-3317-40CA-B510-4969A0718C16";
paths = (
{
closed = 1;
nodes = (
"373 -250 OFFCURVE",
"501 -157 OFFCURVE",
"532 17 CURVE SMOOTH",
"610 461 LINE SMOOTH",
"613 476 OFFCURVE",
"611 500 OFFCURVE",
"586 500 CURVE SMOOTH",
"560 500 OFFCURVE",
"554 484 OFFCURVE",
"551 464 CURVE SMOOTH",
"515 256 LINE SMOOTH",
"492 125 OFFCURVE",
"413 43 OFFCURVE",
"279 43 CURVE SMOOTH",
"153 43 OFFCURVE",
"87 112 OFFCURVE",
"114 266 CURVE SMOOTH",
"150 471 LINE SMOOTH",
"153 487 OFFCURVE",
"143 498 OFFCURVE",
"129 499 CURVE SMOOTH",
"110 500 OFFCURVE",
"100 487 OFFCURVE",
"97 471 CURVE SMOOTH",
"61 266 LINE SMOOTH",
"33 109 OFFCURVE",
"107 -1 OFFCURVE",
"271 -1 CURVE SMOOTH",
"367 -1 OFFCURVE",
"440 35 OFFCURVE",
"492 95 CURVE",
"478 17 LINE SMOOTH",
"453 -121 OFFCURVE",
"352 -203 OFFCURVE",
"225 -203 CURVE SMOOTH",
"143 -203 OFFCURVE",
"92 -179 OFFCURVE",
"69 -142 CURVE SMOOTH",
"62 -131 OFFCURVE",
"48 -126 OFFCURVE",
"33 -134 CURVE SMOOTH",
"19 -142 OFFCURVE",
"12 -159 OFFCURVE",
"20 -170 CURVE SMOOTH",
"60 -225 OFFCURVE",
"132 -250 OFFCURVE",
"220 -250 CURVE SMOOTH"
);
}
);
width = 650;
},
{
anchors = (
{
name = bottom;
position = "{306, 0}";
},
{
name = top;
position = "{339, 470}";
}
);
layerId = "258BB4CE-589F-454F-8E39-237B943AA0B4";
paths = (
{
closed = 1;
nodes = (
"395 -250 OFFCURVE",
"498 -151 OFFCURVE",
"527 17 CURVE SMOOTH",
"600 433 LINE SMOOTH",
"607 475 OFFCURVE",
"590 500 OFFCURVE",
"547 500 CURVE SMOOTH",
"505 500 OFFCURVE",
"476 475 OFFCURVE",
"469 433 CURVE SMOOTH",
"436 242 LINE SMOOTH",
"419 146 OFFCURVE",
"361 90 OFFCURVE",
"280 90 CURVE SMOOTH",
"185 90 OFFCURVE",
"156 146 OFFCURVE",
"173 242 CURVE SMOOTH",
"208 444 LINE SMOOTH",
"214 477 OFFCURVE",
"187 500 OFFCURVE",
"153 500 CURVE SMOOTH",
"117 500 OFFCURVE",
"83 478 OFFCURVE",
"77 444 CURVE SMOOTH",
"42 242 LINE SMOOTH",
"15 84 OFFCURVE",
"110 -10 OFFCURVE",
"262 -10 CURVE SMOOTH",
"304 -10 OFFCURVE",
"365 9 OFFCURVE",
"405 42 CURVE",
"398 0 LINE SMOOTH",
"381 -99 OFFCURVE",
"319 -147 OFFCURVE",
"228 -147 CURVE SMOOTH",
"171 -147 OFFCURVE",
"131 -129 OFFCURVE",
"110 -101 CURVE SMOOTH",
"87 -71 OFFCURVE",
"56 -66 OFFCURVE",
"28 -86 CURVE SMOOTH",
"-3 -108 OFFCURVE",
"-12 -138 OFFCURVE",
"4 -165 CURVE SMOOTH",
"36 -219 OFFCURVE",
"114 -250 OFFCURVE",
"213 -250 CURVE SMOOTH"
);
}
);
width = 615;
},
{
anchors = (
{
name = bottom;
position = "{289, 0}";
},
{
name = top;
position = "{352, 470}";
}
);
layerId = "8ED59CAD-D047-43C0-8308-3370007B39AA";
paths = (
{
closed = 1;
nodes = (
"377 -250 OFFCURVE",
"496 -151 OFFCURVE",
"526 17 CURVE SMOOTH",
"602 450 LINE SMOOTH",
"607 476 OFFCURVE",
"600 500 OFFCURVE",
"568 500 CURVE SMOOTH",
"535 500 OFFCURVE",
"519 476 OFFCURVE",
"514 450 CURVE SMOOTH",
"479 250 LINE SMOOTH",
"458 133 OFFCURVE",
"388 62 OFFCURVE",
"275 62 CURVE SMOOTH",
"155 62 OFFCURVE",
"111 132 OFFCURVE",
"133 256 CURVE SMOOTH",
"169 460 LINE SMOOTH",
"173 483 OFFCURVE",
"157 499 OFFCURVE",
"135 499 CURVE SMOOTH",
"111 499 OFFCURVE",
"89 483 OFFCURVE",
"85 460 CURVE SMOOTH",
"49 256 LINE SMOOTH",
"21 99 OFFCURVE",
"109 -5 OFFCURVE",
"263 -5 CURVE SMOOTH",
"338 -5 OFFCURVE",
"406 25 OFFCURVE",
"453 74 CURVE",
"442 10 LINE SMOOTH",
"420 -112 OFFCURVE",
"335 -181 OFFCURVE",
"222 -181 CURVE SMOOTH",
"157 -181 OFFCURVE",
"104 -159 OFFCURVE",
"82 -126 CURVE SMOOTH",
"68 -107 OFFCURVE",
"47 -102 OFFCURVE",
"27 -115 CURVE SMOOTH",
"6 -128 OFFCURVE",
"0 -150 OFFCURVE",
"9 -168 CURVE SMOOTH",
"39 -222 OFFCURVE",
"121 -250 OFFCURVE",
"213 -250 CURVE SMOOTH"
);
}
);
width = 634;
}
);
note = y;
unicode = 0079;
},
{
glyphname = z;
lastChange = "2018-03-10 10:10:30 +0000";
layers = (
{
anchors = (
{
name = bottom;
position = "{230, 0}";
},
{
name = top;
position = "{313, 470}";
}
);
layerId = "0B1DFD06-3317-40CA-B510-4969A0718C16";
paths = (
{
closed = 1;
nodes = (
"412 0 LINE SMOOTH",
"438 0 OFFCURVE",
"452 7 OFFCURVE",
"455 25 CURVE SMOOTH",
"459 43 OFFCURVE",
"447 49 OFFCURVE",
"421 49 CURVE SMOOTH",
"125 49 LINE SMOOTH",
"87 49 OFFCURVE",
"71 63 OFFCURVE",
"76 88 CURVE SMOOTH",
"79 109 OFFCURVE",
"101 128 OFFCURVE",
"131 145 CURVE SMOOTH",
"443 319 LINE SMOOTH",
"493 347 OFFCURVE",
"511 370 OFFCURVE",
"518 413 CURVE SMOOTH",
"527 469 OFFCURVE",
"484 500 OFFCURVE",
"416 500 CURVE SMOOTH",
"140 500 LINE SMOOTH",
"114 500 OFFCURVE",
"100 494 OFFCURVE",
"97 475 CURVE SMOOTH",
"94 458 OFFCURVE",
"106 451 OFFCURVE",
"132 451 CURVE SMOOTH",
"417 451 LINE SMOOTH",
"462 451 OFFCURVE",
"474 434 OFFCURVE",
"469 410 CURVE SMOOTH",
"465 387 OFFCURVE",
"452 374 OFFCURVE",
"416 354 CURVE SMOOTH",
"103 177 LINE SMOOTH",
"60 152 OFFCURVE",
"37 128 OFFCURVE",
"29 85 CURVE SMOOTH",
"19 32 OFFCURVE",
"60 0 OFFCURVE",
"123 0 CURVE SMOOTH"
);
}
);
width = 547;
},
{
anchors = (
{
name = bottom;
position = "{245, 0}";
},
{
name = top;
position = "{328, 470}";
}
);
layerId = "258BB4CE-589F-454F-8E39-237B943AA0B4";
paths = (
{
closed = 1;
nodes = (
"436 0 LINE SMOOTH",
"479 0 OFFCURVE",
"510 15 OFFCURVE",
"516 52 CURVE SMOOTH",
"522 89 OFFCURVE",
"497 103 OFFCURVE",
"454 103 CURVE SMOOTH",
"165 103 LINE SMOOTH",
"152 103 OFFCURVE",
"146 111 OFFCURVE",
"147 121 CURVE SMOOTH",
"148 132 OFFCURVE",
"158 141 OFFCURVE",
"178 149 CURVE SMOOTH",
"464 257 LINE SMOOTH",
"518 277 OFFCURVE",
"551 310 OFFCURVE",
"563 376 CURVE SMOOTH",
"574 438 OFFCURVE",
"539 490 OFFCURVE",
"441 490 CURVE SMOOTH",
"170 490 LINE SMOOTH",
"126 490 OFFCURVE",
"96 475 OFFCURVE",
"89 438 CURVE SMOOTH",
"82 402 OFFCURVE",
"110 387 OFFCURVE",
"152 387 CURVE SMOOTH",
"412 387 LINE SMOOTH",
"427 387 OFFCURVE",
"435 378 OFFCURVE",
"433 367 CURVE SMOOTH",
"430 350 OFFCURVE",
"419 343 OFFCURVE",
"403 337 CURVE SMOOTH",
"117 229 LINE SMOOTH",
"61 208 OFFCURVE",
"31 174 OFFCURVE",
"19 116 CURVE SMOOTH",
"4 42 OFFCURVE",
"63 0 OFFCURVE",
"149 0 CURVE SMOOTH"
);
}
);
width = 588;
},
{
anchors = (
{
name = bottom;
position = "{233, 0}";
},
{
name = top;
position = "{316, 470}";
}
);
layerId = "8ED59CAD-D047-43C0-8308-3370007B39AA";
paths = (
{
closed = 1;
nodes = (
"418 0 LINE SMOOTH",
"451 0 OFFCURVE",
"472 10 OFFCURVE",
"476 36 CURVE SMOOTH",
"481 61 OFFCURVE",
"464 71 OFFCURVE",
"431 71 CURVE SMOOTH",
"138 71 LINE SMOOTH",
"110 71 OFFCURVE",
"97 82 OFFCURVE",
"101 101 CURVE SMOOTH",
"104 118 OFFCURVE",
"120 133 OFFCURVE",
"146 147 CURVE SMOOTH",
"448 294 LINE SMOOTH",
"495 317 OFFCURVE",
"524 348 OFFCURVE",
"533 396 CURVE SMOOTH",
"544 462 OFFCURVE",
"499 496 OFFCURVE",
"422 496 CURVE SMOOTH",
"148 496 LINE SMOOTH",
"115 496 OFFCURVE",
"95 486 OFFCURVE",
"90 460 CURVE SMOOTH",
"86 436 OFFCURVE",
"104 425 OFFCURVE",
"136 425 CURVE SMOOTH",
"411 425 LINE SMOOTH",
"444 425 OFFCURVE",
"455 412 OFFCURVE",
"451 393 CURVE SMOOTH",
"448 372 OFFCURVE",
"436 362 OFFCURVE",
"408 347 CURVE SMOOTH",
"106 198 LINE SMOOTH",
"57 174 OFFCURVE",
"29 144 OFFCURVE",
"21 99 CURVE SMOOTH",
"10 32 OFFCURVE",
"57 0 OFFCURVE",
"130 0 CURVE SMOOTH"
);
}
);
width = 556;
}
);
note = z;
unicode = 007A;
},
{
glyphname = AE;
lastChange = "2018-03-10 10:10:30 +0000";
layers = (
{
anchors = (
{
name = bottom;
position = "{537, 0}";
},
{
name = ogonek;
position = "{822, 10}";
},
{
name = top;
position = "{660, 700}";
},
{
name = topleft;
position = "{831, 700}";
}
);
layerId = "0B1DFD06-3317-40CA-B510-4969A0718C16";
paths = (
{
closed = 1;
nodes = (
"80 -10 OFFCURVE",
"91 2 OFFCURVE",
"95 22 CURVE SMOOTH",
"139 270 LINE",
"591 270 LINE",
"562 110 LINE SMOOTH",
"550 46 OFFCURVE",
"587 0 OFFCURVE",
"658 0 CURVE SMOOTH",
"990 0 LINE SMOOTH",
"1010 0 OFFCURVE",
"1021 8 OFFCURVE",
"1024 23 CURVE SMOOTH",
"1027 41 OFFCURVE",
"1017 47 OFFCURVE",
"998 47 CURVE SMOOTH",
"660 47 LINE SMOOTH",
"619 47 OFFCURVE",
"608 71 OFFCURVE",
"614 107 CURVE SMOOTH",
"654 334 LINE",
"951 334 LINE SMOOTH",
"971 334 OFFCURVE",
"982 342 OFFCURVE",
"985 357 CURVE SMOOTH",
"988 375 OFFCURVE",
"978 381 OFFCURVE",
"959 381 CURVE SMOOTH",
"662 381 LINE",
"700 593 LINE SMOOTH",
"706 629 OFFCURVE",
"725 653 OFFCURVE",
"767 653 CURVE SMOOTH",
"1083 653 LINE SMOOTH",
"1103 653 OFFCURVE",
"1115 661 OFFCURVE",
"1117 676 CURVE SMOOTH",
"1120 694 OFFCURVE",
"1110 700 OFFCURVE",
"1091 700 CURVE SMOOTH",
"781 700 LINE SMOOTH",
"700 700 OFFCURVE",
"666 665 OFFCURVE",
"650 599 CURVE",
"614 669 OFFCURVE",
"540 710 OFFCURVE",
"442 710 CURVE SMOOTH",
"263 710 OFFCURVE",
"147 615 OFFCURVE",
"114 429 CURVE SMOOTH",
"42 22 LINE SMOOTH",
"38 2 OFFCURVE",
"44 -10 OFFCURVE",
"62 -10 CURVE SMOOTH"
);
},
{
closed = 1;
nodes = (
"167 432 LINE SMOOTH",
"193 581 OFFCURVE",
"290 661 OFFCURVE",
"434 661 CURVE SMOOTH",
"576 661 OFFCURVE",
"645 581 OFFCURVE",
"619 432 CURVE SMOOTH",
"599 317 LINE",
"147 317 LINE"
);
}
);
width = 1116;
},
{
anchors = (
{
name = bottom;
position = "{498, 0}";
},
{
name = ogonek;
position = "{823, 10}";
},
{
name = top;
position = "{621, 700}";
},
{
name = topleft;
position = "{832, 700}";
}
);
layerId = "258BB4CE-589F-454F-8E39-237B943AA0B4";
paths = (
{
closed = 1;
nodes = (
"106 -9 OFFCURVE",
"139 13 OFFCURVE",
"146 51 CURVE SMOOTH",
"175 214 LINE",
"537 214 LINE",
"526 152 LINE SMOOTH",
"509 56 OFFCURVE",
"549 0 OFFCURVE",
"650 0 CURVE SMOOTH",
"956 0 LINE SMOOTH",
"992 0 OFFCURVE",
"1021 17 OFFCURVE",
"1027 51 CURVE SMOOTH",
"1033 86 OFFCURVE",
"1012 103 OFFCURVE",
"974 103 CURVE SMOOTH",
"684 103 LINE SMOOTH",
"657 103 OFFCURVE",
"644 121 OFFCURVE",
"650 152 CURVE SMOOTH",
"677 306 LINE",
"912 306 LINE SMOOTH",
"948 306 OFFCURVE",
"977 323 OFFCURVE",
"983 357 CURVE SMOOTH",
"989 392 OFFCURVE",
"968 409 OFFCURVE",
"930 409 CURVE SMOOTH",
"695 409 LINE",
"720 548 LINE SMOOTH",
"725 579 OFFCURVE",
"744 597 OFFCURVE",
"771 597 CURVE SMOOTH",
"1039 597 LINE SMOOTH",
"1075 597 OFFCURVE",
"1104 614 OFFCURVE",
"1110 648 CURVE SMOOTH",
"1116 683 OFFCURVE",
"1095 700 OFFCURVE",
"1057 700 CURVE SMOOTH",
"766 700 LINE SMOOTH",
"710 700 OFFCURVE",
"662 681 OFFCURVE",
"636 629 CURVE",
"592 681 OFFCURVE",
"524 710 OFFCURVE",
"438 710 CURVE SMOOTH",
"232 710 OFFCURVE",
"109 593 OFFCURVE",
"75 401 CURVE SMOOTH",
"13 51 LINE SMOOTH",
"6 13 OFFCURVE",
"29 -9 OFFCURVE",
"68 -9 CURVE SMOOTH"
);
},
{
closed = 1;
nodes = (
"208 404 LINE SMOOTH",
"232 537 OFFCURVE",
"303 605 OFFCURVE",
"425 605 CURVE SMOOTH",
"546 605 OFFCURVE",
"594 536 OFFCURVE",
"570 404 CURVE SMOOTH",
"555 317 LINE",
"193 317 LINE"
);
}
);
width = 1099;
},
{
anchors = (
{
name = bottom;
position = "{521, 0}";
},
{
name = ogonek;
position = "{822, 10}";
},
{
name = top;
position = "{644, 700}";
},
{
name = topleft;
position = "{831, 700}";
}
);
layerId = "8ED59CAD-D047-43C0-8308-3370007B39AA";
paths = (
{
closed = 1;
nodes = (
"90 -10 OFFCURVE",
"110 6 OFFCURVE",
"115 34 CURVE SMOOTH",
"153 248 LINE",
"569 248 LINE",
"547 127 LINE SMOOTH",
"534 52 OFFCURVE",
"572 0 OFFCURVE",
"661 0 CURVE SMOOTH",
"976 0 LINE SMOOTH",
"1002 0 OFFCURVE",
"1021 12 OFFCURVE",
"1025 34 CURVE SMOOTH",
"1029 59 OFFCURVE",
"1015 69 OFFCURVE",
"988 69 CURVE SMOOTH",
"669 69 LINE SMOOTH",
"637 69 OFFCURVE",
"622 91 OFFCURVE",
"628 125 CURVE SMOOTH",
"663 323 LINE",
"935 323 LINE SMOOTH",
"961 323 OFFCURVE",
"980 334 OFFCURVE",
"984 357 CURVE SMOOTH",
"988 382 OFFCURVE",
"974 392 OFFCURVE",
"947 392 CURVE SMOOTH",
"675 392 LINE",
"707 575 LINE SMOOTH",
"713 609 OFFCURVE",
"736 631 OFFCURVE",
"768 631 CURVE SMOOTH",
"1065 631 LINE SMOOTH",
"1091 631 OFFCURVE",
"1110 642 OFFCURVE",
"1114 665 CURVE SMOOTH",
"1119 690 OFFCURVE",
"1104 700 OFFCURVE",
"1077 700 CURVE SMOOTH",
"775 700 LINE SMOOTH",
"708 700 OFFCURVE",
"664 668 OFFCURVE",
"645 612 CURVE",
"605 674 OFFCURVE",
"530 710 OFFCURVE",
"437 710 CURVE SMOOTH",
"252 710 OFFCURVE",
"130 603 OFFCURVE",
"98 418 CURVE SMOOTH",
"30 34 LINE SMOOTH",
"25 6 OFFCURVE",
"38 -10 OFFCURVE",
"64 -10 CURVE SMOOTH"
);
},
{
closed = 1;
nodes = (
"183 421 LINE SMOOTH",
"208 563 OFFCURVE",
"295 639 OFFCURVE",
"430 639 CURVE SMOOTH",
"564 639 OFFCURVE",
"624 563 OFFCURVE",
"599 421 CURVE SMOOTH",
"581 317 LINE",
"165 317 LINE"
);
}
);
width = 1110;
}
);
leftKerningGroup = A;
note = AE;
rightKerningGroup = E;
unicode = 00C6;
},
{
glyphname = Eth;
lastChange = "2018-03-10 10:10:30 +0000";
layers = (
{
anchors = (
{
name = bottom;
position = "{371, 0}";
},
{
name = center;
position = "{433, 350}";
},
{
name = top;
position = "{494, 700}";
}
);
layerId = "0B1DFD06-3317-40CA-B510-4969A0718C16";
paths = (
{
closed = 1;
nodes = (
"351 0 LINE SMOOTH",
"535 0 OFFCURVE",
"698 115 OFFCURVE",
"740 349 CURVE SMOOTH",
"781 576 OFFCURVE",
"653 700 OFFCURVE",
"467 700 CURVE SMOOTH",
"328 700 LINE SMOOTH",
"246 700 OFFCURVE",
"205 657 OFFCURVE",
"193 590 CURVE SMOOTH",
"155 374 LINE",
"89 374 LINE SMOOTH",
"70 374 OFFCURVE",
"58 369 OFFCURVE",
"55 351 CURVE SMOOTH",
"52 336 OFFCURVE",
"61 329 OFFCURVE",
"81 329 CURVE SMOOTH",
"147 329 LINE",
"108 110 LINE SMOOTH",
"97 50 OFFCURVE",
"129 0 OFFCURVE",
"205 0 CURVE SMOOTH"
);
},
{
closed = 1;
nodes = (
"172 47 OFFCURVE",
"155 71 OFFCURVE",
"161 107 CURVE SMOOTH",
"200 329 LINE",
"371 329 LINE SMOOTH",
"391 329 OFFCURVE",
"402 336 OFFCURVE",
"405 351 CURVE SMOOTH",
"408 369 OFFCURVE",
"398 374 OFFCURVE",
"379 374 CURVE SMOOTH",
"208 374 LINE",
"247 593 LINE SMOOTH",
"253 629 OFFCURVE",
"279 653 OFFCURVE",
"314 653 CURVE SMOOTH",
"451 653 LINE SMOOTH",
"613 653 OFFCURVE",
"725 576 OFFCURVE",
"686 349 CURVE SMOOTH",
"649 131 OFFCURVE",
"504 47 OFFCURVE",
"344 47 CURVE SMOOTH",
"207 47 LINE SMOOTH"
);
}
);
width = 775;
},
{
anchors = (
{
name = bottom;
position = "{394, 0}";
},
{
name = center;
position = "{456, 350}";
},
{
name = top;
position = "{517, 700}";
}
);
layerId = "258BB4CE-589F-454F-8E39-237B943AA0B4";
paths = (
{
closed = 1;
nodes = (
"380 0 LINE SMOOTH",
"624 0 OFFCURVE",
"768 121 OFFCURVE",
"809 349 CURVE SMOOTH",
"850 577 OFFCURVE",
"706 700 OFFCURVE",
"493 700 CURVE SMOOTH",
"358 700 LINE SMOOTH",
"247 700 OFFCURVE",
"195 645 OFFCURVE",
"179 552 CURVE SMOOTH",
"153 401 LINE",
"114 401 LINE SMOOTH",
"72 401 OFFCURVE",
"45 381 OFFCURVE",
"40 349 CURVE SMOOTH",
"34 318 OFFCURVE",
"55 298 OFFCURVE",
"96 298 CURVE SMOOTH",
"135 298 LINE",
"109 152 LINE SMOOTH",
"92 56 OFFCURVE",
"141 0 OFFCURVE",
"242 0 CURVE SMOOTH"
);
},
{
closed = 1;
nodes = (
"249 103 OFFCURVE",
"237 121 OFFCURVE",
"242 152 CURVE SMOOTH",
"268 298 LINE",
"422 298 LINE SMOOTH",
"463 298 OFFCURVE",
"490 318 OFFCURVE",
"496 349 CURVE SMOOTH",
"501 381 OFFCURVE",
"482 401 OFFCURVE",
"440 401 CURVE SMOOTH",
"286 401 LINE",
"312 548 LINE SMOOTH",
"317 579 OFFCURVE",
"336 597 OFFCURVE",
"363 597 CURVE SMOOTH",
"470 597 LINE SMOOTH",
"627 597 OFFCURVE",
"704 524 OFFCURVE",
"674 349 CURVE SMOOTH",
"644 174 OFFCURVE",
"541 103 OFFCURVE",
"383 103 CURVE SMOOTH",
"276 103 LINE SMOOTH"
);
}
);
width = 829;
},
{
anchors = (
{
name = bottom;
position = "{380, 0}";
},
{
name = center;
position = "{442, 350}";
},
{
name = top;
position = "{503, 700}";
}
);
layerId = "8ED59CAD-D047-43C0-8308-3370007B39AA";
paths = (
{
closed = 1;
nodes = (
"358 0 LINE SMOOTH",
"557 0 OFFCURVE",
"727 120 OFFCURVE",
"768 349 CURVE SMOOTH",
"808 576 OFFCURVE",
"681 700 OFFCURVE",
"481 700 CURVE SMOOTH",
"340 700 LINE SMOOTH",
"252 700 OFFCURVE",
"200 648 OFFCURVE",
"187 575 CURVE SMOOTH",
"154 385 LINE",
"99 385 LINE SMOOTH",
"71 385 OFFCURVE",
"53 374 OFFCURVE",
"49 350 CURVE SMOOTH",
"45 329 OFFCURVE",
"59 317 OFFCURVE",
"87 317 CURVE SMOOTH",
"142 317 LINE",
"108 127 LINE SMOOTH",
"95 52 OFFCURVE",
"130 0 OFFCURVE",
"220 0 CURVE SMOOTH"
);
},
{
closed = 1;
nodes = (
"203 69 OFFCURVE",
"187 91 OFFCURVE",
"193 125 CURVE SMOOTH",
"227 317 LINE",
"391 317 LINE SMOOTH",
"420 317 OFFCURVE",
"437 329 OFFCURVE",
"441 350 CURVE SMOOTH",
"445 374 OFFCURVE",
"432 385 OFFCURVE",
"403 385 CURVE SMOOTH",
"239 385 LINE",
"272 575 LINE SMOOTH",
"278 609 OFFCURVE",
"302 631 OFFCURVE",
"334 631 CURVE SMOOTH",
"459 631 LINE SMOOTH",
"612 631 OFFCURVE",
"716 550 OFFCURVE",
"681 349 CURVE SMOOTH",
"645 149 OFFCURVE",
"515 69 OFFCURVE",
"360 69 CURVE SMOOTH",
"235 69 LINE SMOOTH"
);
}
);
width = 797;
}
);
note = Eth;
rightKerningGroup = D;
unicode = 00D0;
},
{
glyphname = Dcroat;
lastChange = "2018-03-10 10:10:30 +0000";
layers = (
{
layerId = "0B1DFD06-3317-40CA-B510-4969A0718C16";
paths = (
{
closed = 1;
nodes = (
"351 0 LINE SMOOTH",
"535 0 OFFCURVE",
"698 115 OFFCURVE",
"740 349 CURVE SMOOTH",
"781 576 OFFCURVE",
"653 700 OFFCURVE",
"467 700 CURVE SMOOTH",
"328 700 LINE SMOOTH",
"246 700 OFFCURVE",
"205 657 OFFCURVE",
"193 590 CURVE SMOOTH",
"155 374 LINE",
"89 374 LINE SMOOTH",
"70 374 OFFCURVE",
"58 369 OFFCURVE",
"55 351 CURVE SMOOTH",
"52 336 OFFCURVE",
"61 329 OFFCURVE",
"81 329 CURVE SMOOTH",
"147 329 LINE",
"108 110 LINE SMOOTH",
"97 50 OFFCURVE",
"129 0 OFFCURVE",
"205 0 CURVE SMOOTH"
);
},
{
closed = 1;
nodes = (
"172 47 OFFCURVE",
"155 71 OFFCURVE",
"161 107 CURVE SMOOTH",
"200 329 LINE",
"371 329 LINE SMOOTH",
"391 329 OFFCURVE",
"402 336 OFFCURVE",
"405 351 CURVE SMOOTH",
"408 369 OFFCURVE",
"398 374 OFFCURVE",
"379 374 CURVE SMOOTH",
"208 374 LINE",
"247 593 LINE SMOOTH",
"253 629 OFFCURVE",
"279 653 OFFCURVE",
"314 653 CURVE SMOOTH",
"451 653 LINE SMOOTH",
"613 653 OFFCURVE",
"725 576 OFFCURVE",
"686 349 CURVE SMOOTH",
"649 131 OFFCURVE",
"504 47 OFFCURVE",
"344 47 CURVE SMOOTH",
"207 47 LINE SMOOTH"
);
}
);
width = 775;
},
{
layerId = "258BB4CE-589F-454F-8E39-237B943AA0B4";
paths = (
{
closed = 1;
nodes = (
"380 0 LINE SMOOTH",
"624 0 OFFCURVE",
"768 121 OFFCURVE",
"809 349 CURVE SMOOTH",
"850 577 OFFCURVE",
"706 700 OFFCURVE",
"493 700 CURVE SMOOTH",
"358 700 LINE SMOOTH",
"247 700 OFFCURVE",
"195 645 OFFCURVE",
"179 552 CURVE SMOOTH",
"153 401 LINE",
"114 401 LINE SMOOTH",
"72 401 OFFCURVE",
"45 381 OFFCURVE",
"40 349 CURVE SMOOTH",
"34 318 OFFCURVE",
"55 298 OFFCURVE",
"96 298 CURVE SMOOTH",
"135 298 LINE",
"109 152 LINE SMOOTH",
"92 56 OFFCURVE",
"141 0 OFFCURVE",
"242 0 CURVE SMOOTH"
);
},
{
closed = 1;
nodes = (
"249 103 OFFCURVE",
"237 121 OFFCURVE",
"242 152 CURVE SMOOTH",
"268 298 LINE",
"422 298 LINE SMOOTH",
"463 298 OFFCURVE",
"490 318 OFFCURVE",
"496 349 CURVE SMOOTH",
"501 381 OFFCURVE",
"482 401 OFFCURVE",
"440 401 CURVE SMOOTH",
"286 401 LINE",
"312 548 LINE SMOOTH",
"317 579 OFFCURVE",
"336 597 OFFCURVE",
"363 597 CURVE SMOOTH",
"470 597 LINE SMOOTH",
"627 597 OFFCURVE",
"704 524 OFFCURVE",
"674 349 CURVE SMOOTH",
"644 174 OFFCURVE",
"541 103 OFFCURVE",
"383 103 CURVE SMOOTH",
"276 103 LINE SMOOTH"
);
}
);
width = 829;
},
{
layerId = "8ED59CAD-D047-43C0-8308-3370007B39AA";
paths = (
{
closed = 1;
nodes = (
"358 0 LINE SMOOTH",
"557 0 OFFCURVE",
"727 120 OFFCURVE",
"768 349 CURVE SMOOTH",
"808 576 OFFCURVE",
"681 700 OFFCURVE",
"481 700 CURVE SMOOTH",
"340 700 LINE SMOOTH",
"252 700 OFFCURVE",
"200 648 OFFCURVE",
"187 575 CURVE SMOOTH",
"154 385 LINE",
"99 385 LINE SMOOTH",
"71 385 OFFCURVE",
"53 374 OFFCURVE",
"49 350 CURVE SMOOTH",
"45 329 OFFCURVE",
"59 317 OFFCURVE",
"87 317 CURVE SMOOTH",
"142 317 LINE",
"108 127 LINE SMOOTH",
"95 52 OFFCURVE",
"130 0 OFFCURVE",
"220 0 CURVE SMOOTH"
);
},
{
closed = 1;
nodes = (
"203 69 OFFCURVE",
"187 91 OFFCURVE",
"193 125 CURVE SMOOTH",
"227 317 LINE",
"391 317 LINE SMOOTH",
"420 317 OFFCURVE",
"437 329 OFFCURVE",
"441 350 CURVE SMOOTH",
"445 374 OFFCURVE",
"432 385 OFFCURVE",
"403 385 CURVE SMOOTH",
"239 385 LINE",
"272 575 LINE SMOOTH",
"278 609 OFFCURVE",
"302 631 OFFCURVE",
"334 631 CURVE SMOOTH",
"459 631 LINE SMOOTH",
"612 631 OFFCURVE",
"716 550 OFFCURVE",
"681 349 CURVE SMOOTH",
"645 149 OFFCURVE",
"515 69 OFFCURVE",
"360 69 CURVE SMOOTH",
"235 69 LINE SMOOTH"
);
}
);
width = 797;
}
);
note = Dcroat;
rightKerningGroup = D;
unicode = 0110;
},
{
glyphname = Eacute;
lastChange = "2018-03-10 10:10:30 +0000";
layers = (
{
background = {
paths = (
{
closed = 1;
nodes = (
"554 0 LINE",
"571 179 LINE",
"544 179 LINE",
"538 124 OFFCURVE",
"520 40 OFFCURVE",
"456 40 CURVE SMOOTH",
"201 40 LINE",
"201 659 LINE",
"441 659 LINE SMOOTH",
"516 659 OFFCURVE",
"525 567 OFFCURVE",
"528 527 CURVE",
"555 527 LINE",
"555 700 LINE",
"16 700 LINE",
"16 673 LINE",
"44 673 LINE SMOOTH",
"83 673 OFFCURVE",
"103 662 OFFCURVE",
"103 637 CURVE SMOOTH",
"103 62 LINE SMOOTH",
"103 37 OFFCURVE",
"83 26 OFFCURVE",
"44 26 CURVE SMOOTH",
"16 26 LINE",
"16 0 LINE"
);
},
{
closed = 1;
nodes = (
"455 251 LINE",
"455 485 LINE",
"431 485 LINE",
"427 436 OFFCURVE",
"424 388 OFFCURVE",
"379 388 CURVE SMOOTH",
"162 388 LINE",
"162 348 LINE",
"379 348 LINE SMOOTH",
"424 348 OFFCURVE",
"427 300 OFFCURVE",
"431 251 CURVE"
);
},
{
closed = 1;
nodes = (
"398 865 LINE SMOOTH",
"420 877 OFFCURVE",
"432 890 OFFCURVE",
"432 907 CURVE SMOOTH",
"432 922 OFFCURVE",
"420 937 OFFCURVE",
"398 937 CURVE SMOOTH",
"377 937 OFFCURVE",
"362 921 OFFCURVE",
"354 914 CURVE SMOOTH",
"239 807 LINE",
"256 782 LINE"
);
}
);
};
components = (
{
name = E;
},
{
name = acute;
transform = "{1, 0, 0, 1, 275, 230}";
}
);
layerId = "0B1DFD06-3317-40CA-B510-4969A0718C16";
width = 613;
},
{
background = {
paths = (
{
closed = 1;
nodes = (
"554 0 LINE",
"571 179 LINE",
"544 179 LINE",
"538 124 OFFCURVE",
"520 40 OFFCURVE",
"456 40 CURVE SMOOTH",
"201 40 LINE",
"201 659 LINE",
"441 659 LINE SMOOTH",
"516 659 OFFCURVE",
"525 567 OFFCURVE",
"528 527 CURVE",
"555 527 LINE",
"555 700 LINE",
"16 700 LINE",
"16 673 LINE",
"44 673 LINE SMOOTH",
"83 673 OFFCURVE",
"103 662 OFFCURVE",
"103 637 CURVE SMOOTH",
"103 62 LINE SMOOTH",
"103 37 OFFCURVE",
"83 26 OFFCURVE",
"44 26 CURVE SMOOTH",
"16 26 LINE",
"16 0 LINE"
);
},
{
closed = 1;
nodes = (
"455 251 LINE",
"455 485 LINE",
"431 485 LINE",
"427 436 OFFCURVE",
"424 388 OFFCURVE",
"379 388 CURVE SMOOTH",
"162 388 LINE",
"162 348 LINE",
"379 348 LINE SMOOTH",
"424 348 OFFCURVE",
"427 300 OFFCURVE",
"431 251 CURVE"
);
},
{
closed = 1;
nodes = (
"398 865 LINE SMOOTH",
"420 877 OFFCURVE",
"432 890 OFFCURVE",
"432 907 CURVE SMOOTH",
"432 922 OFFCURVE",
"420 937 OFFCURVE",
"398 937 CURVE SMOOTH",
"377 937 OFFCURVE",
"362 921 OFFCURVE",
"354 914 CURVE SMOOTH",
"239 807 LINE",
"256 782 LINE"
);
}
);
};
components = (
{
name = E;
},
{
name = acute;
transform = "{1, 0, 0, 1, 286, 220}";
}
);
layerId = "258BB4CE-589F-454F-8E39-237B943AA0B4";
width = 638;
},
{
components = (
{
name = E;
},
{
name = acute;
transform = "{1, 0, 0, 1, 287, 226}";
}
);
layerId = "8ED59CAD-D047-43C0-8308-3370007B39AA";
width = 621;
}
);
note = Eacute;
rightKerningGroup = E;
unicode = 00C9;
},
{
glyphname = Ebreve;
lastChange = "2018-03-10 10:10:30 +0000";
layers = (
{
background = {
paths = (
{
closed = 1;
nodes = (
"554 0 LINE",
"571 179 LINE",
"544 179 LINE",
"538 124 OFFCURVE",
"520 40 OFFCURVE",
"456 40 CURVE SMOOTH",
"201 40 LINE",
"201 659 LINE",
"441 659 LINE SMOOTH",
"516 659 OFFCURVE",
"525 567 OFFCURVE",
"528 527 CURVE",
"555 527 LINE",
"555 700 LINE",
"16 700 LINE",
"16 673 LINE",
"44 673 LINE SMOOTH",
"83 673 OFFCURVE",
"103 662 OFFCURVE",
"103 637 CURVE SMOOTH",
"103 62 LINE SMOOTH",
"103 37 OFFCURVE",
"83 26 OFFCURVE",
"44 26 CURVE SMOOTH",
"16 26 LINE",
"16 0 LINE"
);
},
{
closed = 1;
nodes = (
"455 251 LINE",
"455 485 LINE",
"431 485 LINE",
"427 436 OFFCURVE",
"424 388 OFFCURVE",
"379 388 CURVE SMOOTH",
"162 388 LINE",
"162 348 LINE",
"379 348 LINE SMOOTH",
"424 348 OFFCURVE",
"427 300 OFFCURVE",
"431 251 CURVE"
);
},
{
closed = 1;
nodes = (
"432 776 OFFCURVE",
"474 832 OFFCURVE",
"478 907 CURVE",
"445 907 LINE",
"439 848 OFFCURVE",
"397 822 OFFCURVE",
"333 822 CURVE SMOOTH",
"269 822 OFFCURVE",
"226 848 OFFCURVE",
"219 907 CURVE",
"186 907 LINE",
"190 829 OFFCURVE",
"232 776 OFFCURVE",
"333 776 CURVE SMOOTH"
);
}
);
};
components = (
{
name = E;
},
{
name = breve;
transform = "{1, 0, 0, 1, 157, 230}";
}
);
layerId = "0B1DFD06-3317-40CA-B510-4969A0718C16";
width = 613;
},
{
background = {
paths = (
{
closed = 1;
nodes = (
"554 0 LINE",
"571 179 LINE",
"544 179 LINE",
"538 124 OFFCURVE",
"520 40 OFFCURVE",
"456 40 CURVE SMOOTH",
"201 40 LINE",
"201 659 LINE",
"441 659 LINE SMOOTH",
"516 659 OFFCURVE",
"525 567 OFFCURVE",
"528 527 CURVE",
"555 527 LINE",
"555 700 LINE",
"16 700 LINE",
"16 673 LINE",
"44 673 LINE SMOOTH",
"83 673 OFFCURVE",
"103 662 OFFCURVE",
"103 637 CURVE SMOOTH",
"103 62 LINE SMOOTH",
"103 37 OFFCURVE",
"83 26 OFFCURVE",
"44 26 CURVE SMOOTH",
"16 26 LINE",
"16 0 LINE"
);
},
{
closed = 1;
nodes = (
"455 251 LINE",
"455 485 LINE",
"431 485 LINE",
"427 436 OFFCURVE",
"424 388 OFFCURVE",
"379 388 CURVE SMOOTH",
"162 388 LINE",
"162 348 LINE",
"379 348 LINE SMOOTH",
"424 348 OFFCURVE",
"427 300 OFFCURVE",
"431 251 CURVE"
);
},
{
closed = 1;
nodes = (
"432 776 OFFCURVE",
"474 832 OFFCURVE",
"478 907 CURVE",
"445 907 LINE",
"439 848 OFFCURVE",
"397 822 OFFCURVE",
"333 822 CURVE SMOOTH",
"269 822 OFFCURVE",
"226 848 OFFCURVE",
"219 907 CURVE",
"186 907 LINE",
"190 829 OFFCURVE",
"232 776 OFFCURVE",
"333 776 CURVE SMOOTH"
);
}
);
};
components = (
{
name = E;
},
{
name = breve;
transform = "{1, 0, 0, 1, 167, 220}";
}
);
layerId = "258BB4CE-589F-454F-8E39-237B943AA0B4";
width = 638;
},
{
components = (
{
name = E;
},
{
name = breve;
transform = "{1, 0, 0, 1, 148, 226}";
}
);
layerId = "8ED59CAD-D047-43C0-8308-3370007B39AA";
width = 621;
}
);
note = Ebreve;
rightKerningGroup = E;
unicode = 0114;
},
{
glyphname = Ecaron;
lastChange = "2018-03-10 10:10:30 +0000";
layers = (
{
background = {
paths = (
{
closed = 1;
nodes = (
"554 0 LINE",
"571 179 LINE",
"544 179 LINE",
"538 124 OFFCURVE",
"520 40 OFFCURVE",
"456 40 CURVE SMOOTH",
"201 40 LINE",
"201 659 LINE",
"441 659 LINE SMOOTH",
"516 659 OFFCURVE",
"525 567 OFFCURVE",
"528 527 CURVE",
"555 527 LINE",
"555 700 LINE",
"16 700 LINE",
"16 673 LINE",
"44 673 LINE SMOOTH",
"83 673 OFFCURVE",
"103 662 OFFCURVE",
"103 637 CURVE SMOOTH",
"103 62 LINE SMOOTH",
"103 37 OFFCURVE",
"83 26 OFFCURVE",
"44 26 CURVE SMOOTH",
"16 26 LINE",
"16 0 LINE"
);
},
{
closed = 1;
nodes = (
"455 251 LINE",
"455 485 LINE",
"431 485 LINE",
"427 436 OFFCURVE",
"424 388 OFFCURVE",
"379 388 CURVE SMOOTH",
"162 388 LINE",
"162 348 LINE",
"379 348 LINE SMOOTH",
"424 348 OFFCURVE",
"427 300 OFFCURVE",
"431 251 CURVE"
);
},
{
closed = 1;
nodes = (
"357 782 LINE",
"481 911 LINE",
"462 932 LINE",
"354 847 LINE",
"346 840 OFFCURVE",
"337 836 OFFCURVE",
"331 836 CURVE SMOOTH",
"325 836 OFFCURVE",
"317 840 OFFCURVE",
"307 847 CURVE",
"199 932 LINE",
"180 911 LINE",
"304 782 LINE"
);
}
);
};
components = (
{
name = E;
},
{
name = caron;
transform = "{1, 0, 0, 1, 159, 230}";
}
);
layerId = "0B1DFD06-3317-40CA-B510-4969A0718C16";
width = 613;
},
{
background = {
paths = (
{
closed = 1;
nodes = (
"554 0 LINE",
"571 179 LINE",
"544 179 LINE",
"538 124 OFFCURVE",
"520 40 OFFCURVE",
"456 40 CURVE SMOOTH",
"201 40 LINE",
"201 659 LINE",
"441 659 LINE SMOOTH",
"516 659 OFFCURVE",
"525 567 OFFCURVE",
"528 527 CURVE",
"555 527 LINE",
"555 700 LINE",
"16 700 LINE",
"16 673 LINE",
"44 673 LINE SMOOTH",
"83 673 OFFCURVE",
"103 662 OFFCURVE",
"103 637 CURVE SMOOTH",
"103 62 LINE SMOOTH",
"103 37 OFFCURVE",
"83 26 OFFCURVE",
"44 26 CURVE SMOOTH",
"16 26 LINE",
"16 0 LINE"
);
},
{
closed = 1;
nodes = (
"455 251 LINE",
"455 485 LINE",
"431 485 LINE",
"427 436 OFFCURVE",
"424 388 OFFCURVE",
"379 388 CURVE SMOOTH",
"162 388 LINE",
"162 348 LINE",
"379 348 LINE SMOOTH",
"424 348 OFFCURVE",
"427 300 OFFCURVE",
"431 251 CURVE"
);
},
{
closed = 1;
nodes = (
"357 782 LINE",
"481 911 LINE",
"462 932 LINE",
"354 847 LINE",
"346 840 OFFCURVE",
"337 836 OFFCURVE",
"331 836 CURVE SMOOTH",
"325 836 OFFCURVE",
"317 840 OFFCURVE",
"307 847 CURVE",
"199 932 LINE",
"180 911 LINE",
"304 782 LINE"
);
}
);
};
components = (
{
name = E;
},
{
name = caron;
transform = "{1, 0, 0, 1, 149, 220}";
}
);
layerId = "258BB4CE-589F-454F-8E39-237B943AA0B4";
width = 638;
},
{
components = (
{
name = E;
},
{
name = caron;
transform = "{1, 0, 0, 1, 161, 226}";
}
);
layerId = "8ED59CAD-D047-43C0-8308-3370007B39AA";
width = 621;
}
);
note = Ecaron;
rightKerningGroup = E;
unicode = 011A;
},
{
glyphname = Ecircumflex;
lastChange = "2018-03-10 10:10:30 +0000";
layers = (
{
background = {
paths = (
{
closed = 1;
nodes = (
"554 0 LINE",
"571 179 LINE",
"544 179 LINE",
"538 124 OFFCURVE",
"520 40 OFFCURVE",
"456 40 CURVE SMOOTH",
"201 40 LINE",
"201 659 LINE",
"441 659 LINE SMOOTH",
"516 659 OFFCURVE",
"525 567 OFFCURVE",
"528 527 CURVE",
"555 527 LINE",
"555 700 LINE",
"16 700 LINE",
"16 673 LINE",
"44 673 LINE SMOOTH",
"83 673 OFFCURVE",
"103 662 OFFCURVE",
"103 637 CURVE SMOOTH",
"103 62 LINE SMOOTH",
"103 37 OFFCURVE",
"83 26 OFFCURVE",
"44 26 CURVE SMOOTH",
"16 26 LINE",
"16 0 LINE"
);
},
{
closed = 1;
nodes = (
"455 251 LINE",
"455 485 LINE",
"431 485 LINE",
"427 436 OFFCURVE",
"424 388 OFFCURVE",
"379 388 CURVE SMOOTH",
"162 388 LINE",
"162 348 LINE",
"379 348 LINE SMOOTH",
"424 348 OFFCURVE",
"427 300 OFFCURVE",
"431 251 CURVE"
);
},
{
closed = 1;
nodes = (
"304 868 LINE SMOOTH",
"312 874 OFFCURVE",
"322 879 OFFCURVE",
"328 879 CURVE SMOOTH",
"334 879 OFFCURVE",
"342 874 OFFCURVE",
"351 868 CURVE",
"459 782 LINE",
"478 803 LINE",
"354 932 LINE",
"301 932 LINE",
"177 803 LINE",
"196 782 LINE"
);
}
);
};
components = (
{
name = E;
},
{
name = circumflex;
transform = "{1, 0, 0, 1, 158, 230}";
}
);
layerId = "0B1DFD06-3317-40CA-B510-4969A0718C16";
width = 613;
},
{
background = {
paths = (
{
closed = 1;
nodes = (
"554 0 LINE",
"571 179 LINE",
"544 179 LINE",
"538 124 OFFCURVE",
"520 40 OFFCURVE",
"456 40 CURVE SMOOTH",
"201 40 LINE",
"201 659 LINE",
"441 659 LINE SMOOTH",
"516 659 OFFCURVE",
"525 567 OFFCURVE",
"528 527 CURVE",
"555 527 LINE",
"555 700 LINE",
"16 700 LINE",
"16 673 LINE",
"44 673 LINE SMOOTH",
"83 673 OFFCURVE",
"103 662 OFFCURVE",
"103 637 CURVE SMOOTH",
"103 62 LINE SMOOTH",
"103 37 OFFCURVE",
"83 26 OFFCURVE",
"44 26 CURVE SMOOTH",
"16 26 LINE",
"16 0 LINE"
);
},
{
closed = 1;
nodes = (
"455 251 LINE",
"455 485 LINE",
"431 485 LINE",
"427 436 OFFCURVE",
"424 388 OFFCURVE",
"379 388 CURVE SMOOTH",
"162 388 LINE",
"162 348 LINE",
"379 348 LINE SMOOTH",
"424 348 OFFCURVE",
"427 300 OFFCURVE",
"431 251 CURVE"
);
},
{
closed = 1;
nodes = (
"304 868 LINE SMOOTH",
"312 874 OFFCURVE",
"322 879 OFFCURVE",
"328 879 CURVE SMOOTH",
"334 879 OFFCURVE",
"342 874 OFFCURVE",
"351 868 CURVE",
"459 782 LINE",
"478 803 LINE",
"354 932 LINE",
"301 932 LINE",
"177 803 LINE",
"196 782 LINE"
);
}
);
};
components = (
{
name = E;
},
{
name = circumflex;
transform = "{1, 0, 0, 1, 152, 220}";
}
);
layerId = "258BB4CE-589F-454F-8E39-237B943AA0B4";
width = 638;
},
{
components = (
{
name = E;
},
{
name = circumflex;
transform = "{1, 0, 0, 1, 163, 226}";
}
);
layerId = "8ED59CAD-D047-43C0-8308-3370007B39AA";
width = 621;
}
);
note = Ecircumflex;
rightKerningGroup = E;
unicode = 00CA;
},
{
glyphname = Ecircumflexacute;
lastChange = "2018-03-10 10:10:30 +0000";
layers = (
{
background = {
paths = (
{
closed = 1;
nodes = (
"554 0 LINE",
"571 179 LINE",
"544 179 LINE",
"538 124 OFFCURVE",
"520 40 OFFCURVE",
"456 40 CURVE SMOOTH",
"201 40 LINE",
"201 659 LINE",
"441 659 LINE SMOOTH",
"516 659 OFFCURVE",
"525 567 OFFCURVE",
"528 527 CURVE",
"555 527 LINE",
"555 700 LINE",
"16 700 LINE",
"16 673 LINE",
"44 673 LINE SMOOTH",
"83 673 OFFCURVE",
"103 662 OFFCURVE",
"103 637 CURVE SMOOTH",
"103 62 LINE SMOOTH",
"103 37 OFFCURVE",
"83 26 OFFCURVE",
"44 26 CURVE SMOOTH",
"16 26 LINE",
"16 0 LINE"
);
},
{
closed = 1;
nodes = (
"455 251 LINE",
"455 485 LINE",
"431 485 LINE",
"427 436 OFFCURVE",
"424 388 OFFCURVE",
"379 388 CURVE SMOOTH",
"162 388 LINE",
"162 348 LINE",
"379 348 LINE SMOOTH",
"424 348 OFFCURVE",
"427 300 OFFCURVE",
"431 251 CURVE"
);
},
{
closed = 1;
nodes = (
"290 862 LINE SMOOTH",
"300 870 OFFCURVE",
"310 878 OFFCURVE",
"318 878 CURVE SMOOTH",
"324 878 OFFCURVE",
"332 873 OFFCURVE",
"341 867 CURVE",
"447 781 LINE",
"466 803 LINE",
"344 932 LINE",
"293 932 LINE",
"171 803 LINE",
"189 781 LINE"
);
},
{
closed = 1;
nodes = (
"555 960 LINE SMOOTH",
"578 972 OFFCURVE",
"591 988 OFFCURVE",
"591 1003 CURVE SMOOTH",
"591 1017 OFFCURVE",
"580 1034 OFFCURVE",
"557 1034 CURVE SMOOTH",
"538 1034 OFFCURVE",
"521 1018 OFFCURVE",
"511 1008 CURVE SMOOTH",
"415 915 LINE",
"433 893 LINE"
);
}
);
};
components = (
{
name = E;
},
{
name = circumflex_acute;
transform = "{1, 0, 0, 1, 597, 230}";
}
);
layerId = "0B1DFD06-3317-40CA-B510-4969A0718C16";
width = 613;
},
{
background = {
paths = (
{
closed = 1;
nodes = (
"554 0 LINE",
"571 179 LINE",
"544 179 LINE",
"538 124 OFFCURVE",
"520 40 OFFCURVE",
"456 40 CURVE SMOOTH",
"201 40 LINE",
"201 659 LINE",
"441 659 LINE SMOOTH",
"516 659 OFFCURVE",
"525 567 OFFCURVE",
"528 527 CURVE",
"555 527 LINE",
"555 700 LINE",
"16 700 LINE",
"16 673 LINE",
"44 673 LINE SMOOTH",
"83 673 OFFCURVE",
"103 662 OFFCURVE",
"103 637 CURVE SMOOTH",
"103 62 LINE SMOOTH",
"103 37 OFFCURVE",
"83 26 OFFCURVE",
"44 26 CURVE SMOOTH",
"16 26 LINE",
"16 0 LINE"
);
},
{
closed = 1;
nodes = (
"455 251 LINE",
"455 485 LINE",
"431 485 LINE",
"427 436 OFFCURVE",
"424 388 OFFCURVE",
"379 388 CURVE SMOOTH",
"162 388 LINE",
"162 348 LINE",
"379 348 LINE SMOOTH",
"424 348 OFFCURVE",
"427 300 OFFCURVE",
"431 251 CURVE"
);
},
{
closed = 1;
nodes = (
"290 862 LINE SMOOTH",
"300 870 OFFCURVE",
"310 878 OFFCURVE",
"318 878 CURVE SMOOTH",
"324 878 OFFCURVE",
"332 873 OFFCURVE",
"341 867 CURVE",
"447 781 LINE",
"466 803 LINE",
"344 932 LINE",
"293 932 LINE",
"171 803 LINE",
"189 781 LINE"
);
},
{
closed = 1;
nodes = (
"555 960 LINE SMOOTH",
"578 972 OFFCURVE",
"591 988 OFFCURVE",
"591 1003 CURVE SMOOTH",
"591 1017 OFFCURVE",
"580 1034 OFFCURVE",
"557 1034 CURVE SMOOTH",
"538 1034 OFFCURVE",
"521 1018 OFFCURVE",
"511 1008 CURVE SMOOTH",
"415 915 LINE",
"433 893 LINE"
);
}
);
};
components = (
{
name = E;
},
{
name = circumflex_acute;
transform = "{1, 0, 0, 1, 607, 220}";
}
);
layerId = "258BB4CE-589F-454F-8E39-237B943AA0B4";
width = 638;
},
{
components = (
{
name = E;
},
{
name = circumflex_acute;
transform = "{1, 0, 0, 1, 604, 226}";
}
);
layerId = "8ED59CAD-D047-43C0-8308-3370007B39AA";
width = 621;
}
);
note = Ecircumflexacute;
rightKerningGroup = E;
unicode = 1EBE;
},
{
glyphname = Ecircumflexdotbelow;
lastChange = "2018-03-10 10:10:30 +0000";
layers = (
{
background = {
paths = (
{
closed = 1;
nodes = (
"554 0 LINE",
"571 179 LINE",
"544 179 LINE",
"538 124 OFFCURVE",
"520 40 OFFCURVE",
"456 40 CURVE SMOOTH",
"201 40 LINE",
"201 659 LINE",
"441 659 LINE SMOOTH",
"516 659 OFFCURVE",
"525 567 OFFCURVE",
"528 527 CURVE",
"555 527 LINE",
"555 700 LINE",
"16 700 LINE",
"16 673 LINE",
"44 673 LINE SMOOTH",
"83 673 OFFCURVE",
"103 662 OFFCURVE",
"103 637 CURVE SMOOTH",
"103 62 LINE SMOOTH",
"103 37 OFFCURVE",
"83 26 OFFCURVE",
"44 26 CURVE SMOOTH",
"16 26 LINE",
"16 0 LINE"
);
},
{
closed = 1;
nodes = (
"350 -159 OFFCURVE",
"368 -140 OFFCURVE",
"368 -112 CURVE SMOOTH",
"368 -84 OFFCURVE",
"350 -64 OFFCURVE",
"322 -64 CURVE SMOOTH",
"294 -64 OFFCURVE",
"275 -84 OFFCURVE",
"275 -112 CURVE SMOOTH",
"275 -140 OFFCURVE",
"294 -159 OFFCURVE",
"322 -159 CURVE SMOOTH"
);
},
{
closed = 1;
nodes = (
"455 251 LINE",
"455 485 LINE",
"431 485 LINE",
"427 436 OFFCURVE",
"424 388 OFFCURVE",
"379 388 CURVE SMOOTH",
"162 388 LINE",
"162 348 LINE",
"379 348 LINE SMOOTH",
"424 348 OFFCURVE",
"427 300 OFFCURVE",
"431 251 CURVE"
);
},
{
closed = 1;
nodes = (
"294 868 LINE SMOOTH",
"302 874 OFFCURVE",
"312 879 OFFCURVE",
"318 879 CURVE SMOOTH",
"324 879 OFFCURVE",
"332 874 OFFCURVE",
"341 868 CURVE",
"449 782 LINE",
"468 803 LINE",
"344 932 LINE",
"291 932 LINE",
"167 803 LINE",
"186 782 LINE"
);
}
);
};
components = (
{
name = E;
},
{
name = dotbelowcomb;
transform = "{1, 0, 0, 1, 214, 0}";
},
{
name = circumflex;
transform = "{1, 0, 0, 1, 158, 230}";
}
);
layerId = "0B1DFD06-3317-40CA-B510-4969A0718C16";
width = 613;
},
{
background = {
paths = (
{
closed = 1;
nodes = (
"554 0 LINE",
"571 179 LINE",
"544 179 LINE",
"538 124 OFFCURVE",
"520 40 OFFCURVE",
"456 40 CURVE SMOOTH",
"201 40 LINE",
"201 659 LINE",
"441 659 LINE SMOOTH",
"516 659 OFFCURVE",
"525 567 OFFCURVE",
"528 527 CURVE",
"555 527 LINE",
"555 700 LINE",
"16 700 LINE",
"16 673 LINE",
"44 673 LINE SMOOTH",
"83 673 OFFCURVE",
"103 662 OFFCURVE",
"103 637 CURVE SMOOTH",
"103 62 LINE SMOOTH",
"103 37 OFFCURVE",
"83 26 OFFCURVE",
"44 26 CURVE SMOOTH",
"16 26 LINE",
"16 0 LINE"
);
},
{
closed = 1;
nodes = (
"350 -159 OFFCURVE",
"368 -140 OFFCURVE",
"368 -112 CURVE SMOOTH",
"368 -84 OFFCURVE",
"350 -64 OFFCURVE",
"322 -64 CURVE SMOOTH",
"294 -64 OFFCURVE",
"275 -84 OFFCURVE",
"275 -112 CURVE SMOOTH",
"275 -140 OFFCURVE",
"294 -159 OFFCURVE",
"322 -159 CURVE SMOOTH"
);
},
{
closed = 1;
nodes = (
"455 251 LINE",
"455 485 LINE",
"431 485 LINE",
"427 436 OFFCURVE",
"424 388 OFFCURVE",
"379 388 CURVE SMOOTH",
"162 388 LINE",
"162 348 LINE",
"379 348 LINE SMOOTH",
"424 348 OFFCURVE",
"427 300 OFFCURVE",
"431 251 CURVE"
);
},
{
closed = 1;
nodes = (
"294 868 LINE SMOOTH",
"302 874 OFFCURVE",
"312 879 OFFCURVE",
"318 879 CURVE SMOOTH",
"324 879 OFFCURVE",
"332 874 OFFCURVE",
"341 868 CURVE",
"449 782 LINE",
"468 803 LINE",
"344 932 LINE",
"291 932 LINE",
"167 803 LINE",
"186 782 LINE"
);
}
);
};
components = (
{
name = E;
},
{
name = dotbelowcomb;
transform = "{1, 0, 0, 1, 202, 0}";
},
{
name = circumflex;
transform = "{1, 0, 0, 1, 152, 220}";
}
);
layerId = "258BB4CE-589F-454F-8E39-237B943AA0B4";
width = 638;
},
{
components = (
{
name = E;
},
{
name = dotbelowcomb;
transform = "{1, 0, 0, 1, 216, 0}";
},
{
name = circumflex;
transform = "{1, 0, 0, 1, 163, 226}";
}
);
layerId = "8ED59CAD-D047-43C0-8308-3370007B39AA";
width = 621;
}
);
note = Ecircumflexdotbelow;
rightKerningGroup = E;
unicode = 1EC6;
},
